%TF.GenerationSoftware,KiCad,Pcbnew,9.0.6*%
%TF.CreationDate,2026-03-04T20:25:34+11:00*%
%TF.ProjectId,CustomMouse,43757374-6f6d-44d6-9f75-73652e6b6963,rev?*%
%TF.SameCoordinates,Original*%
%TF.FileFunction,Legend,Top*%
%TF.FilePolarity,Positive*%
%FSLAX46Y46*%
G04 Gerber Fmt 4.6, Leading zero omitted, Abs format (unit mm)*
G04 Created by KiCad (PCBNEW 9.0.6) date 2026-03-04 20:25:34*
%MOMM*%
%LPD*%
G01*
G04 APERTURE LIST*
%ADD10C,0.150000*%
%ADD11C,0.120000*%
%ADD12C,0.200000*%
G04 APERTURE END LIST*
D10*
X171258333Y-98474580D02*
X171210714Y-98522200D01*
X171210714Y-98522200D02*
X171067857Y-98569819D01*
X171067857Y-98569819D02*
X170972619Y-98569819D01*
X170972619Y-98569819D02*
X170829762Y-98522200D01*
X170829762Y-98522200D02*
X170734524Y-98426961D01*
X170734524Y-98426961D02*
X170686905Y-98331723D01*
X170686905Y-98331723D02*
X170639286Y-98141247D01*
X170639286Y-98141247D02*
X170639286Y-97998390D01*
X170639286Y-97998390D02*
X170686905Y-97807914D01*
X170686905Y-97807914D02*
X170734524Y-97712676D01*
X170734524Y-97712676D02*
X170829762Y-97617438D01*
X170829762Y-97617438D02*
X170972619Y-97569819D01*
X170972619Y-97569819D02*
X171067857Y-97569819D01*
X171067857Y-97569819D02*
X171210714Y-97617438D01*
X171210714Y-97617438D02*
X171258333Y-97665057D01*
X171829762Y-97998390D02*
X171734524Y-97950771D01*
X171734524Y-97950771D02*
X171686905Y-97903152D01*
X171686905Y-97903152D02*
X171639286Y-97807914D01*
X171639286Y-97807914D02*
X171639286Y-97760295D01*
X171639286Y-97760295D02*
X171686905Y-97665057D01*
X171686905Y-97665057D02*
X171734524Y-97617438D01*
X171734524Y-97617438D02*
X171829762Y-97569819D01*
X171829762Y-97569819D02*
X172020238Y-97569819D01*
X172020238Y-97569819D02*
X172115476Y-97617438D01*
X172115476Y-97617438D02*
X172163095Y-97665057D01*
X172163095Y-97665057D02*
X172210714Y-97760295D01*
X172210714Y-97760295D02*
X172210714Y-97807914D01*
X172210714Y-97807914D02*
X172163095Y-97903152D01*
X172163095Y-97903152D02*
X172115476Y-97950771D01*
X172115476Y-97950771D02*
X172020238Y-97998390D01*
X172020238Y-97998390D02*
X171829762Y-97998390D01*
X171829762Y-97998390D02*
X171734524Y-98046009D01*
X171734524Y-98046009D02*
X171686905Y-98093628D01*
X171686905Y-98093628D02*
X171639286Y-98188866D01*
X171639286Y-98188866D02*
X171639286Y-98379342D01*
X171639286Y-98379342D02*
X171686905Y-98474580D01*
X171686905Y-98474580D02*
X171734524Y-98522200D01*
X171734524Y-98522200D02*
X171829762Y-98569819D01*
X171829762Y-98569819D02*
X172020238Y-98569819D01*
X172020238Y-98569819D02*
X172115476Y-98522200D01*
X172115476Y-98522200D02*
X172163095Y-98474580D01*
X172163095Y-98474580D02*
X172210714Y-98379342D01*
X172210714Y-98379342D02*
X172210714Y-98188866D01*
X172210714Y-98188866D02*
X172163095Y-98093628D01*
X172163095Y-98093628D02*
X172115476Y-98046009D01*
X172115476Y-98046009D02*
X172020238Y-97998390D01*
X171163095Y-108569819D02*
X171163095Y-109379342D01*
X171163095Y-109379342D02*
X171210714Y-109474580D01*
X171210714Y-109474580D02*
X171258333Y-109522200D01*
X171258333Y-109522200D02*
X171353571Y-109569819D01*
X171353571Y-109569819D02*
X171544047Y-109569819D01*
X171544047Y-109569819D02*
X171639285Y-109522200D01*
X171639285Y-109522200D02*
X171686904Y-109474580D01*
X171686904Y-109474580D02*
X171734523Y-109379342D01*
X171734523Y-109379342D02*
X171734523Y-108569819D01*
X172734523Y-109569819D02*
X172163095Y-109569819D01*
X172448809Y-109569819D02*
X172448809Y-108569819D01*
X172448809Y-108569819D02*
X172353571Y-108712676D01*
X172353571Y-108712676D02*
X172258333Y-108807914D01*
X172258333Y-108807914D02*
X172163095Y-108855533D01*
X176319580Y-88220357D02*
X176367200Y-88267976D01*
X176367200Y-88267976D02*
X176414819Y-88410833D01*
X176414819Y-88410833D02*
X176414819Y-88506071D01*
X176414819Y-88506071D02*
X176367200Y-88648928D01*
X176367200Y-88648928D02*
X176271961Y-88744166D01*
X176271961Y-88744166D02*
X176176723Y-88791785D01*
X176176723Y-88791785D02*
X175986247Y-88839404D01*
X175986247Y-88839404D02*
X175843390Y-88839404D01*
X175843390Y-88839404D02*
X175652914Y-88791785D01*
X175652914Y-88791785D02*
X175557676Y-88744166D01*
X175557676Y-88744166D02*
X175462438Y-88648928D01*
X175462438Y-88648928D02*
X175414819Y-88506071D01*
X175414819Y-88506071D02*
X175414819Y-88410833D01*
X175414819Y-88410833D02*
X175462438Y-88267976D01*
X175462438Y-88267976D02*
X175510057Y-88220357D01*
X176414819Y-87267976D02*
X176414819Y-87839404D01*
X176414819Y-87553690D02*
X175414819Y-87553690D01*
X175414819Y-87553690D02*
X175557676Y-87648928D01*
X175557676Y-87648928D02*
X175652914Y-87744166D01*
X175652914Y-87744166D02*
X175700533Y-87839404D01*
X175414819Y-86363214D02*
X175414819Y-86839404D01*
X175414819Y-86839404D02*
X175891009Y-86887023D01*
X175891009Y-86887023D02*
X175843390Y-86839404D01*
X175843390Y-86839404D02*
X175795771Y-86744166D01*
X175795771Y-86744166D02*
X175795771Y-86506071D01*
X175795771Y-86506071D02*
X175843390Y-86410833D01*
X175843390Y-86410833D02*
X175891009Y-86363214D01*
X175891009Y-86363214D02*
X175986247Y-86315595D01*
X175986247Y-86315595D02*
X176224342Y-86315595D01*
X176224342Y-86315595D02*
X176319580Y-86363214D01*
X176319580Y-86363214D02*
X176367200Y-86410833D01*
X176367200Y-86410833D02*
X176414819Y-86506071D01*
X176414819Y-86506071D02*
X176414819Y-86744166D01*
X176414819Y-86744166D02*
X176367200Y-86839404D01*
X176367200Y-86839404D02*
X176319580Y-86887023D01*
X168833333Y-67454819D02*
X168500000Y-66978628D01*
X168261905Y-67454819D02*
X168261905Y-66454819D01*
X168261905Y-66454819D02*
X168642857Y-66454819D01*
X168642857Y-66454819D02*
X168738095Y-66502438D01*
X168738095Y-66502438D02*
X168785714Y-66550057D01*
X168785714Y-66550057D02*
X168833333Y-66645295D01*
X168833333Y-66645295D02*
X168833333Y-66788152D01*
X168833333Y-66788152D02*
X168785714Y-66883390D01*
X168785714Y-66883390D02*
X168738095Y-66931009D01*
X168738095Y-66931009D02*
X168642857Y-66978628D01*
X168642857Y-66978628D02*
X168261905Y-66978628D01*
X169214286Y-66550057D02*
X169261905Y-66502438D01*
X169261905Y-66502438D02*
X169357143Y-66454819D01*
X169357143Y-66454819D02*
X169595238Y-66454819D01*
X169595238Y-66454819D02*
X169690476Y-66502438D01*
X169690476Y-66502438D02*
X169738095Y-66550057D01*
X169738095Y-66550057D02*
X169785714Y-66645295D01*
X169785714Y-66645295D02*
X169785714Y-66740533D01*
X169785714Y-66740533D02*
X169738095Y-66883390D01*
X169738095Y-66883390D02*
X169166667Y-67454819D01*
X169166667Y-67454819D02*
X169785714Y-67454819D01*
X168094580Y-73541666D02*
X168142200Y-73589285D01*
X168142200Y-73589285D02*
X168189819Y-73732142D01*
X168189819Y-73732142D02*
X168189819Y-73827380D01*
X168189819Y-73827380D02*
X168142200Y-73970237D01*
X168142200Y-73970237D02*
X168046961Y-74065475D01*
X168046961Y-74065475D02*
X167951723Y-74113094D01*
X167951723Y-74113094D02*
X167761247Y-74160713D01*
X167761247Y-74160713D02*
X167618390Y-74160713D01*
X167618390Y-74160713D02*
X167427914Y-74113094D01*
X167427914Y-74113094D02*
X167332676Y-74065475D01*
X167332676Y-74065475D02*
X167237438Y-73970237D01*
X167237438Y-73970237D02*
X167189819Y-73827380D01*
X167189819Y-73827380D02*
X167189819Y-73732142D01*
X167189819Y-73732142D02*
X167237438Y-73589285D01*
X167237438Y-73589285D02*
X167285057Y-73541666D01*
X168189819Y-73065475D02*
X168189819Y-72874999D01*
X168189819Y-72874999D02*
X168142200Y-72779761D01*
X168142200Y-72779761D02*
X168094580Y-72732142D01*
X168094580Y-72732142D02*
X167951723Y-72636904D01*
X167951723Y-72636904D02*
X167761247Y-72589285D01*
X167761247Y-72589285D02*
X167380295Y-72589285D01*
X167380295Y-72589285D02*
X167285057Y-72636904D01*
X167285057Y-72636904D02*
X167237438Y-72684523D01*
X167237438Y-72684523D02*
X167189819Y-72779761D01*
X167189819Y-72779761D02*
X167189819Y-72970237D01*
X167189819Y-72970237D02*
X167237438Y-73065475D01*
X167237438Y-73065475D02*
X167285057Y-73113094D01*
X167285057Y-73113094D02*
X167380295Y-73160713D01*
X167380295Y-73160713D02*
X167618390Y-73160713D01*
X167618390Y-73160713D02*
X167713628Y-73113094D01*
X167713628Y-73113094D02*
X167761247Y-73065475D01*
X167761247Y-73065475D02*
X167808866Y-72970237D01*
X167808866Y-72970237D02*
X167808866Y-72779761D01*
X167808866Y-72779761D02*
X167761247Y-72684523D01*
X167761247Y-72684523D02*
X167713628Y-72636904D01*
X167713628Y-72636904D02*
X167618390Y-72589285D01*
X154483333Y-111314580D02*
X154435714Y-111362200D01*
X154435714Y-111362200D02*
X154292857Y-111409819D01*
X154292857Y-111409819D02*
X154197619Y-111409819D01*
X154197619Y-111409819D02*
X154054762Y-111362200D01*
X154054762Y-111362200D02*
X153959524Y-111266961D01*
X153959524Y-111266961D02*
X153911905Y-111171723D01*
X153911905Y-111171723D02*
X153864286Y-110981247D01*
X153864286Y-110981247D02*
X153864286Y-110838390D01*
X153864286Y-110838390D02*
X153911905Y-110647914D01*
X153911905Y-110647914D02*
X153959524Y-110552676D01*
X153959524Y-110552676D02*
X154054762Y-110457438D01*
X154054762Y-110457438D02*
X154197619Y-110409819D01*
X154197619Y-110409819D02*
X154292857Y-110409819D01*
X154292857Y-110409819D02*
X154435714Y-110457438D01*
X154435714Y-110457438D02*
X154483333Y-110505057D01*
X154816667Y-110409819D02*
X155435714Y-110409819D01*
X155435714Y-110409819D02*
X155102381Y-110790771D01*
X155102381Y-110790771D02*
X155245238Y-110790771D01*
X155245238Y-110790771D02*
X155340476Y-110838390D01*
X155340476Y-110838390D02*
X155388095Y-110886009D01*
X155388095Y-110886009D02*
X155435714Y-110981247D01*
X155435714Y-110981247D02*
X155435714Y-111219342D01*
X155435714Y-111219342D02*
X155388095Y-111314580D01*
X155388095Y-111314580D02*
X155340476Y-111362200D01*
X155340476Y-111362200D02*
X155245238Y-111409819D01*
X155245238Y-111409819D02*
X154959524Y-111409819D01*
X154959524Y-111409819D02*
X154864286Y-111362200D01*
X154864286Y-111362200D02*
X154816667Y-111314580D01*
X148954819Y-103761904D02*
X148954819Y-103190476D01*
X149954819Y-103476190D02*
X148954819Y-103476190D01*
X149954819Y-102857142D02*
X148954819Y-102857142D01*
X148954819Y-102857142D02*
X148954819Y-102476190D01*
X148954819Y-102476190D02*
X149002438Y-102380952D01*
X149002438Y-102380952D02*
X149050057Y-102333333D01*
X149050057Y-102333333D02*
X149145295Y-102285714D01*
X149145295Y-102285714D02*
X149288152Y-102285714D01*
X149288152Y-102285714D02*
X149383390Y-102333333D01*
X149383390Y-102333333D02*
X149431009Y-102380952D01*
X149431009Y-102380952D02*
X149478628Y-102476190D01*
X149478628Y-102476190D02*
X149478628Y-102857142D01*
X149954819Y-101333333D02*
X149954819Y-101904761D01*
X149954819Y-101619047D02*
X148954819Y-101619047D01*
X148954819Y-101619047D02*
X149097676Y-101714285D01*
X149097676Y-101714285D02*
X149192914Y-101809523D01*
X149192914Y-101809523D02*
X149240533Y-101904761D01*
X180454819Y-97690475D02*
X179454819Y-97690475D01*
X179454819Y-97690475D02*
X179454819Y-97452380D01*
X179454819Y-97452380D02*
X179502438Y-97309523D01*
X179502438Y-97309523D02*
X179597676Y-97214285D01*
X179597676Y-97214285D02*
X179692914Y-97166666D01*
X179692914Y-97166666D02*
X179883390Y-97119047D01*
X179883390Y-97119047D02*
X180026247Y-97119047D01*
X180026247Y-97119047D02*
X180216723Y-97166666D01*
X180216723Y-97166666D02*
X180311961Y-97214285D01*
X180311961Y-97214285D02*
X180407200Y-97309523D01*
X180407200Y-97309523D02*
X180454819Y-97452380D01*
X180454819Y-97452380D02*
X180454819Y-97690475D01*
X179931009Y-96357142D02*
X179931009Y-96690475D01*
X180454819Y-96690475D02*
X179454819Y-96690475D01*
X179454819Y-96690475D02*
X179454819Y-96214285D01*
X179454819Y-95833332D02*
X180264342Y-95833332D01*
X180264342Y-95833332D02*
X180359580Y-95785713D01*
X180359580Y-95785713D02*
X180407200Y-95738094D01*
X180407200Y-95738094D02*
X180454819Y-95642856D01*
X180454819Y-95642856D02*
X180454819Y-95452380D01*
X180454819Y-95452380D02*
X180407200Y-95357142D01*
X180407200Y-95357142D02*
X180359580Y-95309523D01*
X180359580Y-95309523D02*
X180264342Y-95261904D01*
X180264342Y-95261904D02*
X179454819Y-95261904D01*
X180454819Y-94261904D02*
X180454819Y-94833332D01*
X180454819Y-94547618D02*
X179454819Y-94547618D01*
X179454819Y-94547618D02*
X179597676Y-94642856D01*
X179597676Y-94642856D02*
X179692914Y-94738094D01*
X179692914Y-94738094D02*
X179740533Y-94833332D01*
X181782142Y-111359580D02*
X181734523Y-111407200D01*
X181734523Y-111407200D02*
X181591666Y-111454819D01*
X181591666Y-111454819D02*
X181496428Y-111454819D01*
X181496428Y-111454819D02*
X181353571Y-111407200D01*
X181353571Y-111407200D02*
X181258333Y-111311961D01*
X181258333Y-111311961D02*
X181210714Y-111216723D01*
X181210714Y-111216723D02*
X181163095Y-111026247D01*
X181163095Y-111026247D02*
X181163095Y-110883390D01*
X181163095Y-110883390D02*
X181210714Y-110692914D01*
X181210714Y-110692914D02*
X181258333Y-110597676D01*
X181258333Y-110597676D02*
X181353571Y-110502438D01*
X181353571Y-110502438D02*
X181496428Y-110454819D01*
X181496428Y-110454819D02*
X181591666Y-110454819D01*
X181591666Y-110454819D02*
X181734523Y-110502438D01*
X181734523Y-110502438D02*
X181782142Y-110550057D01*
X182734523Y-111454819D02*
X182163095Y-111454819D01*
X182448809Y-111454819D02*
X182448809Y-110454819D01*
X182448809Y-110454819D02*
X182353571Y-110597676D01*
X182353571Y-110597676D02*
X182258333Y-110692914D01*
X182258333Y-110692914D02*
X182163095Y-110740533D01*
X183686904Y-111454819D02*
X183115476Y-111454819D01*
X183401190Y-111454819D02*
X183401190Y-110454819D01*
X183401190Y-110454819D02*
X183305952Y-110597676D01*
X183305952Y-110597676D02*
X183210714Y-110692914D01*
X183210714Y-110692914D02*
X183115476Y-110740533D01*
X138166667Y-79954819D02*
X138166667Y-78954819D01*
X138166667Y-78954819D02*
X138500000Y-79669104D01*
X138500000Y-79669104D02*
X138833333Y-78954819D01*
X138833333Y-78954819D02*
X138833333Y-79954819D01*
X139309524Y-79954819D02*
X139309524Y-78954819D01*
X139309524Y-79431009D02*
X139880952Y-79431009D01*
X139880952Y-79954819D02*
X139880952Y-78954819D01*
X140309524Y-79050057D02*
X140357143Y-79002438D01*
X140357143Y-79002438D02*
X140452381Y-78954819D01*
X140452381Y-78954819D02*
X140690476Y-78954819D01*
X140690476Y-78954819D02*
X140785714Y-79002438D01*
X140785714Y-79002438D02*
X140833333Y-79050057D01*
X140833333Y-79050057D02*
X140880952Y-79145295D01*
X140880952Y-79145295D02*
X140880952Y-79240533D01*
X140880952Y-79240533D02*
X140833333Y-79383390D01*
X140833333Y-79383390D02*
X140261905Y-79954819D01*
X140261905Y-79954819D02*
X140880952Y-79954819D01*
X148758333Y-116079580D02*
X148710714Y-116127200D01*
X148710714Y-116127200D02*
X148567857Y-116174819D01*
X148567857Y-116174819D02*
X148472619Y-116174819D01*
X148472619Y-116174819D02*
X148329762Y-116127200D01*
X148329762Y-116127200D02*
X148234524Y-116031961D01*
X148234524Y-116031961D02*
X148186905Y-115936723D01*
X148186905Y-115936723D02*
X148139286Y-115746247D01*
X148139286Y-115746247D02*
X148139286Y-115603390D01*
X148139286Y-115603390D02*
X148186905Y-115412914D01*
X148186905Y-115412914D02*
X148234524Y-115317676D01*
X148234524Y-115317676D02*
X148329762Y-115222438D01*
X148329762Y-115222438D02*
X148472619Y-115174819D01*
X148472619Y-115174819D02*
X148567857Y-115174819D01*
X148567857Y-115174819D02*
X148710714Y-115222438D01*
X148710714Y-115222438D02*
X148758333Y-115270057D01*
X149139286Y-115270057D02*
X149186905Y-115222438D01*
X149186905Y-115222438D02*
X149282143Y-115174819D01*
X149282143Y-115174819D02*
X149520238Y-115174819D01*
X149520238Y-115174819D02*
X149615476Y-115222438D01*
X149615476Y-115222438D02*
X149663095Y-115270057D01*
X149663095Y-115270057D02*
X149710714Y-115365295D01*
X149710714Y-115365295D02*
X149710714Y-115460533D01*
X149710714Y-115460533D02*
X149663095Y-115603390D01*
X149663095Y-115603390D02*
X149091667Y-116174819D01*
X149091667Y-116174819D02*
X149710714Y-116174819D01*
X177416904Y-73264819D02*
X177083571Y-72788628D01*
X176845476Y-73264819D02*
X176845476Y-72264819D01*
X176845476Y-72264819D02*
X177226428Y-72264819D01*
X177226428Y-72264819D02*
X177321666Y-72312438D01*
X177321666Y-72312438D02*
X177369285Y-72360057D01*
X177369285Y-72360057D02*
X177416904Y-72455295D01*
X177416904Y-72455295D02*
X177416904Y-72598152D01*
X177416904Y-72598152D02*
X177369285Y-72693390D01*
X177369285Y-72693390D02*
X177321666Y-72741009D01*
X177321666Y-72741009D02*
X177226428Y-72788628D01*
X177226428Y-72788628D02*
X176845476Y-72788628D01*
X177845476Y-73264819D02*
X177845476Y-72264819D01*
X177845476Y-72264819D02*
X178178809Y-72979104D01*
X178178809Y-72979104D02*
X178512142Y-72264819D01*
X178512142Y-72264819D02*
X178512142Y-73264819D01*
X179321666Y-72741009D02*
X179464523Y-72788628D01*
X179464523Y-72788628D02*
X179512142Y-72836247D01*
X179512142Y-72836247D02*
X179559761Y-72931485D01*
X179559761Y-72931485D02*
X179559761Y-73074342D01*
X179559761Y-73074342D02*
X179512142Y-73169580D01*
X179512142Y-73169580D02*
X179464523Y-73217200D01*
X179464523Y-73217200D02*
X179369285Y-73264819D01*
X179369285Y-73264819D02*
X178988333Y-73264819D01*
X178988333Y-73264819D02*
X178988333Y-72264819D01*
X178988333Y-72264819D02*
X179321666Y-72264819D01*
X179321666Y-72264819D02*
X179416904Y-72312438D01*
X179416904Y-72312438D02*
X179464523Y-72360057D01*
X179464523Y-72360057D02*
X179512142Y-72455295D01*
X179512142Y-72455295D02*
X179512142Y-72550533D01*
X179512142Y-72550533D02*
X179464523Y-72645771D01*
X179464523Y-72645771D02*
X179416904Y-72693390D01*
X179416904Y-72693390D02*
X179321666Y-72741009D01*
X179321666Y-72741009D02*
X178988333Y-72741009D01*
X180512142Y-73264819D02*
X179940714Y-73264819D01*
X180226428Y-73264819D02*
X180226428Y-72264819D01*
X180226428Y-72264819D02*
X180131190Y-72407676D01*
X180131190Y-72407676D02*
X180035952Y-72502914D01*
X180035952Y-72502914D02*
X179940714Y-72550533D01*
X177166905Y-113549819D02*
X177166905Y-112549819D01*
X177166905Y-112549819D02*
X177405000Y-112549819D01*
X177405000Y-112549819D02*
X177547857Y-112597438D01*
X177547857Y-112597438D02*
X177643095Y-112692676D01*
X177643095Y-112692676D02*
X177690714Y-112787914D01*
X177690714Y-112787914D02*
X177738333Y-112978390D01*
X177738333Y-112978390D02*
X177738333Y-113121247D01*
X177738333Y-113121247D02*
X177690714Y-113311723D01*
X177690714Y-113311723D02*
X177643095Y-113406961D01*
X177643095Y-113406961D02*
X177547857Y-113502200D01*
X177547857Y-113502200D02*
X177405000Y-113549819D01*
X177405000Y-113549819D02*
X177166905Y-113549819D01*
X178071667Y-112549819D02*
X178690714Y-112549819D01*
X178690714Y-112549819D02*
X178357381Y-112930771D01*
X178357381Y-112930771D02*
X178500238Y-112930771D01*
X178500238Y-112930771D02*
X178595476Y-112978390D01*
X178595476Y-112978390D02*
X178643095Y-113026009D01*
X178643095Y-113026009D02*
X178690714Y-113121247D01*
X178690714Y-113121247D02*
X178690714Y-113359342D01*
X178690714Y-113359342D02*
X178643095Y-113454580D01*
X178643095Y-113454580D02*
X178595476Y-113502200D01*
X178595476Y-113502200D02*
X178500238Y-113549819D01*
X178500238Y-113549819D02*
X178214524Y-113549819D01*
X178214524Y-113549819D02*
X178119286Y-113502200D01*
X178119286Y-113502200D02*
X178071667Y-113454580D01*
X145761904Y-73204819D02*
X145285714Y-73204819D01*
X145285714Y-73204819D02*
X145285714Y-72204819D01*
X146095238Y-73204819D02*
X146095238Y-72204819D01*
X146095238Y-72204819D02*
X146428571Y-72919104D01*
X146428571Y-72919104D02*
X146761904Y-72204819D01*
X146761904Y-72204819D02*
X146761904Y-73204819D01*
X147571428Y-72681009D02*
X147714285Y-72728628D01*
X147714285Y-72728628D02*
X147761904Y-72776247D01*
X147761904Y-72776247D02*
X147809523Y-72871485D01*
X147809523Y-72871485D02*
X147809523Y-73014342D01*
X147809523Y-73014342D02*
X147761904Y-73109580D01*
X147761904Y-73109580D02*
X147714285Y-73157200D01*
X147714285Y-73157200D02*
X147619047Y-73204819D01*
X147619047Y-73204819D02*
X147238095Y-73204819D01*
X147238095Y-73204819D02*
X147238095Y-72204819D01*
X147238095Y-72204819D02*
X147571428Y-72204819D01*
X147571428Y-72204819D02*
X147666666Y-72252438D01*
X147666666Y-72252438D02*
X147714285Y-72300057D01*
X147714285Y-72300057D02*
X147761904Y-72395295D01*
X147761904Y-72395295D02*
X147761904Y-72490533D01*
X147761904Y-72490533D02*
X147714285Y-72585771D01*
X147714285Y-72585771D02*
X147666666Y-72633390D01*
X147666666Y-72633390D02*
X147571428Y-72681009D01*
X147571428Y-72681009D02*
X147238095Y-72681009D01*
X148761904Y-73204819D02*
X148190476Y-73204819D01*
X148476190Y-73204819D02*
X148476190Y-72204819D01*
X148476190Y-72204819D02*
X148380952Y-72347676D01*
X148380952Y-72347676D02*
X148285714Y-72442914D01*
X148285714Y-72442914D02*
X148190476Y-72490533D01*
X172859580Y-116642857D02*
X172907200Y-116690476D01*
X172907200Y-116690476D02*
X172954819Y-116833333D01*
X172954819Y-116833333D02*
X172954819Y-116928571D01*
X172954819Y-116928571D02*
X172907200Y-117071428D01*
X172907200Y-117071428D02*
X172811961Y-117166666D01*
X172811961Y-117166666D02*
X172716723Y-117214285D01*
X172716723Y-117214285D02*
X172526247Y-117261904D01*
X172526247Y-117261904D02*
X172383390Y-117261904D01*
X172383390Y-117261904D02*
X172192914Y-117214285D01*
X172192914Y-117214285D02*
X172097676Y-117166666D01*
X172097676Y-117166666D02*
X172002438Y-117071428D01*
X172002438Y-117071428D02*
X171954819Y-116928571D01*
X171954819Y-116928571D02*
X171954819Y-116833333D01*
X171954819Y-116833333D02*
X172002438Y-116690476D01*
X172002438Y-116690476D02*
X172050057Y-116642857D01*
X172954819Y-115690476D02*
X172954819Y-116261904D01*
X172954819Y-115976190D02*
X171954819Y-115976190D01*
X171954819Y-115976190D02*
X172097676Y-116071428D01*
X172097676Y-116071428D02*
X172192914Y-116166666D01*
X172192914Y-116166666D02*
X172240533Y-116261904D01*
X171954819Y-115357142D02*
X171954819Y-114690476D01*
X171954819Y-114690476D02*
X172954819Y-115119047D01*
X150119048Y-82039819D02*
X150119048Y-81039819D01*
X150119048Y-81039819D02*
X150452381Y-81754104D01*
X150452381Y-81754104D02*
X150785714Y-81039819D01*
X150785714Y-81039819D02*
X150785714Y-82039819D01*
X151261905Y-82039819D02*
X151261905Y-81039819D01*
X151261905Y-81039819D02*
X151595238Y-81754104D01*
X151595238Y-81754104D02*
X151928571Y-81039819D01*
X151928571Y-81039819D02*
X151928571Y-82039819D01*
X152738095Y-81516009D02*
X152880952Y-81563628D01*
X152880952Y-81563628D02*
X152928571Y-81611247D01*
X152928571Y-81611247D02*
X152976190Y-81706485D01*
X152976190Y-81706485D02*
X152976190Y-81849342D01*
X152976190Y-81849342D02*
X152928571Y-81944580D01*
X152928571Y-81944580D02*
X152880952Y-81992200D01*
X152880952Y-81992200D02*
X152785714Y-82039819D01*
X152785714Y-82039819D02*
X152404762Y-82039819D01*
X152404762Y-82039819D02*
X152404762Y-81039819D01*
X152404762Y-81039819D02*
X152738095Y-81039819D01*
X152738095Y-81039819D02*
X152833333Y-81087438D01*
X152833333Y-81087438D02*
X152880952Y-81135057D01*
X152880952Y-81135057D02*
X152928571Y-81230295D01*
X152928571Y-81230295D02*
X152928571Y-81325533D01*
X152928571Y-81325533D02*
X152880952Y-81420771D01*
X152880952Y-81420771D02*
X152833333Y-81468390D01*
X152833333Y-81468390D02*
X152738095Y-81516009D01*
X152738095Y-81516009D02*
X152404762Y-81516009D01*
X153928571Y-82039819D02*
X153357143Y-82039819D01*
X153642857Y-82039819D02*
X153642857Y-81039819D01*
X153642857Y-81039819D02*
X153547619Y-81182676D01*
X153547619Y-81182676D02*
X153452381Y-81277914D01*
X153452381Y-81277914D02*
X153357143Y-81325533D01*
X177758333Y-98069819D02*
X177425000Y-97593628D01*
X177186905Y-98069819D02*
X177186905Y-97069819D01*
X177186905Y-97069819D02*
X177567857Y-97069819D01*
X177567857Y-97069819D02*
X177663095Y-97117438D01*
X177663095Y-97117438D02*
X177710714Y-97165057D01*
X177710714Y-97165057D02*
X177758333Y-97260295D01*
X177758333Y-97260295D02*
X177758333Y-97403152D01*
X177758333Y-97403152D02*
X177710714Y-97498390D01*
X177710714Y-97498390D02*
X177663095Y-97546009D01*
X177663095Y-97546009D02*
X177567857Y-97593628D01*
X177567857Y-97593628D02*
X177186905Y-97593628D01*
X178615476Y-97069819D02*
X178425000Y-97069819D01*
X178425000Y-97069819D02*
X178329762Y-97117438D01*
X178329762Y-97117438D02*
X178282143Y-97165057D01*
X178282143Y-97165057D02*
X178186905Y-97307914D01*
X178186905Y-97307914D02*
X178139286Y-97498390D01*
X178139286Y-97498390D02*
X178139286Y-97879342D01*
X178139286Y-97879342D02*
X178186905Y-97974580D01*
X178186905Y-97974580D02*
X178234524Y-98022200D01*
X178234524Y-98022200D02*
X178329762Y-98069819D01*
X178329762Y-98069819D02*
X178520238Y-98069819D01*
X178520238Y-98069819D02*
X178615476Y-98022200D01*
X178615476Y-98022200D02*
X178663095Y-97974580D01*
X178663095Y-97974580D02*
X178710714Y-97879342D01*
X178710714Y-97879342D02*
X178710714Y-97641247D01*
X178710714Y-97641247D02*
X178663095Y-97546009D01*
X178663095Y-97546009D02*
X178615476Y-97498390D01*
X178615476Y-97498390D02*
X178520238Y-97450771D01*
X178520238Y-97450771D02*
X178329762Y-97450771D01*
X178329762Y-97450771D02*
X178234524Y-97498390D01*
X178234524Y-97498390D02*
X178186905Y-97546009D01*
X178186905Y-97546009D02*
X178139286Y-97641247D01*
X161111905Y-63514819D02*
X161111905Y-64324342D01*
X161111905Y-64324342D02*
X161159524Y-64419580D01*
X161159524Y-64419580D02*
X161207143Y-64467200D01*
X161207143Y-64467200D02*
X161302381Y-64514819D01*
X161302381Y-64514819D02*
X161492857Y-64514819D01*
X161492857Y-64514819D02*
X161588095Y-64467200D01*
X161588095Y-64467200D02*
X161635714Y-64419580D01*
X161635714Y-64419580D02*
X161683333Y-64324342D01*
X161683333Y-64324342D02*
X161683333Y-63514819D01*
X162111905Y-64467200D02*
X162254762Y-64514819D01*
X162254762Y-64514819D02*
X162492857Y-64514819D01*
X162492857Y-64514819D02*
X162588095Y-64467200D01*
X162588095Y-64467200D02*
X162635714Y-64419580D01*
X162635714Y-64419580D02*
X162683333Y-64324342D01*
X162683333Y-64324342D02*
X162683333Y-64229104D01*
X162683333Y-64229104D02*
X162635714Y-64133866D01*
X162635714Y-64133866D02*
X162588095Y-64086247D01*
X162588095Y-64086247D02*
X162492857Y-64038628D01*
X162492857Y-64038628D02*
X162302381Y-63991009D01*
X162302381Y-63991009D02*
X162207143Y-63943390D01*
X162207143Y-63943390D02*
X162159524Y-63895771D01*
X162159524Y-63895771D02*
X162111905Y-63800533D01*
X162111905Y-63800533D02*
X162111905Y-63705295D01*
X162111905Y-63705295D02*
X162159524Y-63610057D01*
X162159524Y-63610057D02*
X162207143Y-63562438D01*
X162207143Y-63562438D02*
X162302381Y-63514819D01*
X162302381Y-63514819D02*
X162540476Y-63514819D01*
X162540476Y-63514819D02*
X162683333Y-63562438D01*
X163445238Y-63991009D02*
X163588095Y-64038628D01*
X163588095Y-64038628D02*
X163635714Y-64086247D01*
X163635714Y-64086247D02*
X163683333Y-64181485D01*
X163683333Y-64181485D02*
X163683333Y-64324342D01*
X163683333Y-64324342D02*
X163635714Y-64419580D01*
X163635714Y-64419580D02*
X163588095Y-64467200D01*
X163588095Y-64467200D02*
X163492857Y-64514819D01*
X163492857Y-64514819D02*
X163111905Y-64514819D01*
X163111905Y-64514819D02*
X163111905Y-63514819D01*
X163111905Y-63514819D02*
X163445238Y-63514819D01*
X163445238Y-63514819D02*
X163540476Y-63562438D01*
X163540476Y-63562438D02*
X163588095Y-63610057D01*
X163588095Y-63610057D02*
X163635714Y-63705295D01*
X163635714Y-63705295D02*
X163635714Y-63800533D01*
X163635714Y-63800533D02*
X163588095Y-63895771D01*
X163588095Y-63895771D02*
X163540476Y-63943390D01*
X163540476Y-63943390D02*
X163445238Y-63991009D01*
X163445238Y-63991009D02*
X163111905Y-63991009D01*
X164635714Y-64514819D02*
X164064286Y-64514819D01*
X164350000Y-64514819D02*
X164350000Y-63514819D01*
X164350000Y-63514819D02*
X164254762Y-63657676D01*
X164254762Y-63657676D02*
X164159524Y-63752914D01*
X164159524Y-63752914D02*
X164064286Y-63800533D01*
X148954819Y-107261904D02*
X148954819Y-106690476D01*
X149954819Y-106976190D02*
X148954819Y-106976190D01*
X149954819Y-106357142D02*
X148954819Y-106357142D01*
X148954819Y-106357142D02*
X148954819Y-105976190D01*
X148954819Y-105976190D02*
X149002438Y-105880952D01*
X149002438Y-105880952D02*
X149050057Y-105833333D01*
X149050057Y-105833333D02*
X149145295Y-105785714D01*
X149145295Y-105785714D02*
X149288152Y-105785714D01*
X149288152Y-105785714D02*
X149383390Y-105833333D01*
X149383390Y-105833333D02*
X149431009Y-105880952D01*
X149431009Y-105880952D02*
X149478628Y-105976190D01*
X149478628Y-105976190D02*
X149478628Y-106357142D01*
X149050057Y-105404761D02*
X149002438Y-105357142D01*
X149002438Y-105357142D02*
X148954819Y-105261904D01*
X148954819Y-105261904D02*
X148954819Y-105023809D01*
X148954819Y-105023809D02*
X149002438Y-104928571D01*
X149002438Y-104928571D02*
X149050057Y-104880952D01*
X149050057Y-104880952D02*
X149145295Y-104833333D01*
X149145295Y-104833333D02*
X149240533Y-104833333D01*
X149240533Y-104833333D02*
X149383390Y-104880952D01*
X149383390Y-104880952D02*
X149954819Y-105452380D01*
X149954819Y-105452380D02*
X149954819Y-104833333D01*
X157699580Y-73891666D02*
X157747200Y-73939285D01*
X157747200Y-73939285D02*
X157794819Y-74082142D01*
X157794819Y-74082142D02*
X157794819Y-74177380D01*
X157794819Y-74177380D02*
X157747200Y-74320237D01*
X157747200Y-74320237D02*
X157651961Y-74415475D01*
X157651961Y-74415475D02*
X157556723Y-74463094D01*
X157556723Y-74463094D02*
X157366247Y-74510713D01*
X157366247Y-74510713D02*
X157223390Y-74510713D01*
X157223390Y-74510713D02*
X157032914Y-74463094D01*
X157032914Y-74463094D02*
X156937676Y-74415475D01*
X156937676Y-74415475D02*
X156842438Y-74320237D01*
X156842438Y-74320237D02*
X156794819Y-74177380D01*
X156794819Y-74177380D02*
X156794819Y-74082142D01*
X156794819Y-74082142D02*
X156842438Y-73939285D01*
X156842438Y-73939285D02*
X156890057Y-73891666D01*
X157794819Y-72939285D02*
X157794819Y-73510713D01*
X157794819Y-73224999D02*
X156794819Y-73224999D01*
X156794819Y-73224999D02*
X156937676Y-73320237D01*
X156937676Y-73320237D02*
X157032914Y-73415475D01*
X157032914Y-73415475D02*
X157080533Y-73510713D01*
X173058172Y-88593893D02*
X174059377Y-88355511D01*
X174059377Y-88355511D02*
X173344231Y-88164805D01*
X173344231Y-88164805D02*
X174059377Y-87974100D01*
X174059377Y-87974100D02*
X173058172Y-87735718D01*
X174059377Y-87354306D02*
X173058172Y-87354306D01*
X173534936Y-87354306D02*
X173534936Y-86782189D01*
X174059377Y-86782189D02*
X173058172Y-86782189D01*
X173534936Y-86305425D02*
X173534936Y-85971690D01*
X174059377Y-85828661D02*
X174059377Y-86305425D01*
X174059377Y-86305425D02*
X173058172Y-86305425D01*
X173058172Y-86305425D02*
X173058172Y-85828661D01*
X173534936Y-85399573D02*
X173534936Y-85065838D01*
X174059377Y-84922809D02*
X174059377Y-85399573D01*
X174059377Y-85399573D02*
X173058172Y-85399573D01*
X173058172Y-85399573D02*
X173058172Y-84922809D01*
X174059377Y-84016957D02*
X174059377Y-84493721D01*
X174059377Y-84493721D02*
X173058172Y-84493721D01*
X174059377Y-83158782D02*
X174059377Y-83730899D01*
X174059377Y-83444840D02*
X173058172Y-83444840D01*
X173058172Y-83444840D02*
X173201201Y-83540193D01*
X173201201Y-83540193D02*
X173296554Y-83635546D01*
X173296554Y-83635546D02*
X173344231Y-83730899D01*
X148954819Y-110761904D02*
X148954819Y-110190476D01*
X149954819Y-110476190D02*
X148954819Y-110476190D01*
X149954819Y-109857142D02*
X148954819Y-109857142D01*
X148954819Y-109857142D02*
X148954819Y-109476190D01*
X148954819Y-109476190D02*
X149002438Y-109380952D01*
X149002438Y-109380952D02*
X149050057Y-109333333D01*
X149050057Y-109333333D02*
X149145295Y-109285714D01*
X149145295Y-109285714D02*
X149288152Y-109285714D01*
X149288152Y-109285714D02*
X149383390Y-109333333D01*
X149383390Y-109333333D02*
X149431009Y-109380952D01*
X149431009Y-109380952D02*
X149478628Y-109476190D01*
X149478628Y-109476190D02*
X149478628Y-109857142D01*
X148954819Y-108952380D02*
X148954819Y-108333333D01*
X148954819Y-108333333D02*
X149335771Y-108666666D01*
X149335771Y-108666666D02*
X149335771Y-108523809D01*
X149335771Y-108523809D02*
X149383390Y-108428571D01*
X149383390Y-108428571D02*
X149431009Y-108380952D01*
X149431009Y-108380952D02*
X149526247Y-108333333D01*
X149526247Y-108333333D02*
X149764342Y-108333333D01*
X149764342Y-108333333D02*
X149859580Y-108380952D01*
X149859580Y-108380952D02*
X149907200Y-108428571D01*
X149907200Y-108428571D02*
X149954819Y-108523809D01*
X149954819Y-108523809D02*
X149954819Y-108809523D01*
X149954819Y-108809523D02*
X149907200Y-108904761D01*
X149907200Y-108904761D02*
X149859580Y-108952380D01*
X148261905Y-91589819D02*
X148261905Y-90589819D01*
X148261905Y-90589819D02*
X148500000Y-90589819D01*
X148500000Y-90589819D02*
X148642857Y-90637438D01*
X148642857Y-90637438D02*
X148738095Y-90732676D01*
X148738095Y-90732676D02*
X148785714Y-90827914D01*
X148785714Y-90827914D02*
X148833333Y-91018390D01*
X148833333Y-91018390D02*
X148833333Y-91161247D01*
X148833333Y-91161247D02*
X148785714Y-91351723D01*
X148785714Y-91351723D02*
X148738095Y-91446961D01*
X148738095Y-91446961D02*
X148642857Y-91542200D01*
X148642857Y-91542200D02*
X148500000Y-91589819D01*
X148500000Y-91589819D02*
X148261905Y-91589819D01*
X149214286Y-90685057D02*
X149261905Y-90637438D01*
X149261905Y-90637438D02*
X149357143Y-90589819D01*
X149357143Y-90589819D02*
X149595238Y-90589819D01*
X149595238Y-90589819D02*
X149690476Y-90637438D01*
X149690476Y-90637438D02*
X149738095Y-90685057D01*
X149738095Y-90685057D02*
X149785714Y-90780295D01*
X149785714Y-90780295D02*
X149785714Y-90875533D01*
X149785714Y-90875533D02*
X149738095Y-91018390D01*
X149738095Y-91018390D02*
X149166667Y-91589819D01*
X149166667Y-91589819D02*
X149785714Y-91589819D01*
X156333333Y-67454819D02*
X156000000Y-66978628D01*
X155761905Y-67454819D02*
X155761905Y-66454819D01*
X155761905Y-66454819D02*
X156142857Y-66454819D01*
X156142857Y-66454819D02*
X156238095Y-66502438D01*
X156238095Y-66502438D02*
X156285714Y-66550057D01*
X156285714Y-66550057D02*
X156333333Y-66645295D01*
X156333333Y-66645295D02*
X156333333Y-66788152D01*
X156333333Y-66788152D02*
X156285714Y-66883390D01*
X156285714Y-66883390D02*
X156238095Y-66931009D01*
X156238095Y-66931009D02*
X156142857Y-66978628D01*
X156142857Y-66978628D02*
X155761905Y-66978628D01*
X156666667Y-66454819D02*
X157285714Y-66454819D01*
X157285714Y-66454819D02*
X156952381Y-66835771D01*
X156952381Y-66835771D02*
X157095238Y-66835771D01*
X157095238Y-66835771D02*
X157190476Y-66883390D01*
X157190476Y-66883390D02*
X157238095Y-66931009D01*
X157238095Y-66931009D02*
X157285714Y-67026247D01*
X157285714Y-67026247D02*
X157285714Y-67264342D01*
X157285714Y-67264342D02*
X157238095Y-67359580D01*
X157238095Y-67359580D02*
X157190476Y-67407200D01*
X157190476Y-67407200D02*
X157095238Y-67454819D01*
X157095238Y-67454819D02*
X156809524Y-67454819D01*
X156809524Y-67454819D02*
X156714286Y-67407200D01*
X156714286Y-67407200D02*
X156666667Y-67359580D01*
X151758333Y-114579580D02*
X151710714Y-114627200D01*
X151710714Y-114627200D02*
X151567857Y-114674819D01*
X151567857Y-114674819D02*
X151472619Y-114674819D01*
X151472619Y-114674819D02*
X151329762Y-114627200D01*
X151329762Y-114627200D02*
X151234524Y-114531961D01*
X151234524Y-114531961D02*
X151186905Y-114436723D01*
X151186905Y-114436723D02*
X151139286Y-114246247D01*
X151139286Y-114246247D02*
X151139286Y-114103390D01*
X151139286Y-114103390D02*
X151186905Y-113912914D01*
X151186905Y-113912914D02*
X151234524Y-113817676D01*
X151234524Y-113817676D02*
X151329762Y-113722438D01*
X151329762Y-113722438D02*
X151472619Y-113674819D01*
X151472619Y-113674819D02*
X151567857Y-113674819D01*
X151567857Y-113674819D02*
X151710714Y-113722438D01*
X151710714Y-113722438D02*
X151758333Y-113770057D01*
X152663095Y-113674819D02*
X152186905Y-113674819D01*
X152186905Y-113674819D02*
X152139286Y-114151009D01*
X152139286Y-114151009D02*
X152186905Y-114103390D01*
X152186905Y-114103390D02*
X152282143Y-114055771D01*
X152282143Y-114055771D02*
X152520238Y-114055771D01*
X152520238Y-114055771D02*
X152615476Y-114103390D01*
X152615476Y-114103390D02*
X152663095Y-114151009D01*
X152663095Y-114151009D02*
X152710714Y-114246247D01*
X152710714Y-114246247D02*
X152710714Y-114484342D01*
X152710714Y-114484342D02*
X152663095Y-114579580D01*
X152663095Y-114579580D02*
X152615476Y-114627200D01*
X152615476Y-114627200D02*
X152520238Y-114674819D01*
X152520238Y-114674819D02*
X152282143Y-114674819D01*
X152282143Y-114674819D02*
X152186905Y-114627200D01*
X152186905Y-114627200D02*
X152139286Y-114579580D01*
X143779580Y-94760357D02*
X143827200Y-94807976D01*
X143827200Y-94807976D02*
X143874819Y-94950833D01*
X143874819Y-94950833D02*
X143874819Y-95046071D01*
X143874819Y-95046071D02*
X143827200Y-95188928D01*
X143827200Y-95188928D02*
X143731961Y-95284166D01*
X143731961Y-95284166D02*
X143636723Y-95331785D01*
X143636723Y-95331785D02*
X143446247Y-95379404D01*
X143446247Y-95379404D02*
X143303390Y-95379404D01*
X143303390Y-95379404D02*
X143112914Y-95331785D01*
X143112914Y-95331785D02*
X143017676Y-95284166D01*
X143017676Y-95284166D02*
X142922438Y-95188928D01*
X142922438Y-95188928D02*
X142874819Y-95046071D01*
X142874819Y-95046071D02*
X142874819Y-94950833D01*
X142874819Y-94950833D02*
X142922438Y-94807976D01*
X142922438Y-94807976D02*
X142970057Y-94760357D01*
X143874819Y-93807976D02*
X143874819Y-94379404D01*
X143874819Y-94093690D02*
X142874819Y-94093690D01*
X142874819Y-94093690D02*
X143017676Y-94188928D01*
X143017676Y-94188928D02*
X143112914Y-94284166D01*
X143112914Y-94284166D02*
X143160533Y-94379404D01*
X142874819Y-92950833D02*
X142874819Y-93141309D01*
X142874819Y-93141309D02*
X142922438Y-93236547D01*
X142922438Y-93236547D02*
X142970057Y-93284166D01*
X142970057Y-93284166D02*
X143112914Y-93379404D01*
X143112914Y-93379404D02*
X143303390Y-93427023D01*
X143303390Y-93427023D02*
X143684342Y-93427023D01*
X143684342Y-93427023D02*
X143779580Y-93379404D01*
X143779580Y-93379404D02*
X143827200Y-93331785D01*
X143827200Y-93331785D02*
X143874819Y-93236547D01*
X143874819Y-93236547D02*
X143874819Y-93046071D01*
X143874819Y-93046071D02*
X143827200Y-92950833D01*
X143827200Y-92950833D02*
X143779580Y-92903214D01*
X143779580Y-92903214D02*
X143684342Y-92855595D01*
X143684342Y-92855595D02*
X143446247Y-92855595D01*
X143446247Y-92855595D02*
X143351009Y-92903214D01*
X143351009Y-92903214D02*
X143303390Y-92950833D01*
X143303390Y-92950833D02*
X143255771Y-93046071D01*
X143255771Y-93046071D02*
X143255771Y-93236547D01*
X143255771Y-93236547D02*
X143303390Y-93331785D01*
X143303390Y-93331785D02*
X143351009Y-93379404D01*
X143351009Y-93379404D02*
X143446247Y-93427023D01*
X153258333Y-118079580D02*
X153210714Y-118127200D01*
X153210714Y-118127200D02*
X153067857Y-118174819D01*
X153067857Y-118174819D02*
X152972619Y-118174819D01*
X152972619Y-118174819D02*
X152829762Y-118127200D01*
X152829762Y-118127200D02*
X152734524Y-118031961D01*
X152734524Y-118031961D02*
X152686905Y-117936723D01*
X152686905Y-117936723D02*
X152639286Y-117746247D01*
X152639286Y-117746247D02*
X152639286Y-117603390D01*
X152639286Y-117603390D02*
X152686905Y-117412914D01*
X152686905Y-117412914D02*
X152734524Y-117317676D01*
X152734524Y-117317676D02*
X152829762Y-117222438D01*
X152829762Y-117222438D02*
X152972619Y-117174819D01*
X152972619Y-117174819D02*
X153067857Y-117174819D01*
X153067857Y-117174819D02*
X153210714Y-117222438D01*
X153210714Y-117222438D02*
X153258333Y-117270057D01*
X154115476Y-117508152D02*
X154115476Y-118174819D01*
X153877381Y-117127200D02*
X153639286Y-117841485D01*
X153639286Y-117841485D02*
X154258333Y-117841485D01*
X180801905Y-85049819D02*
X180801905Y-84049819D01*
X180801905Y-84049819D02*
X181040000Y-84049819D01*
X181040000Y-84049819D02*
X181182857Y-84097438D01*
X181182857Y-84097438D02*
X181278095Y-84192676D01*
X181278095Y-84192676D02*
X181325714Y-84287914D01*
X181325714Y-84287914D02*
X181373333Y-84478390D01*
X181373333Y-84478390D02*
X181373333Y-84621247D01*
X181373333Y-84621247D02*
X181325714Y-84811723D01*
X181325714Y-84811723D02*
X181278095Y-84906961D01*
X181278095Y-84906961D02*
X181182857Y-85002200D01*
X181182857Y-85002200D02*
X181040000Y-85049819D01*
X181040000Y-85049819D02*
X180801905Y-85049819D01*
X182325714Y-85049819D02*
X181754286Y-85049819D01*
X182040000Y-85049819D02*
X182040000Y-84049819D01*
X182040000Y-84049819D02*
X181944762Y-84192676D01*
X181944762Y-84192676D02*
X181849524Y-84287914D01*
X181849524Y-84287914D02*
X181754286Y-84335533D01*
X169379819Y-101781666D02*
X168903628Y-102114999D01*
X169379819Y-102353094D02*
X168379819Y-102353094D01*
X168379819Y-102353094D02*
X168379819Y-101972142D01*
X168379819Y-101972142D02*
X168427438Y-101876904D01*
X168427438Y-101876904D02*
X168475057Y-101829285D01*
X168475057Y-101829285D02*
X168570295Y-101781666D01*
X168570295Y-101781666D02*
X168713152Y-101781666D01*
X168713152Y-101781666D02*
X168808390Y-101829285D01*
X168808390Y-101829285D02*
X168856009Y-101876904D01*
X168856009Y-101876904D02*
X168903628Y-101972142D01*
X168903628Y-101972142D02*
X168903628Y-102353094D01*
X168379819Y-100876904D02*
X168379819Y-101353094D01*
X168379819Y-101353094D02*
X168856009Y-101400713D01*
X168856009Y-101400713D02*
X168808390Y-101353094D01*
X168808390Y-101353094D02*
X168760771Y-101257856D01*
X168760771Y-101257856D02*
X168760771Y-101019761D01*
X168760771Y-101019761D02*
X168808390Y-100924523D01*
X168808390Y-100924523D02*
X168856009Y-100876904D01*
X168856009Y-100876904D02*
X168951247Y-100829285D01*
X168951247Y-100829285D02*
X169189342Y-100829285D01*
X169189342Y-100829285D02*
X169284580Y-100876904D01*
X169284580Y-100876904D02*
X169332200Y-100924523D01*
X169332200Y-100924523D02*
X169379819Y-101019761D01*
X169379819Y-101019761D02*
X169379819Y-101257856D01*
X169379819Y-101257856D02*
X169332200Y-101353094D01*
X169332200Y-101353094D02*
X169284580Y-101400713D01*
X155258333Y-121674819D02*
X154925000Y-121198628D01*
X154686905Y-121674819D02*
X154686905Y-120674819D01*
X154686905Y-120674819D02*
X155067857Y-120674819D01*
X155067857Y-120674819D02*
X155163095Y-120722438D01*
X155163095Y-120722438D02*
X155210714Y-120770057D01*
X155210714Y-120770057D02*
X155258333Y-120865295D01*
X155258333Y-120865295D02*
X155258333Y-121008152D01*
X155258333Y-121008152D02*
X155210714Y-121103390D01*
X155210714Y-121103390D02*
X155163095Y-121151009D01*
X155163095Y-121151009D02*
X155067857Y-121198628D01*
X155067857Y-121198628D02*
X154686905Y-121198628D01*
X156210714Y-121674819D02*
X155639286Y-121674819D01*
X155925000Y-121674819D02*
X155925000Y-120674819D01*
X155925000Y-120674819D02*
X155829762Y-120817676D01*
X155829762Y-120817676D02*
X155734524Y-120912914D01*
X155734524Y-120912914D02*
X155639286Y-120960533D01*
X185416667Y-108954819D02*
X185416667Y-107954819D01*
X185416667Y-107954819D02*
X185750000Y-108669104D01*
X185750000Y-108669104D02*
X186083333Y-107954819D01*
X186083333Y-107954819D02*
X186083333Y-108954819D01*
X186559524Y-108954819D02*
X186559524Y-107954819D01*
X186559524Y-108431009D02*
X187130952Y-108431009D01*
X187130952Y-108954819D02*
X187130952Y-107954819D01*
X188130952Y-108954819D02*
X187559524Y-108954819D01*
X187845238Y-108954819D02*
X187845238Y-107954819D01*
X187845238Y-107954819D02*
X187750000Y-108097676D01*
X187750000Y-108097676D02*
X187654762Y-108192914D01*
X187654762Y-108192914D02*
X187559524Y-108240533D01*
X160352618Y-106977800D02*
X160444047Y-107008276D01*
X160444047Y-107008276D02*
X160596428Y-107008276D01*
X160596428Y-107008276D02*
X160657380Y-106977800D01*
X160657380Y-106977800D02*
X160687856Y-106947323D01*
X160687856Y-106947323D02*
X160718333Y-106886371D01*
X160718333Y-106886371D02*
X160718333Y-106825419D01*
X160718333Y-106825419D02*
X160687856Y-106764466D01*
X160687856Y-106764466D02*
X160657380Y-106733990D01*
X160657380Y-106733990D02*
X160596428Y-106703514D01*
X160596428Y-106703514D02*
X160474523Y-106673038D01*
X160474523Y-106673038D02*
X160413571Y-106642561D01*
X160413571Y-106642561D02*
X160383094Y-106612085D01*
X160383094Y-106612085D02*
X160352618Y-106551133D01*
X160352618Y-106551133D02*
X160352618Y-106490180D01*
X160352618Y-106490180D02*
X160383094Y-106429228D01*
X160383094Y-106429228D02*
X160413571Y-106398752D01*
X160413571Y-106398752D02*
X160474523Y-106368276D01*
X160474523Y-106368276D02*
X160626904Y-106368276D01*
X160626904Y-106368276D02*
X160718333Y-106398752D01*
X160992618Y-106673038D02*
X161205952Y-106673038D01*
X161297380Y-107008276D02*
X160992618Y-107008276D01*
X160992618Y-107008276D02*
X160992618Y-106368276D01*
X160992618Y-106368276D02*
X161297380Y-106368276D01*
X161571666Y-107008276D02*
X161571666Y-106368276D01*
X161571666Y-106368276D02*
X161937381Y-107008276D01*
X161937381Y-107008276D02*
X161937381Y-106368276D01*
X162211666Y-106977800D02*
X162303095Y-107008276D01*
X162303095Y-107008276D02*
X162455476Y-107008276D01*
X162455476Y-107008276D02*
X162516428Y-106977800D01*
X162516428Y-106977800D02*
X162546904Y-106947323D01*
X162546904Y-106947323D02*
X162577381Y-106886371D01*
X162577381Y-106886371D02*
X162577381Y-106825419D01*
X162577381Y-106825419D02*
X162546904Y-106764466D01*
X162546904Y-106764466D02*
X162516428Y-106733990D01*
X162516428Y-106733990D02*
X162455476Y-106703514D01*
X162455476Y-106703514D02*
X162333571Y-106673038D01*
X162333571Y-106673038D02*
X162272619Y-106642561D01*
X162272619Y-106642561D02*
X162242142Y-106612085D01*
X162242142Y-106612085D02*
X162211666Y-106551133D01*
X162211666Y-106551133D02*
X162211666Y-106490180D01*
X162211666Y-106490180D02*
X162242142Y-106429228D01*
X162242142Y-106429228D02*
X162272619Y-106398752D01*
X162272619Y-106398752D02*
X162333571Y-106368276D01*
X162333571Y-106368276D02*
X162485952Y-106368276D01*
X162485952Y-106368276D02*
X162577381Y-106398752D01*
X162973571Y-106368276D02*
X163095476Y-106368276D01*
X163095476Y-106368276D02*
X163156428Y-106398752D01*
X163156428Y-106398752D02*
X163217381Y-106459704D01*
X163217381Y-106459704D02*
X163247857Y-106581609D01*
X163247857Y-106581609D02*
X163247857Y-106794942D01*
X163247857Y-106794942D02*
X163217381Y-106916847D01*
X163217381Y-106916847D02*
X163156428Y-106977800D01*
X163156428Y-106977800D02*
X163095476Y-107008276D01*
X163095476Y-107008276D02*
X162973571Y-107008276D01*
X162973571Y-107008276D02*
X162912619Y-106977800D01*
X162912619Y-106977800D02*
X162851666Y-106916847D01*
X162851666Y-106916847D02*
X162821190Y-106794942D01*
X162821190Y-106794942D02*
X162821190Y-106581609D01*
X162821190Y-106581609D02*
X162851666Y-106459704D01*
X162851666Y-106459704D02*
X162912619Y-106398752D01*
X162912619Y-106398752D02*
X162973571Y-106368276D01*
X163887857Y-107008276D02*
X163674523Y-106703514D01*
X163522142Y-107008276D02*
X163522142Y-106368276D01*
X163522142Y-106368276D02*
X163765952Y-106368276D01*
X163765952Y-106368276D02*
X163826904Y-106398752D01*
X163826904Y-106398752D02*
X163857381Y-106429228D01*
X163857381Y-106429228D02*
X163887857Y-106490180D01*
X163887857Y-106490180D02*
X163887857Y-106581609D01*
X163887857Y-106581609D02*
X163857381Y-106642561D01*
X163857381Y-106642561D02*
X163826904Y-106673038D01*
X163826904Y-106673038D02*
X163765952Y-106703514D01*
X163765952Y-106703514D02*
X163522142Y-106703514D01*
X164497381Y-107008276D02*
X164131666Y-107008276D01*
X164314523Y-107008276D02*
X164314523Y-106368276D01*
X164314523Y-106368276D02*
X164253571Y-106459704D01*
X164253571Y-106459704D02*
X164192619Y-106520657D01*
X164192619Y-106520657D02*
X164131666Y-106551133D01*
X158656547Y-76654819D02*
X158323214Y-76178628D01*
X158085119Y-76654819D02*
X158085119Y-75654819D01*
X158085119Y-75654819D02*
X158466071Y-75654819D01*
X158466071Y-75654819D02*
X158561309Y-75702438D01*
X158561309Y-75702438D02*
X158608928Y-75750057D01*
X158608928Y-75750057D02*
X158656547Y-75845295D01*
X158656547Y-75845295D02*
X158656547Y-75988152D01*
X158656547Y-75988152D02*
X158608928Y-76083390D01*
X158608928Y-76083390D02*
X158561309Y-76131009D01*
X158561309Y-76131009D02*
X158466071Y-76178628D01*
X158466071Y-76178628D02*
X158085119Y-76178628D01*
X159085119Y-76131009D02*
X159418452Y-76131009D01*
X159561309Y-76654819D02*
X159085119Y-76654819D01*
X159085119Y-76654819D02*
X159085119Y-75654819D01*
X159085119Y-75654819D02*
X159561309Y-75654819D01*
X160513690Y-75702438D02*
X160418452Y-75654819D01*
X160418452Y-75654819D02*
X160275595Y-75654819D01*
X160275595Y-75654819D02*
X160132738Y-75702438D01*
X160132738Y-75702438D02*
X160037500Y-75797676D01*
X160037500Y-75797676D02*
X159989881Y-75892914D01*
X159989881Y-75892914D02*
X159942262Y-76083390D01*
X159942262Y-76083390D02*
X159942262Y-76226247D01*
X159942262Y-76226247D02*
X159989881Y-76416723D01*
X159989881Y-76416723D02*
X160037500Y-76511961D01*
X160037500Y-76511961D02*
X160132738Y-76607200D01*
X160132738Y-76607200D02*
X160275595Y-76654819D01*
X160275595Y-76654819D02*
X160370833Y-76654819D01*
X160370833Y-76654819D02*
X160513690Y-76607200D01*
X160513690Y-76607200D02*
X160561309Y-76559580D01*
X160561309Y-76559580D02*
X160561309Y-76226247D01*
X160561309Y-76226247D02*
X160370833Y-76226247D01*
X160989881Y-75654819D02*
X160989881Y-76464342D01*
X160989881Y-76464342D02*
X161037500Y-76559580D01*
X161037500Y-76559580D02*
X161085119Y-76607200D01*
X161085119Y-76607200D02*
X161180357Y-76654819D01*
X161180357Y-76654819D02*
X161370833Y-76654819D01*
X161370833Y-76654819D02*
X161466071Y-76607200D01*
X161466071Y-76607200D02*
X161513690Y-76559580D01*
X161513690Y-76559580D02*
X161561309Y-76464342D01*
X161561309Y-76464342D02*
X161561309Y-75654819D01*
X162513690Y-76654819D02*
X162037500Y-76654819D01*
X162037500Y-76654819D02*
X162037500Y-75654819D01*
X162799405Y-76369104D02*
X163275595Y-76369104D01*
X162704167Y-76654819D02*
X163037500Y-75654819D01*
X163037500Y-75654819D02*
X163370833Y-76654819D01*
X163561310Y-75654819D02*
X164132738Y-75654819D01*
X163847024Y-76654819D02*
X163847024Y-75654819D01*
X164656548Y-75654819D02*
X164847024Y-75654819D01*
X164847024Y-75654819D02*
X164942262Y-75702438D01*
X164942262Y-75702438D02*
X165037500Y-75797676D01*
X165037500Y-75797676D02*
X165085119Y-75988152D01*
X165085119Y-75988152D02*
X165085119Y-76321485D01*
X165085119Y-76321485D02*
X165037500Y-76511961D01*
X165037500Y-76511961D02*
X164942262Y-76607200D01*
X164942262Y-76607200D02*
X164847024Y-76654819D01*
X164847024Y-76654819D02*
X164656548Y-76654819D01*
X164656548Y-76654819D02*
X164561310Y-76607200D01*
X164561310Y-76607200D02*
X164466072Y-76511961D01*
X164466072Y-76511961D02*
X164418453Y-76321485D01*
X164418453Y-76321485D02*
X164418453Y-75988152D01*
X164418453Y-75988152D02*
X164466072Y-75797676D01*
X164466072Y-75797676D02*
X164561310Y-75702438D01*
X164561310Y-75702438D02*
X164656548Y-75654819D01*
X166085119Y-76654819D02*
X165751786Y-76178628D01*
X165513691Y-76654819D02*
X165513691Y-75654819D01*
X165513691Y-75654819D02*
X165894643Y-75654819D01*
X165894643Y-75654819D02*
X165989881Y-75702438D01*
X165989881Y-75702438D02*
X166037500Y-75750057D01*
X166037500Y-75750057D02*
X166085119Y-75845295D01*
X166085119Y-75845295D02*
X166085119Y-75988152D01*
X166085119Y-75988152D02*
X166037500Y-76083390D01*
X166037500Y-76083390D02*
X165989881Y-76131009D01*
X165989881Y-76131009D02*
X165894643Y-76178628D01*
X165894643Y-76178628D02*
X165513691Y-76178628D01*
X167037500Y-76654819D02*
X166466072Y-76654819D01*
X166751786Y-76654819D02*
X166751786Y-75654819D01*
X166751786Y-75654819D02*
X166656548Y-75797676D01*
X166656548Y-75797676D02*
X166561310Y-75892914D01*
X166561310Y-75892914D02*
X166466072Y-75940533D01*
X169758333Y-108674819D02*
X169425000Y-108198628D01*
X169186905Y-108674819D02*
X169186905Y-107674819D01*
X169186905Y-107674819D02*
X169567857Y-107674819D01*
X169567857Y-107674819D02*
X169663095Y-107722438D01*
X169663095Y-107722438D02*
X169710714Y-107770057D01*
X169710714Y-107770057D02*
X169758333Y-107865295D01*
X169758333Y-107865295D02*
X169758333Y-108008152D01*
X169758333Y-108008152D02*
X169710714Y-108103390D01*
X169710714Y-108103390D02*
X169663095Y-108151009D01*
X169663095Y-108151009D02*
X169567857Y-108198628D01*
X169567857Y-108198628D02*
X169186905Y-108198628D01*
X170615476Y-108008152D02*
X170615476Y-108674819D01*
X170377381Y-107627200D02*
X170139286Y-108341485D01*
X170139286Y-108341485D02*
X170758333Y-108341485D01*
X169284580Y-105281666D02*
X169332200Y-105329285D01*
X169332200Y-105329285D02*
X169379819Y-105472142D01*
X169379819Y-105472142D02*
X169379819Y-105567380D01*
X169379819Y-105567380D02*
X169332200Y-105710237D01*
X169332200Y-105710237D02*
X169236961Y-105805475D01*
X169236961Y-105805475D02*
X169141723Y-105853094D01*
X169141723Y-105853094D02*
X168951247Y-105900713D01*
X168951247Y-105900713D02*
X168808390Y-105900713D01*
X168808390Y-105900713D02*
X168617914Y-105853094D01*
X168617914Y-105853094D02*
X168522676Y-105805475D01*
X168522676Y-105805475D02*
X168427438Y-105710237D01*
X168427438Y-105710237D02*
X168379819Y-105567380D01*
X168379819Y-105567380D02*
X168379819Y-105472142D01*
X168379819Y-105472142D02*
X168427438Y-105329285D01*
X168427438Y-105329285D02*
X168475057Y-105281666D01*
X168379819Y-104948332D02*
X168379819Y-104281666D01*
X168379819Y-104281666D02*
X169379819Y-104710237D01*
X159838095Y-96289819D02*
X159838095Y-95289819D01*
X159838095Y-95289819D02*
X160171428Y-96004104D01*
X160171428Y-96004104D02*
X160504761Y-95289819D01*
X160504761Y-95289819D02*
X160504761Y-96289819D01*
X160933333Y-96004104D02*
X161409523Y-96004104D01*
X160838095Y-96289819D02*
X161171428Y-95289819D01*
X161171428Y-95289819D02*
X161504761Y-96289819D01*
X162409523Y-96194580D02*
X162361904Y-96242200D01*
X162361904Y-96242200D02*
X162219047Y-96289819D01*
X162219047Y-96289819D02*
X162123809Y-96289819D01*
X162123809Y-96289819D02*
X161980952Y-96242200D01*
X161980952Y-96242200D02*
X161885714Y-96146961D01*
X161885714Y-96146961D02*
X161838095Y-96051723D01*
X161838095Y-96051723D02*
X161790476Y-95861247D01*
X161790476Y-95861247D02*
X161790476Y-95718390D01*
X161790476Y-95718390D02*
X161838095Y-95527914D01*
X161838095Y-95527914D02*
X161885714Y-95432676D01*
X161885714Y-95432676D02*
X161980952Y-95337438D01*
X161980952Y-95337438D02*
X162123809Y-95289819D01*
X162123809Y-95289819D02*
X162219047Y-95289819D01*
X162219047Y-95289819D02*
X162361904Y-95337438D01*
X162361904Y-95337438D02*
X162409523Y-95385057D01*
X163409523Y-96289819D02*
X163076190Y-95813628D01*
X162838095Y-96289819D02*
X162838095Y-95289819D01*
X162838095Y-95289819D02*
X163219047Y-95289819D01*
X163219047Y-95289819D02*
X163314285Y-95337438D01*
X163314285Y-95337438D02*
X163361904Y-95385057D01*
X163361904Y-95385057D02*
X163409523Y-95480295D01*
X163409523Y-95480295D02*
X163409523Y-95623152D01*
X163409523Y-95623152D02*
X163361904Y-95718390D01*
X163361904Y-95718390D02*
X163314285Y-95766009D01*
X163314285Y-95766009D02*
X163219047Y-95813628D01*
X163219047Y-95813628D02*
X162838095Y-95813628D01*
X164028571Y-95289819D02*
X164219047Y-95289819D01*
X164219047Y-95289819D02*
X164314285Y-95337438D01*
X164314285Y-95337438D02*
X164409523Y-95432676D01*
X164409523Y-95432676D02*
X164457142Y-95623152D01*
X164457142Y-95623152D02*
X164457142Y-95956485D01*
X164457142Y-95956485D02*
X164409523Y-96146961D01*
X164409523Y-96146961D02*
X164314285Y-96242200D01*
X164314285Y-96242200D02*
X164219047Y-96289819D01*
X164219047Y-96289819D02*
X164028571Y-96289819D01*
X164028571Y-96289819D02*
X163933333Y-96242200D01*
X163933333Y-96242200D02*
X163838095Y-96146961D01*
X163838095Y-96146961D02*
X163790476Y-95956485D01*
X163790476Y-95956485D02*
X163790476Y-95623152D01*
X163790476Y-95623152D02*
X163838095Y-95432676D01*
X163838095Y-95432676D02*
X163933333Y-95337438D01*
X163933333Y-95337438D02*
X164028571Y-95289819D01*
X165409523Y-96289819D02*
X164838095Y-96289819D01*
X165123809Y-96289819D02*
X165123809Y-95289819D01*
X165123809Y-95289819D02*
X165028571Y-95432676D01*
X165028571Y-95432676D02*
X164933333Y-95527914D01*
X164933333Y-95527914D02*
X164838095Y-95575533D01*
D11*
%TO.C,C8*%
X171284420Y-99190000D02*
X171565580Y-99190000D01*
X171284420Y-100210000D02*
X171565580Y-100210000D01*
%TO.C,U1*%
X172890000Y-100890000D02*
X173190000Y-100890000D01*
X172890000Y-101190000D02*
X172890000Y-100890000D01*
X172890000Y-108110000D02*
X172890000Y-107810000D01*
X173190000Y-108110000D02*
X172890000Y-108110000D01*
X179810000Y-100890000D02*
X180110000Y-100890000D01*
X180110000Y-100890000D02*
X180110000Y-101190000D01*
X180110000Y-107810000D02*
X180110000Y-108110000D01*
X180110000Y-108110000D02*
X179810000Y-108110000D01*
X172250000Y-101180000D02*
X171910000Y-100710000D01*
X172590000Y-100710000D01*
X172250000Y-101180000D01*
G36*
X172250000Y-101180000D02*
G01*
X171910000Y-100710000D01*
X172590000Y-100710000D01*
X172250000Y-101180000D01*
G37*
%TO.C,C15*%
X177030000Y-87735580D02*
X177030000Y-87454420D01*
X178050000Y-87735580D02*
X178050000Y-87454420D01*
%TO.C,R2*%
X168477500Y-69737258D02*
X168477500Y-69262742D01*
X169522500Y-69737258D02*
X169522500Y-69262742D01*
%TO.C,C9*%
X165777500Y-73384420D02*
X165777500Y-73665580D01*
X166797500Y-73384420D02*
X166797500Y-73665580D01*
%TO.C,C3*%
X154790580Y-112045000D02*
X154509420Y-112045000D01*
X154790580Y-113065000D02*
X154509420Y-113065000D01*
%TO.C,TP1*%
X152200000Y-102950000D02*
G75*
G02*
X150800000Y-102950000I-700000J0D01*
G01*
X150800000Y-102950000D02*
G75*
G02*
X152200000Y-102950000I700000J0D01*
G01*
%TO.C,DFU1*%
X181000000Y-95750000D02*
X181000000Y-97250000D01*
X182250000Y-99750000D02*
X186750000Y-99750000D01*
X186750000Y-93250000D02*
X182250000Y-93250000D01*
X188000000Y-97250000D02*
X188000000Y-95750000D01*
%TO.C,C11*%
X179059420Y-110390000D02*
X179340580Y-110390000D01*
X179059420Y-111410000D02*
X179340580Y-111410000D01*
%TO.C,C2*%
X151284420Y-115210000D02*
X151565580Y-115210000D01*
X151284420Y-116230000D02*
X151565580Y-116230000D01*
%TO.C,RMB1*%
X175000000Y-76310000D02*
X175000000Y-77810000D01*
X176250000Y-80310000D02*
X180750000Y-80310000D01*
X180750000Y-73810000D02*
X176250000Y-73810000D01*
X182000000Y-77810000D02*
X182000000Y-76310000D01*
%TO.C,D3*%
X176920000Y-114440000D02*
X176455000Y-114440000D01*
X179545000Y-114440000D02*
X179080000Y-114440000D01*
X176920000Y-119254684D02*
G75*
G02*
X176920000Y-114745316I1080000J2254684D01*
G01*
X176920000Y-119788136D02*
G75*
G02*
X176455170Y-114440000I1080000J2788136D01*
G01*
X179080000Y-114745316D02*
G75*
G02*
X179080000Y-119254684I-1080000J-2254684D01*
G01*
X179544830Y-114440000D02*
G75*
G02*
X179080000Y-119788136I-1544830J-2560000D01*
G01*
%TO.C,LMB1*%
X143500000Y-76250000D02*
X143500000Y-77750000D01*
X144750000Y-80250000D02*
X149250000Y-80250000D01*
X149250000Y-73750000D02*
X144750000Y-73750000D01*
X150500000Y-77750000D02*
X150500000Y-76250000D01*
%TO.C,C17*%
X173490000Y-116140580D02*
X173490000Y-115859420D01*
X174510000Y-116140580D02*
X174510000Y-115859420D01*
%TO.C,MMB1*%
X148500000Y-85085000D02*
X148500000Y-86585000D01*
X149750000Y-89085000D02*
X154250000Y-89085000D01*
X154250000Y-82585000D02*
X149750000Y-82585000D01*
X155500000Y-86585000D02*
X155500000Y-85085000D01*
%TO.C,R6*%
X175187742Y-97092500D02*
X175662258Y-97092500D01*
X175187742Y-98137500D02*
X175662258Y-98137500D01*
%TO.C,USB1*%
X158150000Y-62060000D02*
X158150000Y-60160000D01*
X158150000Y-65960000D02*
X158150000Y-63960000D01*
X167550000Y-60160000D02*
X158150000Y-60160000D01*
X167550000Y-62060000D02*
X167550000Y-60160000D01*
X167550000Y-65960000D02*
X167550000Y-63960000D01*
%TO.C,TP2*%
X152200000Y-106000000D02*
G75*
G02*
X150800000Y-106000000I-700000J0D01*
G01*
X150800000Y-106000000D02*
G75*
G02*
X152200000Y-106000000I700000J0D01*
G01*
%TO.C,C1*%
X158277500Y-73715580D02*
X158277500Y-73434420D01*
X159297500Y-73715580D02*
X159297500Y-73434420D01*
%TO.C,TP3*%
X152200000Y-109050000D02*
G75*
G02*
X150800000Y-109050000I-700000J0D01*
G01*
X150800000Y-109050000D02*
G75*
G02*
X152200000Y-109050000I700000J0D01*
G01*
%TO.C,D2*%
X147920000Y-92440000D02*
X147455000Y-92440000D01*
X150545000Y-92440000D02*
X150080000Y-92440000D01*
X147920000Y-97254684D02*
G75*
G02*
X147920000Y-92745316I1080000J2254684D01*
G01*
X147920000Y-97788136D02*
G75*
G02*
X147455170Y-92440000I1080000J2788136D01*
G01*
X150080000Y-92745316D02*
G75*
G02*
X150080000Y-97254684I-1080000J-2254684D01*
G01*
X150544830Y-92440000D02*
G75*
G02*
X150080000Y-97788136I-1544830J-2560000D01*
G01*
%TO.C,R3*%
X155977500Y-69737258D02*
X155977500Y-69262742D01*
X157022500Y-69737258D02*
X157022500Y-69262742D01*
%TO.C,C5*%
X154559420Y-113795000D02*
X154840580Y-113795000D01*
X154559420Y-114815000D02*
X154840580Y-114815000D01*
%TO.C,C16*%
X144490000Y-94275580D02*
X144490000Y-93994420D01*
X145510000Y-94275580D02*
X145510000Y-93994420D01*
%TO.C,C4*%
X154790580Y-115545000D02*
X154509420Y-115545000D01*
X154790580Y-116565000D02*
X154509420Y-116565000D01*
%TO.C,D1*%
X180420000Y-85940000D02*
X179955000Y-85940000D01*
X183045000Y-85940000D02*
X182580000Y-85940000D01*
X180420000Y-90754684D02*
G75*
G02*
X180420000Y-86245316I1080000J2254684D01*
G01*
X180420000Y-91288136D02*
G75*
G02*
X179955170Y-85940000I1080000J2788136D01*
G01*
X182580000Y-86245316D02*
G75*
G02*
X182580000Y-90754684I-1080000J-2254684D01*
G01*
X183044830Y-85940000D02*
G75*
G02*
X182580000Y-91288136I-1544830J-2560000D01*
G01*
%TO.C,R5*%
X169902500Y-102237258D02*
X169902500Y-101762742D01*
X170947500Y-102237258D02*
X170947500Y-101762742D01*
%TO.C,R1*%
X154902500Y-118957258D02*
X154902500Y-118482742D01*
X155947500Y-118957258D02*
X155947500Y-118482742D01*
D12*
%TO.C,SENSOR1*%
X157950000Y-107505000D02*
X157950000Y-123705000D01*
X157950000Y-123705000D02*
X167050000Y-123705000D01*
X167050000Y-107505000D02*
X157950000Y-107505000D01*
X167050000Y-123705000D02*
X167050000Y-107505000D01*
D11*
%TO.C,REGULATOR1*%
X161577500Y-71990000D02*
X163397500Y-71990000D01*
X161577500Y-72040000D02*
X161577500Y-71990000D01*
X161577500Y-75110000D02*
X161577500Y-75060000D01*
X163397500Y-71990000D02*
X163397500Y-72040000D01*
X163397500Y-73160000D02*
X163397500Y-73940000D01*
X163397500Y-75060000D02*
X163397500Y-75110000D01*
X163397500Y-75110000D02*
X161577500Y-75110000D01*
X161037500Y-72040000D02*
X160797500Y-71710000D01*
X161277500Y-71710000D01*
X161037500Y-72040000D01*
G36*
X161037500Y-72040000D02*
G01*
X160797500Y-71710000D01*
X161277500Y-71710000D01*
X161037500Y-72040000D01*
G37*
%TO.C,R4*%
X169402500Y-110957258D02*
X169402500Y-110482742D01*
X170447500Y-110957258D02*
X170447500Y-110482742D01*
%TO.C,C7*%
X169915000Y-104959420D02*
X169915000Y-105240580D01*
X170935000Y-104959420D02*
X170935000Y-105240580D01*
%TO.C,MACRO1*%
X159100000Y-99335000D02*
X159100000Y-100835000D01*
X160350000Y-103335000D02*
X164850000Y-103335000D01*
X164850000Y-96835000D02*
X160350000Y-96835000D01*
X166100000Y-100835000D02*
X166100000Y-99335000D01*
%TD*%
M02*
