%TF.GenerationSoftware,KiCad,Pcbnew,9.0.6*%
%TF.CreationDate,2026-03-04T20:25:34+11:00*%
%TF.ProjectId,CustomMouse,43757374-6f6d-44d6-9f75-73652e6b6963,rev?*%
%TF.SameCoordinates,Original*%
%TF.FileFunction,Copper,L1,Top*%
%TF.FilePolarity,Positive*%
%FSLAX46Y46*%
G04 Gerber Fmt 4.6, Leading zero omitted, Abs format (unit mm)*
G04 Created by KiCad (PCBNEW 9.0.6) date 2026-03-04 20:25:34*
%MOMM*%
%LPD*%
G01*
G04 APERTURE LIST*
G04 Aperture macros list*
%AMRoundRect*
0 Rectangle with rounded corners*
0 $1 Rounding radius*
0 $2 $3 $4 $5 $6 $7 $8 $9 X,Y pos of 4 corners*
0 Add a 4 corners polygon primitive as box body*
4,1,4,$2,$3,$4,$5,$6,$7,$8,$9,$2,$3,0*
0 Add four circle primitives for the rounded corners*
1,1,$1+$1,$2,$3*
1,1,$1+$1,$4,$5*
1,1,$1+$1,$6,$7*
1,1,$1+$1,$8,$9*
0 Add four rect primitives between the rounded corners*
20,1,$1+$1,$2,$3,$4,$5,0*
20,1,$1+$1,$4,$5,$6,$7,0*
20,1,$1+$1,$6,$7,$8,$9,0*
20,1,$1+$1,$8,$9,$2,$3,0*%
G04 Aperture macros list end*
%TA.AperFunction,SMDPad,CuDef*%
%ADD10RoundRect,0.225000X-0.225000X-0.250000X0.225000X-0.250000X0.225000X0.250000X-0.225000X0.250000X0*%
%TD*%
%TA.AperFunction,SMDPad,CuDef*%
%ADD11RoundRect,0.125000X-0.625000X-0.125000X0.625000X-0.125000X0.625000X0.125000X-0.625000X0.125000X0*%
%TD*%
%TA.AperFunction,SMDPad,CuDef*%
%ADD12RoundRect,0.125000X-0.125000X-0.625000X0.125000X-0.625000X0.125000X0.625000X-0.125000X0.625000X0*%
%TD*%
%TA.AperFunction,SMDPad,CuDef*%
%ADD13RoundRect,0.225000X0.250000X-0.225000X0.250000X0.225000X-0.250000X0.225000X-0.250000X-0.225000X0*%
%TD*%
%TA.AperFunction,SMDPad,CuDef*%
%ADD14RoundRect,0.200000X0.275000X-0.200000X0.275000X0.200000X-0.275000X0.200000X-0.275000X-0.200000X0*%
%TD*%
%TA.AperFunction,SMDPad,CuDef*%
%ADD15RoundRect,0.225000X-0.250000X0.225000X-0.250000X-0.225000X0.250000X-0.225000X0.250000X0.225000X0*%
%TD*%
%TA.AperFunction,SMDPad,CuDef*%
%ADD16RoundRect,0.225000X0.225000X0.250000X-0.225000X0.250000X-0.225000X-0.250000X0.225000X-0.250000X0*%
%TD*%
%TA.AperFunction,SMDPad,CuDef*%
%ADD17C,1.000000*%
%TD*%
%TA.AperFunction,ComponentPad*%
%ADD18C,2.000000*%
%TD*%
%TA.AperFunction,ComponentPad*%
%ADD19R,1.800000X1.070000*%
%TD*%
%TA.AperFunction,ComponentPad*%
%ADD20O,1.800000X1.070000*%
%TD*%
%TA.AperFunction,SMDPad,CuDef*%
%ADD21RoundRect,0.200000X-0.200000X-0.275000X0.200000X-0.275000X0.200000X0.275000X-0.200000X0.275000X0*%
%TD*%
%TA.AperFunction,SMDPad,CuDef*%
%ADD22R,0.600000X1.450000*%
%TD*%
%TA.AperFunction,SMDPad,CuDef*%
%ADD23R,0.300000X1.450000*%
%TD*%
%TA.AperFunction,HeatsinkPad*%
%ADD24O,1.000000X2.100000*%
%TD*%
%TA.AperFunction,HeatsinkPad*%
%ADD25O,1.000000X1.600000*%
%TD*%
%TA.AperFunction,ComponentPad*%
%ADD26O,3.016000X1.508000*%
%TD*%
%TA.AperFunction,ComponentPad*%
%ADD27C,1.300000*%
%TD*%
%TA.AperFunction,SMDPad,CuDef*%
%ADD28RoundRect,0.150000X-0.512500X-0.150000X0.512500X-0.150000X0.512500X0.150000X-0.512500X0.150000X0*%
%TD*%
%TA.AperFunction,ViaPad*%
%ADD29C,0.600000*%
%TD*%
%TA.AperFunction,Conductor*%
%ADD30C,0.250000*%
%TD*%
%TA.AperFunction,Conductor*%
%ADD31C,0.200000*%
%TD*%
%TA.AperFunction,Conductor*%
%ADD32C,0.400000*%
%TD*%
G04 APERTURE END LIST*
D10*
%TO.P,C8,1*%
%TO.N,+3.3V*%
X170650000Y-99700000D03*
%TO.P,C8,2*%
%TO.N,GND*%
X172200000Y-99700000D03*
%TD*%
D11*
%TO.P,U1,1,VDD*%
%TO.N,+3.3V*%
X172325000Y-101700000D03*
%TO.P,U1,2,PF0-OSC_IN*%
%TO.N,unconnected-(U1-PF0-OSC_IN-Pad2)*%
X172325000Y-102500000D03*
%TO.P,U1,3,PF1-OSC_OUT*%
%TO.N,unconnected-(U1-PF1-OSC_OUT-Pad3)*%
X172325000Y-103300000D03*
%TO.P,U1,4,PG10-NRST*%
%TO.N,/NRST*%
X172325000Y-104100000D03*
%TO.P,U1,5,PA0*%
%TO.N,/WHEEL_A*%
X172325000Y-104900000D03*
%TO.P,U1,6,PA1*%
%TO.N,/WHEEL_B*%
X172325000Y-105700000D03*
%TO.P,U1,7,PA2*%
%TO.N,unconnected-(U1-PA2-Pad7)*%
X172325000Y-106500000D03*
%TO.P,U1,8,PA3*%
%TO.N,unconnected-(U1-PA3-Pad8)*%
X172325000Y-107300000D03*
D12*
%TO.P,U1,9,PA4*%
%TO.N,/CS*%
X173700000Y-108675000D03*
%TO.P,U1,10,PA5*%
%TO.N,/SCLK*%
X174500000Y-108675000D03*
%TO.P,U1,11,PA6*%
%TO.N,/MISO*%
X175300000Y-108675000D03*
%TO.P,U1,12,PA7*%
%TO.N,/MOSI*%
X176100000Y-108675000D03*
%TO.P,U1,13,PB0*%
%TO.N,/MOTION*%
X176900000Y-108675000D03*
%TO.P,U1,14,VSSA*%
%TO.N,GND*%
X177700000Y-108675000D03*
%TO.P,U1,15,VDDA/VREF+*%
%TO.N,+3.3V*%
X178500000Y-108675000D03*
%TO.P,U1,16,VSS*%
%TO.N,GND*%
X179300000Y-108675000D03*
D11*
%TO.P,U1,17,VDD*%
%TO.N,+3.3V*%
X180675000Y-107300000D03*
%TO.P,U1,18,PA8*%
%TO.N,unconnected-(U1-PA8-Pad18)*%
X180675000Y-106500000D03*
%TO.P,U1,19,PA9*%
%TO.N,unconnected-(U1-PA9-Pad19)*%
X180675000Y-105700000D03*
%TO.P,U1,20,PA10*%
%TO.N,unconnected-(U1-PA10-Pad20)*%
X180675000Y-104900000D03*
%TO.P,U1,21,PA11*%
%TO.N,/USB_D-*%
X180675000Y-104100000D03*
%TO.P,U1,22,PA12*%
%TO.N,/USB_D+*%
X180675000Y-103300000D03*
%TO.P,U1,23,PA13*%
%TO.N,/DEBUG1*%
X180675000Y-102500000D03*
%TO.P,U1,24,PA14*%
%TO.N,/DEBUG2*%
X180675000Y-101700000D03*
D12*
%TO.P,U1,25,PA15*%
%TO.N,unconnected-(U1-PA15-Pad25)*%
X179300000Y-100325000D03*
%TO.P,U1,26,PB3*%
%TO.N,/LMB*%
X178500000Y-100325000D03*
%TO.P,U1,27,PB4*%
%TO.N,/RMB*%
X177700000Y-100325000D03*
%TO.P,U1,28,PB5*%
%TO.N,/MMB*%
X176900000Y-100325000D03*
%TO.P,U1,29,PB6*%
%TO.N,/MAC*%
X176100000Y-100325000D03*
%TO.P,U1,30,PB7*%
%TO.N,/LED*%
X175300000Y-100325000D03*
%TO.P,U1,31,PB8-BOOT0*%
%TO.N,/BOOT0*%
X174500000Y-100325000D03*
%TO.P,U1,32,VSS*%
%TO.N,GND*%
X173700000Y-100325000D03*
%TD*%
D13*
%TO.P,C15,1*%
%TO.N,GND*%
X177540000Y-88370000D03*
%TO.P,C15,2*%
%TO.N,/5v*%
X177540000Y-86820000D03*
%TD*%
D14*
%TO.P,R2,1*%
%TO.N,Net-(USB1-CC1)*%
X169000000Y-70325000D03*
%TO.P,R2,2*%
%TO.N,GND*%
X169000000Y-68675000D03*
%TD*%
D15*
%TO.P,C9,1*%
%TO.N,+3.3V*%
X166287500Y-72750000D03*
%TO.P,C9,2*%
%TO.N,GND*%
X166287500Y-74300000D03*
%TD*%
D16*
%TO.P,C3,1*%
%TO.N,Net-(SENSOR1-VDDPIX)*%
X155425000Y-112555000D03*
%TO.P,C3,2*%
%TO.N,GND*%
X153875000Y-112555000D03*
%TD*%
D17*
%TO.P,TP1,1,1*%
%TO.N,GND*%
X151500000Y-102950000D03*
%TD*%
D18*
%TO.P,DFU1,1,1*%
%TO.N,/BOOT0*%
X184500000Y-94250000D03*
%TO.P,DFU1,2,2*%
%TO.N,+3.3V*%
X184500000Y-98750000D03*
%TD*%
D10*
%TO.P,C11,1*%
%TO.N,+3.3V*%
X178425000Y-110900000D03*
%TO.P,C11,2*%
%TO.N,GND*%
X179975000Y-110900000D03*
%TD*%
%TO.P,C2,1*%
%TO.N,GND*%
X150650000Y-115720000D03*
%TO.P,C2,2*%
%TO.N,Net-(SENSOR1-VDD)*%
X152200000Y-115720000D03*
%TD*%
D18*
%TO.P,RMB1,1,1*%
%TO.N,/RMB*%
X178500000Y-79310000D03*
%TO.P,RMB1,2,2*%
%TO.N,GND*%
X178500000Y-74810000D03*
%TD*%
D19*
%TO.P,D3,1,VDD*%
%TO.N,/5v*%
X178000000Y-115095000D03*
D20*
%TO.P,D3,2,DOUT*%
%TO.N,unconnected-(D3-DOUT-Pad2)*%
X178000000Y-116365000D03*
%TO.P,D3,3,VSS*%
%TO.N,GND*%
X178000000Y-117635000D03*
%TO.P,D3,4,DIN*%
%TO.N,Net-(D2-DOUT)*%
X178000000Y-118905000D03*
%TD*%
D18*
%TO.P,LMB1,1,1*%
%TO.N,/LMB*%
X147000000Y-79250000D03*
%TO.P,LMB1,2,2*%
%TO.N,GND*%
X147000000Y-74750000D03*
%TD*%
D13*
%TO.P,C17,1*%
%TO.N,GND*%
X174000000Y-116775000D03*
%TO.P,C17,2*%
%TO.N,/5v*%
X174000000Y-115225000D03*
%TD*%
D18*
%TO.P,MMB1,1,1*%
%TO.N,/MMB*%
X152000000Y-83585000D03*
%TO.P,MMB1,2,2*%
%TO.N,GND*%
X152000000Y-88085000D03*
%TD*%
D21*
%TO.P,R6,1*%
%TO.N,/BOOT0*%
X174600000Y-97615000D03*
%TO.P,R6,2*%
%TO.N,GND*%
X176250000Y-97615000D03*
%TD*%
D22*
%TO.P,USB1,A1,GND*%
%TO.N,GND*%
X166100000Y-68105000D03*
%TO.P,USB1,A4,VBUS*%
%TO.N,/5v*%
X165300000Y-68105000D03*
D23*
%TO.P,USB1,A5,CC1*%
%TO.N,Net-(USB1-CC1)*%
X164100000Y-68105000D03*
%TO.P,USB1,A6,D+*%
%TO.N,/USB_D+*%
X163100000Y-68105000D03*
%TO.P,USB1,A7,D-*%
%TO.N,/USB_D-*%
X162600000Y-68105000D03*
%TO.P,USB1,A8*%
%TO.N,N/C*%
X161600000Y-68105000D03*
D22*
%TO.P,USB1,A9,VBUS*%
%TO.N,/5v*%
X160400000Y-68105000D03*
%TO.P,USB1,A12,GND*%
%TO.N,GND*%
X159600000Y-68105000D03*
%TO.P,USB1,B1,GND*%
X159600000Y-68105000D03*
%TO.P,USB1,B4,VBUS*%
%TO.N,/5v*%
X160400000Y-68105000D03*
D23*
%TO.P,USB1,B5,CC2*%
%TO.N,Net-(USB1-CC2)*%
X161100000Y-68105000D03*
%TO.P,USB1,B6,D+*%
%TO.N,/USB_D+*%
X162100000Y-68105000D03*
%TO.P,USB1,B7,D-*%
%TO.N,/USB_D-*%
X163600000Y-68105000D03*
%TO.P,USB1,B8*%
%TO.N,N/C*%
X164600000Y-68105000D03*
D22*
%TO.P,USB1,B9,VBUS*%
%TO.N,/5v*%
X165300000Y-68105000D03*
%TO.P,USB1,B12,GND*%
%TO.N,GND*%
X166100000Y-68105000D03*
D24*
%TO.P,USB1,S1,SHIELD*%
X167170000Y-67190000D03*
D25*
X167170000Y-63010000D03*
D24*
X158530000Y-67190000D03*
D25*
X158530000Y-63010000D03*
%TD*%
D17*
%TO.P,TP2,1,1*%
%TO.N,/DEBUG2*%
X151500000Y-106000000D03*
%TD*%
D13*
%TO.P,C1,1*%
%TO.N,/5v*%
X158787500Y-74350000D03*
%TO.P,C1,2*%
%TO.N,GND*%
X158787500Y-72800000D03*
%TD*%
D26*
%TO.P,WHEEL1,A,A*%
%TO.N,/WHEEL_A*%
X170754000Y-83335000D03*
%TO.P,WHEEL1,B,B*%
%TO.N,/WHEEL_B*%
X170754000Y-85835000D03*
%TO.P,WHEEL1,C,C*%
%TO.N,GND*%
X170754000Y-88335000D03*
%TD*%
D17*
%TO.P,TP3,1,1*%
%TO.N,/DEBUG1*%
X151500000Y-109050000D03*
%TD*%
D19*
%TO.P,D2,1,VDD*%
%TO.N,/5v*%
X149000000Y-93095000D03*
D20*
%TO.P,D2,2,DOUT*%
%TO.N,Net-(D2-DOUT)*%
X149000000Y-94365000D03*
%TO.P,D2,3,VSS*%
%TO.N,GND*%
X149000000Y-95635000D03*
%TO.P,D2,4,DIN*%
%TO.N,Net-(D1-DOUT)*%
X149000000Y-96905000D03*
%TD*%
D14*
%TO.P,R3,1*%
%TO.N,Net-(USB1-CC2)*%
X156500000Y-70325000D03*
%TO.P,R3,2*%
%TO.N,GND*%
X156500000Y-68675000D03*
%TD*%
D10*
%TO.P,C5,1*%
%TO.N,GND*%
X153925000Y-114305000D03*
%TO.P,C5,2*%
%TO.N,+3.3V*%
X155475000Y-114305000D03*
%TD*%
D13*
%TO.P,C16,1*%
%TO.N,GND*%
X145000000Y-94910000D03*
%TO.P,C16,2*%
%TO.N,/5v*%
X145000000Y-93360000D03*
%TD*%
D16*
%TO.P,C4,1*%
%TO.N,+3.3V*%
X155425000Y-116055000D03*
%TO.P,C4,2*%
%TO.N,GND*%
X153875000Y-116055000D03*
%TD*%
D19*
%TO.P,D1,1,VDD*%
%TO.N,/5v*%
X181500000Y-86595000D03*
D20*
%TO.P,D1,2,DOUT*%
%TO.N,Net-(D1-DOUT)*%
X181500000Y-87865000D03*
%TO.P,D1,3,VSS*%
%TO.N,GND*%
X181500000Y-89135000D03*
%TO.P,D1,4,DIN*%
%TO.N,/LED*%
X181500000Y-90405000D03*
%TD*%
D14*
%TO.P,R5,1*%
%TO.N,/NRST*%
X170425000Y-102825000D03*
%TO.P,R5,2*%
%TO.N,+3.3V*%
X170425000Y-101175000D03*
%TD*%
%TO.P,R1,1*%
%TO.N,Net-(SENSOR1-~{RESET})*%
X155425000Y-119545000D03*
%TO.P,R1,2*%
%TO.N,+3.3V*%
X155425000Y-117895000D03*
%TD*%
D27*
%TO.P,SENSOR1,1*%
%TO.N,N/C*%
X157150000Y-108930000D03*
%TO.P,SENSOR1,2*%
X157150000Y-110710000D03*
%TO.P,SENSOR1,3,VDDPIX*%
%TO.N,Net-(SENSOR1-VDDPIX)*%
X157150000Y-112490000D03*
%TO.P,SENSOR1,4,VDD*%
%TO.N,Net-(SENSOR1-VDD)*%
X157150000Y-114270000D03*
%TO.P,SENSOR1,5,VDDIO*%
%TO.N,+3.3V*%
X157150000Y-116050000D03*
%TO.P,SENSOR1,6*%
%TO.N,N/C*%
X157150000Y-117830000D03*
%TO.P,SENSOR1,7,~{RESET}*%
%TO.N,Net-(SENSOR1-~{RESET})*%
X157150000Y-119610000D03*
%TO.P,SENSOR1,8,GND*%
%TO.N,GND*%
X157150000Y-121390000D03*
%TO.P,SENSOR1,9,MOTION*%
%TO.N,/MOTION*%
X167850000Y-122280000D03*
%TO.P,SENSOR1,10,SCLK*%
%TO.N,/SCLK*%
X167850000Y-120500000D03*
%TO.P,SENSOR1,11,MOSI*%
%TO.N,/MOSI*%
X167850000Y-118720000D03*
%TO.P,SENSOR1,12,MISO*%
%TO.N,/MISO*%
X167850000Y-116940000D03*
%TO.P,SENSOR1,13,~{CS}*%
%TO.N,/CS*%
X167850000Y-115160000D03*
%TO.P,SENSOR1,14*%
%TO.N,N/C*%
X167850000Y-113380000D03*
%TO.P,SENSOR1,15,LED_P*%
%TO.N,Net-(SENSOR1-LED_P)*%
X167850000Y-111600000D03*
%TO.P,SENSOR1,16*%
%TO.N,N/C*%
X167850000Y-109820000D03*
%TD*%
D28*
%TO.P,REGULATOR1,1,VIN*%
%TO.N,/5v*%
X161350000Y-72600000D03*
%TO.P,REGULATOR1,2,GND*%
%TO.N,GND*%
X161350000Y-73550000D03*
%TO.P,REGULATOR1,3,EN*%
%TO.N,/5v*%
X161350000Y-74500000D03*
%TO.P,REGULATOR1,4,NC*%
%TO.N,unconnected-(REGULATOR1-NC-Pad4)*%
X163625000Y-74500000D03*
%TO.P,REGULATOR1,5,VOUT*%
%TO.N,+3.3V*%
X163625000Y-72600000D03*
%TD*%
D14*
%TO.P,R4,1*%
%TO.N,Net-(SENSOR1-LED_P)*%
X169925000Y-111545000D03*
%TO.P,R4,2*%
%TO.N,+3.3V*%
X169925000Y-109895000D03*
%TD*%
D15*
%TO.P,C7,1*%
%TO.N,/NRST*%
X170425000Y-104325000D03*
%TO.P,C7,2*%
%TO.N,GND*%
X170425000Y-105875000D03*
%TD*%
D18*
%TO.P,MACRO1,1,1*%
%TO.N,/MAC*%
X162600000Y-97835000D03*
%TO.P,MACRO1,2,2*%
%TO.N,GND*%
X162600000Y-102335000D03*
%TD*%
D29*
%TO.N,*%
X180000000Y-97500000D03*
%TO.N,/SCLK*%
X173578058Y-110328058D03*
X172500000Y-115250000D03*
%TO.N,+3.3V*%
X183000000Y-107250000D03*
X185000000Y-107250000D03*
X175250000Y-96000000D03*
X183000000Y-96000000D03*
%TO.N,/WHEEL_A*%
X173500000Y-89250000D03*
X174250000Y-103500000D03*
%TO.N,/BOOT0*%
X173267288Y-97515715D03*
X179504318Y-94745682D03*
%TO.N,/LMB*%
X148750000Y-100500000D03*
X174000000Y-107000000D03*
X167500000Y-101250000D03*
X146000000Y-101250000D03*
%TO.N,/MMB*%
X167750000Y-100250000D03*
X175750000Y-103000000D03*
X156750000Y-94750000D03*
X156750000Y-96250000D03*
%TO.N,/RMB*%
X181500000Y-95000000D03*
X181500000Y-93250000D03*
X177750000Y-102000000D03*
X179847907Y-89805000D03*
X179500000Y-86000000D03*
X181504318Y-96745682D03*
%TO.N,/LED*%
X172675322Y-96977588D03*
%TO.N,/DEBUG2*%
X167750000Y-104250000D03*
X175500000Y-106750000D03*
%TO.N,/DEBUG1*%
X176750000Y-106750000D03*
X153500000Y-107000000D03*
%TO.N,/WHEEL_B*%
X171250000Y-95250000D03*
X174000000Y-105750000D03*
%TO.N,GND*%
X182000000Y-109000000D03*
X177500000Y-90000000D03*
X173000000Y-94500000D03*
X171750000Y-92750000D03*
X182000000Y-99500000D03*
X169500000Y-91750000D03*
X169750000Y-96750000D03*
X176500000Y-99000000D03*
X172500000Y-98250000D03*
X165500000Y-77250000D03*
X175750000Y-93000000D03*
X182750000Y-105250000D03*
X168750000Y-76000000D03*
X160000000Y-97750000D03*
%TO.N,Net-(D1-DOUT)*%
X167800000Y-95373901D03*
X177152190Y-91652190D03*
%TO.N,/5v*%
X178750000Y-112500000D03*
X175750000Y-112500000D03*
X175250000Y-114250000D03*
%TO.N,Net-(USB1-CC1)*%
X166941438Y-70050000D03*
X165250000Y-70500000D03*
%TO.N,Net-(USB1-CC2)*%
X157750000Y-70325000D03*
X160500000Y-70750000D03*
%TO.N,/MAC*%
X175750000Y-101750000D03*
X167750000Y-97250000D03*
%TD*%
D30*
%TO.N,/SCLK*%
X172500000Y-115850000D02*
X172500000Y-115250000D01*
X173578058Y-110328058D02*
X174500000Y-109406116D01*
X167850000Y-120500000D02*
X172500000Y-115850000D01*
X174500000Y-109406116D02*
X174500000Y-108675000D01*
D31*
%TO.N,Net-(SENSOR1-VDD)*%
X152200000Y-114804890D02*
X152200000Y-115720000D01*
X156409000Y-113529000D02*
X153475890Y-113529000D01*
X153475890Y-113529000D02*
X152200000Y-114804890D01*
X157150000Y-114270000D02*
X156409000Y-113529000D01*
%TO.N,/NRST*%
X170425000Y-102825000D02*
X170425000Y-104325000D01*
X172325000Y-104100000D02*
X170650000Y-104100000D01*
X170650000Y-104100000D02*
X170425000Y-104325000D01*
D32*
%TO.N,+3.3V*%
X182250000Y-107300000D02*
X179724000Y-109826000D01*
X157150000Y-116050000D02*
X155430000Y-116050000D01*
X155000000Y-107000000D02*
X156500000Y-105500000D01*
X155430000Y-116050000D02*
X155425000Y-116055000D01*
X178425000Y-110900000D02*
X178425000Y-109750000D01*
X168500000Y-96000000D02*
X168500000Y-97550000D01*
X170425000Y-101175000D02*
X169675000Y-101175000D01*
X168500000Y-78000000D02*
X168500000Y-96000000D01*
X156500000Y-105500000D02*
X168500000Y-105500000D01*
X182950000Y-107300000D02*
X183000000Y-107250000D01*
X168500000Y-108470000D02*
X168500000Y-107750000D01*
X150000000Y-111750000D02*
X152000000Y-111750000D01*
X185500000Y-96000000D02*
X183000000Y-96000000D01*
X186750000Y-97250000D02*
X185500000Y-96000000D01*
X168500000Y-96000000D02*
X175250000Y-96000000D01*
X169925000Y-109895000D02*
X168500000Y-108470000D01*
X147250000Y-116500000D02*
X147250000Y-114500000D01*
X186750000Y-104250000D02*
X186750000Y-97250000D01*
X168500000Y-105500000D02*
X168500000Y-100000000D01*
X154320000Y-119000000D02*
X149750000Y-119000000D01*
X163625000Y-72600000D02*
X165000000Y-72600000D01*
X186750000Y-105500000D02*
X186750000Y-104250000D01*
X178425000Y-108750000D02*
X178500000Y-108675000D01*
X168500000Y-97550000D02*
X170650000Y-99700000D01*
X149750000Y-119000000D02*
X147250000Y-116500000D01*
X165000000Y-74500000D02*
X168500000Y-78000000D01*
X178425000Y-109750000D02*
X178425000Y-108750000D01*
X179724000Y-109826000D02*
X178501000Y-109826000D01*
X155000000Y-108750000D02*
X155000000Y-107000000D01*
X165000000Y-72600000D02*
X166137500Y-72600000D01*
X155425000Y-117895000D02*
X154320000Y-119000000D01*
X182250000Y-107300000D02*
X182950000Y-107300000D01*
X168500000Y-107750000D02*
X168500000Y-105500000D01*
X152000000Y-111750000D02*
X155000000Y-108750000D01*
X178501000Y-109826000D02*
X178425000Y-109750000D01*
X170425000Y-101175000D02*
X171800000Y-101175000D01*
X169675000Y-101175000D02*
X168500000Y-100000000D01*
X180675000Y-107300000D02*
X182250000Y-107300000D01*
X171800000Y-101175000D02*
X172325000Y-101700000D01*
X155425000Y-117895000D02*
X155425000Y-116055000D01*
X155475000Y-116005000D02*
X155425000Y-116055000D01*
X165000000Y-72600000D02*
X165000000Y-74500000D01*
X185000000Y-107250000D02*
X186750000Y-105500000D01*
X166137500Y-72600000D02*
X166287500Y-72750000D01*
X168500000Y-100000000D02*
X168500000Y-97550000D01*
X155475000Y-114305000D02*
X155475000Y-116005000D01*
X147250000Y-114500000D02*
X150000000Y-111750000D01*
D31*
%TO.N,/WHEEL_A*%
X173500000Y-86081000D02*
X173500000Y-89250000D01*
X173074999Y-104900000D02*
X172325000Y-104900000D01*
X174250000Y-103724999D02*
X173074999Y-104900000D01*
X174250000Y-103500000D02*
X174250000Y-103724999D01*
X170754000Y-83335000D02*
X173500000Y-86081000D01*
%TO.N,/BOOT0*%
X173750000Y-97998427D02*
X173750000Y-98500000D01*
X173267288Y-97515715D02*
X173750000Y-97998427D01*
X180000000Y-94250000D02*
X179504318Y-94745682D01*
X174600000Y-97615000D02*
X174600000Y-100225000D01*
X174600000Y-100225000D02*
X174500000Y-100325000D01*
X174500000Y-99250000D02*
X174500000Y-100325000D01*
X173750000Y-98500000D02*
X174500000Y-99250000D01*
X184500000Y-94250000D02*
X180000000Y-94250000D01*
%TO.N,/LMB*%
X174000000Y-107000000D02*
X178500000Y-102500000D01*
X147000000Y-79250000D02*
X142250000Y-84000000D01*
X142250000Y-97500000D02*
X146000000Y-101250000D01*
X142250000Y-97000000D02*
X142250000Y-97500000D01*
X178500000Y-102500000D02*
X178500000Y-100325000D01*
X148750000Y-100500000D02*
X149284000Y-101034000D01*
X167284000Y-101034000D02*
X167500000Y-101250000D01*
X149284000Y-101034000D02*
X167284000Y-101034000D01*
X142250000Y-84000000D02*
X142250000Y-97000000D01*
%TO.N,/MMB*%
X152000000Y-83585000D02*
X156750000Y-88335000D01*
X156750000Y-96250000D02*
X160750000Y-100250000D01*
X156750000Y-88335000D02*
X156750000Y-94750000D01*
X160750000Y-100250000D02*
X167750000Y-100250000D01*
X175750000Y-103000000D02*
X176900000Y-101850000D01*
X176900000Y-101850000D02*
X176900000Y-100325000D01*
%TO.N,/RMB*%
X177700000Y-101950000D02*
X177750000Y-102000000D01*
X179847907Y-91597907D02*
X179847907Y-89805000D01*
X181504318Y-96745682D02*
X181504318Y-95004318D01*
X178500000Y-85000000D02*
X178500000Y-79310000D01*
X181500000Y-93250000D02*
X179847907Y-91597907D01*
X177700000Y-100325000D02*
X177700000Y-101950000D01*
X179500000Y-86000000D02*
X178500000Y-85000000D01*
X181504318Y-95004318D02*
X181500000Y-95000000D01*
%TO.N,/LED*%
X175013064Y-96839000D02*
X172813910Y-96839000D01*
X175300000Y-100325000D02*
X175300000Y-97125936D01*
X175300000Y-97125936D02*
X175013064Y-96839000D01*
X172813910Y-96839000D02*
X172675322Y-96977588D01*
%TO.N,/DEBUG2*%
X180119082Y-101700000D02*
X180675000Y-101700000D01*
X175500000Y-106750000D02*
X175500000Y-106319082D01*
X151500000Y-106000000D02*
X153250000Y-104250000D01*
X153250000Y-104250000D02*
X167750000Y-104250000D01*
X175500000Y-106319082D02*
X180119082Y-101700000D01*
%TO.N,/DEBUG1*%
X151500000Y-109050000D02*
X153500000Y-107050000D01*
X176750000Y-106750000D02*
X176750000Y-105869082D01*
X180119082Y-102500000D02*
X180675000Y-102500000D01*
X153500000Y-107050000D02*
X153500000Y-107000000D01*
X176750000Y-105869082D02*
X180119082Y-102500000D01*
D30*
%TO.N,/MISO*%
X175300000Y-109490000D02*
X175300000Y-108675000D01*
X167850000Y-116940000D02*
X175300000Y-109490000D01*
D31*
%TO.N,/WHEEL_B*%
X170754000Y-85835000D02*
X172898397Y-87979397D01*
X173251057Y-89851000D02*
X173569397Y-89851000D01*
X172898397Y-89180000D02*
X172899000Y-89180603D01*
X172898397Y-87979397D02*
X172898397Y-89180000D01*
X172000000Y-94000000D02*
X171250000Y-94750000D01*
X174500000Y-91500000D02*
X172000000Y-94000000D01*
X174000000Y-105750000D02*
X172375000Y-105750000D01*
X174500000Y-90781603D02*
X174500000Y-91500000D01*
X171250000Y-94750000D02*
X171250000Y-95250000D01*
X172899000Y-89180603D02*
X172899000Y-89498943D01*
X172375000Y-105750000D02*
X172325000Y-105700000D01*
X173569397Y-89851000D02*
X174500000Y-90781603D01*
X172899000Y-89498943D02*
X173251057Y-89851000D01*
D30*
%TO.N,/MOSI*%
X176100000Y-110470000D02*
X176100000Y-108675000D01*
X167850000Y-118720000D02*
X176100000Y-110470000D01*
%TO.N,/CS*%
X173700000Y-109310000D02*
X173700000Y-108675000D01*
X167850000Y-115160000D02*
X173700000Y-109310000D01*
D31*
%TO.N,Net-(D1-DOUT)*%
X167800000Y-95373901D02*
X152626099Y-95373901D01*
X181500000Y-87865000D02*
X180939380Y-87865000D01*
X151095000Y-96905000D02*
X149000000Y-96905000D01*
X180939380Y-87865000D02*
X177152190Y-91652190D01*
X152626099Y-95373901D02*
X151095000Y-96905000D01*
%TO.N,Net-(D2-DOUT)*%
X153984979Y-123943500D02*
X172961500Y-123943500D01*
X146749000Y-116707521D02*
X153984979Y-123943500D01*
X148722717Y-94365000D02*
X146749000Y-96338717D01*
X149000000Y-94365000D02*
X148722717Y-94365000D01*
X146749000Y-96338717D02*
X146749000Y-116707521D01*
X172961500Y-123943500D02*
X178000000Y-118905000D01*
D32*
%TO.N,/5v*%
X174000000Y-115225000D02*
X174000000Y-114250000D01*
X177540000Y-86820000D02*
X181275000Y-86820000D01*
X176281037Y-92512351D02*
X176281037Y-79718963D01*
X176281037Y-79718963D02*
X167312074Y-70750000D01*
X174275000Y-115225000D02*
X175250000Y-114250000D01*
X160400000Y-69100000D02*
X160400000Y-68105000D01*
X183919686Y-100151000D02*
X176281037Y-92512351D01*
X167312074Y-70750000D02*
X166500000Y-70750000D01*
X145000000Y-93360000D02*
X148735000Y-93360000D01*
X174000000Y-114250000D02*
X175750000Y-112500000D01*
X157911500Y-71588500D02*
X160400000Y-69100000D01*
X160537500Y-72600000D02*
X161350000Y-72600000D01*
X145000000Y-86385500D02*
X157911500Y-73474000D01*
X181275000Y-86820000D02*
X181500000Y-86595000D01*
X165300000Y-67317430D02*
X163721570Y-65739000D01*
X178750000Y-112500000D02*
X180750000Y-112500000D01*
X163721570Y-65739000D02*
X162011000Y-65739000D01*
X177540000Y-86820000D02*
X177540000Y-80977926D01*
X166500000Y-70750000D02*
X165300000Y-69550000D01*
X174000000Y-115225000D02*
X174275000Y-115225000D01*
X183919686Y-109330314D02*
X183919686Y-100151000D01*
X165300000Y-69550000D02*
X165300000Y-68105000D01*
X162011000Y-65739000D02*
X160400000Y-67350000D01*
X145000000Y-93360000D02*
X145000000Y-86385500D01*
X180750000Y-112500000D02*
X183919686Y-109330314D01*
X158787500Y-74350000D02*
X161200000Y-74350000D01*
X157911500Y-73474000D02*
X157911500Y-71588500D01*
X158787500Y-74350000D02*
X157911500Y-73474000D01*
X165300000Y-68105000D02*
X165300000Y-67317430D01*
X160400000Y-67350000D02*
X160400000Y-68105000D01*
X158787500Y-74350000D02*
X160537500Y-72600000D01*
X148735000Y-93360000D02*
X149000000Y-93095000D01*
X177540000Y-80977926D02*
X176281037Y-79718963D01*
X161200000Y-74350000D02*
X161350000Y-74500000D01*
D31*
%TO.N,Net-(USB1-CC1)*%
X166941438Y-70050000D02*
X168725000Y-70050000D01*
X164100000Y-68105000D02*
X164100000Y-69350000D01*
X164100000Y-69350000D02*
X165250000Y-70500000D01*
X168725000Y-70050000D02*
X169000000Y-70325000D01*
D30*
%TO.N,/MOTION*%
X167850000Y-122280000D02*
X173199000Y-116931000D01*
X173199000Y-114008810D02*
X176900000Y-110307810D01*
X176900000Y-110307810D02*
X176900000Y-108675000D01*
X173199000Y-116931000D02*
X173199000Y-114008810D01*
D31*
%TO.N,Net-(USB1-CC2)*%
X161100000Y-68105000D02*
X161100000Y-70150000D01*
X161100000Y-70150000D02*
X160500000Y-70750000D01*
X157750000Y-70325000D02*
X156500000Y-70325000D01*
%TO.N,Net-(SENSOR1-~{RESET})*%
X157085000Y-119545000D02*
X157150000Y-119610000D01*
X155425000Y-119545000D02*
X157085000Y-119545000D01*
%TO.N,Net-(SENSOR1-LED_P)*%
X167905000Y-111545000D02*
X167850000Y-111600000D01*
X169925000Y-111545000D02*
X167905000Y-111545000D01*
%TO.N,/USB_D-*%
X163600000Y-68105000D02*
X163600000Y-69650000D01*
X181893198Y-103925000D02*
X182580221Y-103237977D01*
X175475000Y-80156802D02*
X167513480Y-72195282D01*
X167513480Y-72114502D02*
X166947998Y-71549020D01*
X174725000Y-94406802D02*
X174725000Y-93093198D01*
X163031057Y-69131000D02*
X162649000Y-69131000D01*
X163575029Y-69674971D02*
X163031057Y-69131000D01*
X162649000Y-69131000D02*
X162649000Y-68105000D01*
X180675000Y-104100000D02*
X181175000Y-104100000D01*
X174725000Y-93093198D02*
X175475000Y-92343198D01*
X175096592Y-94778394D02*
X174725000Y-94406802D01*
X179093198Y-98525000D02*
X177975000Y-97406802D01*
X175475000Y-92343198D02*
X175475000Y-80156802D01*
X182580221Y-103237977D02*
X182580221Y-101012023D01*
X163600000Y-69650000D02*
X163575029Y-69674971D01*
X182580221Y-101012023D02*
X180093198Y-98525000D01*
X165449077Y-71549020D02*
X163575029Y-69674971D01*
X162649000Y-68105000D02*
X162600000Y-68105000D01*
X167513480Y-72195282D02*
X167513480Y-72114502D01*
X166947998Y-71549020D02*
X165449077Y-71549020D01*
X181175000Y-104100000D02*
X181350000Y-103925000D01*
X176346592Y-94778394D02*
X175096592Y-94778394D01*
X177975000Y-97406802D02*
X177975000Y-96406802D01*
X180093198Y-98525000D02*
X179093198Y-98525000D01*
X181350000Y-103925000D02*
X181893198Y-103925000D01*
X177975000Y-96406802D02*
X176346592Y-94778394D01*
%TO.N,/USB_D+*%
X181706802Y-103475000D02*
X182130221Y-103051581D01*
X176160196Y-95228394D02*
X174910196Y-95228394D01*
X175025000Y-80343198D02*
X167063500Y-72381698D01*
X162149000Y-69267368D02*
X162149000Y-68154000D01*
X162149000Y-68154000D02*
X162100000Y-68105000D01*
X182130221Y-101198419D02*
X179906802Y-98975000D01*
X167063500Y-72381698D02*
X167063500Y-72300890D01*
X174275000Y-94593198D02*
X174275000Y-92906802D01*
X181175000Y-103300000D02*
X181350000Y-103475000D01*
X162100000Y-67128000D02*
X162100000Y-68105000D01*
X163051000Y-67079000D02*
X162149000Y-67079000D01*
X178906802Y-98975000D02*
X177525000Y-97593198D01*
X166761610Y-71999000D02*
X165262689Y-71999000D01*
X162149000Y-67079000D02*
X162100000Y-67128000D01*
X177525000Y-96593198D02*
X176160196Y-95228394D01*
X174275000Y-92906802D02*
X175025000Y-92156802D01*
X181350000Y-103475000D02*
X181706802Y-103475000D01*
X167063500Y-72300890D02*
X166761610Y-71999000D01*
X162844669Y-69580980D02*
X162462612Y-69580980D01*
X163100000Y-68105000D02*
X163100000Y-67128000D01*
X162462612Y-69580980D02*
X162149000Y-69267368D01*
X182130221Y-103051581D02*
X182130221Y-101198419D01*
X174910196Y-95228394D02*
X174275000Y-94593198D01*
X179906802Y-98975000D02*
X178906802Y-98975000D01*
X180675000Y-103300000D02*
X181175000Y-103300000D01*
X165262689Y-71999000D02*
X162844669Y-69580980D01*
X163100000Y-67128000D02*
X163051000Y-67079000D01*
X177525000Y-97593198D02*
X177525000Y-96593198D01*
X175025000Y-92156802D02*
X175025000Y-80343198D01*
%TO.N,Net-(SENSOR1-VDDPIX)*%
X155490000Y-112490000D02*
X155425000Y-112555000D01*
X157150000Y-112490000D02*
X155490000Y-112490000D01*
%TO.N,/MAC*%
X176100000Y-101400000D02*
X175750000Y-101750000D01*
X162600000Y-97835000D02*
X167165000Y-97835000D01*
X176100000Y-100325000D02*
X176100000Y-101400000D01*
X167165000Y-97835000D02*
X167750000Y-97250000D01*
%TD*%
%TA.AperFunction,Conductor*%
%TO.N,GND*%
G36*
X154727825Y-119263217D02*
G01*
X154749500Y-119315542D01*
X154749500Y-119776519D01*
X154764353Y-119870304D01*
X154764354Y-119870306D01*
X154774991Y-119891181D01*
X154821950Y-119983342D01*
X154911658Y-120073050D01*
X155024696Y-120130646D01*
X155118481Y-120145500D01*
X155731518Y-120145499D01*
X155731519Y-120145499D01*
X155825304Y-120130646D01*
X155825306Y-120130645D01*
X155827419Y-120129568D01*
X155938342Y-120073050D01*
X156028050Y-119983342D01*
X156077697Y-119885903D01*
X156086749Y-119878173D01*
X156091305Y-119867174D01*
X156107464Y-119860480D01*
X156120764Y-119849122D01*
X156143631Y-119845500D01*
X156277527Y-119845500D01*
X156329853Y-119867174D01*
X156345894Y-119891181D01*
X156396296Y-120012862D01*
X156489371Y-120152158D01*
X156489374Y-120152162D01*
X156557447Y-120220235D01*
X156605339Y-120268127D01*
X156627013Y-120320453D01*
X156605339Y-120372779D01*
X156586609Y-120386387D01*
X156547267Y-120406433D01*
X156547259Y-120406438D01*
X156531466Y-120417911D01*
X156531466Y-120417913D01*
X157153553Y-121040000D01*
X157103922Y-121040000D01*
X157014905Y-121063852D01*
X156935095Y-121109930D01*
X156869930Y-121175095D01*
X156823852Y-121254905D01*
X156800000Y-121343922D01*
X156800000Y-121436078D01*
X156823852Y-121525095D01*
X156869930Y-121604905D01*
X156935095Y-121670070D01*
X157014905Y-121716148D01*
X157103922Y-121740000D01*
X157153552Y-121740000D01*
X156531466Y-122362086D01*
X156547265Y-122373566D01*
X156708556Y-122455748D01*
X156708555Y-122455748D01*
X156880697Y-122511680D01*
X156880710Y-122511683D01*
X157059491Y-122540000D01*
X157240509Y-122540000D01*
X157419289Y-122511683D01*
X157419302Y-122511680D01*
X157591443Y-122455748D01*
X157646904Y-122427489D01*
X157703366Y-122423044D01*
X157746434Y-122459827D01*
X157754500Y-122493423D01*
X157754500Y-123569000D01*
X157732826Y-123621326D01*
X157680500Y-123643000D01*
X154140102Y-123643000D01*
X154087776Y-123621326D01*
X151765941Y-121299491D01*
X156000000Y-121299491D01*
X156000000Y-121480508D01*
X156028316Y-121659289D01*
X156028319Y-121659302D01*
X156084251Y-121831443D01*
X156166431Y-121992729D01*
X156177912Y-122008531D01*
X156796446Y-121389999D01*
X156177912Y-120771466D01*
X156177911Y-120771466D01*
X156166433Y-120787265D01*
X156084250Y-120948558D01*
X156028319Y-121120697D01*
X156028316Y-121120710D01*
X156000000Y-121299491D01*
X151765941Y-121299491D01*
X149993276Y-119526826D01*
X149971602Y-119474500D01*
X149993276Y-119422174D01*
X150045602Y-119400500D01*
X154372726Y-119400500D01*
X154372727Y-119400500D01*
X154474588Y-119373207D01*
X154565913Y-119320480D01*
X154623175Y-119263217D01*
X154675499Y-119241543D01*
X154727825Y-119263217D01*
G37*
%TD.AperFunction*%
%TA.AperFunction,Conductor*%
G36*
X156522120Y-95696075D02*
G01*
X156543794Y-95748401D01*
X156522120Y-95800727D01*
X156506794Y-95812487D01*
X156442685Y-95849500D01*
X156349500Y-95942685D01*
X156283610Y-96056809D01*
X156283606Y-96056818D01*
X156249500Y-96184105D01*
X156249500Y-96315894D01*
X156283606Y-96443181D01*
X156283610Y-96443190D01*
X156316698Y-96500499D01*
X156349500Y-96557314D01*
X156442686Y-96650500D01*
X156556814Y-96716392D01*
X156684105Y-96750499D01*
X156684106Y-96750500D01*
X156794877Y-96750500D01*
X156847203Y-96772174D01*
X160509540Y-100434511D01*
X160565489Y-100490460D01*
X160634011Y-100530021D01*
X160634012Y-100530021D01*
X160634014Y-100530022D01*
X160665957Y-100538581D01*
X160710435Y-100550499D01*
X160710436Y-100550500D01*
X160710438Y-100550500D01*
X167312034Y-100550500D01*
X167364360Y-100572174D01*
X167404385Y-100612199D01*
X167426059Y-100664525D01*
X167404385Y-100716851D01*
X167352059Y-100738525D01*
X167332907Y-100736004D01*
X167323562Y-100733500D01*
X149439123Y-100733500D01*
X149386797Y-100711826D01*
X149272174Y-100597203D01*
X149250500Y-100544877D01*
X149250500Y-100434106D01*
X149250499Y-100434105D01*
X149242092Y-100402731D01*
X149216392Y-100306814D01*
X149150500Y-100192686D01*
X149057314Y-100099500D01*
X149055189Y-100098273D01*
X148943190Y-100033610D01*
X148943181Y-100033606D01*
X148815894Y-99999500D01*
X148815892Y-99999500D01*
X148684108Y-99999500D01*
X148684106Y-99999500D01*
X148556818Y-100033606D01*
X148556809Y-100033610D01*
X148442685Y-100099500D01*
X148349500Y-100192685D01*
X148283610Y-100306809D01*
X148283606Y-100306818D01*
X148249500Y-100434105D01*
X148249500Y-100565894D01*
X148283606Y-100693181D01*
X148283610Y-100693190D01*
X148316121Y-100749500D01*
X148349500Y-100807314D01*
X148442686Y-100900500D01*
X148556814Y-100966392D01*
X148684105Y-101000499D01*
X148684106Y-101000500D01*
X148794877Y-101000500D01*
X148847203Y-101022174D01*
X149043540Y-101218511D01*
X149099489Y-101274460D01*
X149168011Y-101314021D01*
X149168012Y-101314021D01*
X149168014Y-101314022D01*
X149201110Y-101322890D01*
X149244435Y-101334499D01*
X149244436Y-101334500D01*
X149244438Y-101334500D01*
X161327571Y-101334500D01*
X161379897Y-101356174D01*
X161401571Y-101408500D01*
X161387438Y-101451996D01*
X161317084Y-101548828D01*
X161209892Y-101759207D01*
X161136937Y-101983738D01*
X161136934Y-101983751D01*
X161100000Y-102216946D01*
X161100000Y-102453053D01*
X161136934Y-102686248D01*
X161136937Y-102686261D01*
X161209892Y-102910792D01*
X161317082Y-103121166D01*
X161377340Y-103204105D01*
X162076212Y-102505233D01*
X162087482Y-102547292D01*
X162159890Y-102672708D01*
X162262292Y-102775110D01*
X162387708Y-102847518D01*
X162429765Y-102858787D01*
X161730893Y-103557658D01*
X161813833Y-103617917D01*
X162024207Y-103725107D01*
X162248738Y-103798062D01*
X162248751Y-103798065D01*
X162276189Y-103802411D01*
X162324480Y-103832004D01*
X162337702Y-103887076D01*
X162308109Y-103935367D01*
X162264613Y-103949500D01*
X153289562Y-103949500D01*
X153210438Y-103949500D01*
X153134012Y-103969978D01*
X153134011Y-103969978D01*
X153134009Y-103969979D01*
X153134007Y-103969980D01*
X153065490Y-104009538D01*
X151769230Y-105305797D01*
X151716904Y-105327471D01*
X151702468Y-105326049D01*
X151568993Y-105299500D01*
X151431007Y-105299500D01*
X151399350Y-105305797D01*
X151295677Y-105326418D01*
X151295667Y-105326421D01*
X151168191Y-105379223D01*
X151053461Y-105455883D01*
X150955883Y-105553461D01*
X150879223Y-105668191D01*
X150826421Y-105795667D01*
X150826418Y-105795677D01*
X150799500Y-105931008D01*
X150799500Y-106068991D01*
X150826418Y-106204322D01*
X150826421Y-106204332D01*
X150879223Y-106331808D01*
X150950737Y-106438837D01*
X150955886Y-106446542D01*
X151053458Y-106544114D01*
X151168189Y-106620775D01*
X151168190Y-106620775D01*
X151168191Y-106620776D01*
X151270465Y-106663139D01*
X151295672Y-106673580D01*
X151431007Y-106700500D01*
X151431009Y-106700500D01*
X151568991Y-106700500D01*
X151568993Y-106700500D01*
X151704328Y-106673580D01*
X151831811Y-106620775D01*
X151946542Y-106544114D01*
X152044114Y-106446542D01*
X152120775Y-106331811D01*
X152173580Y-106204328D01*
X152200500Y-106068993D01*
X152200500Y-105931007D01*
X152173949Y-105797529D01*
X152184998Y-105741982D01*
X152194196Y-105730773D01*
X153352797Y-104572174D01*
X153405123Y-104550500D01*
X167312034Y-104550500D01*
X167364360Y-104572174D01*
X167442686Y-104650500D01*
X167556814Y-104716392D01*
X167684105Y-104750499D01*
X167684106Y-104750500D01*
X167684108Y-104750500D01*
X167815894Y-104750500D01*
X167815894Y-104750499D01*
X167943186Y-104716392D01*
X167988500Y-104690229D01*
X168044651Y-104682836D01*
X168089585Y-104717314D01*
X168099500Y-104754315D01*
X168099500Y-105025500D01*
X168077826Y-105077826D01*
X168025500Y-105099500D01*
X156447271Y-105099500D01*
X156345417Y-105126791D01*
X156345408Y-105126795D01*
X156254086Y-105179520D01*
X154679517Y-106754090D01*
X154626795Y-106845407D01*
X154626791Y-106845416D01*
X154600728Y-106942683D01*
X154600729Y-106942684D01*
X154599500Y-106947270D01*
X154599500Y-108553455D01*
X154577826Y-108605781D01*
X151855781Y-111327826D01*
X151803455Y-111349500D01*
X150052727Y-111349500D01*
X149947273Y-111349500D01*
X149896342Y-111363146D01*
X149845411Y-111376793D01*
X149845407Y-111376795D01*
X149754090Y-111429517D01*
X147175826Y-114007781D01*
X147123500Y-114029455D01*
X147071174Y-114007781D01*
X147049500Y-113955455D01*
X147049500Y-108981008D01*
X150799500Y-108981008D01*
X150799500Y-109118991D01*
X150826418Y-109254322D01*
X150826421Y-109254332D01*
X150879223Y-109381808D01*
X150929235Y-109456657D01*
X150955886Y-109496542D01*
X151053458Y-109594114D01*
X151168189Y-109670775D01*
X151168190Y-109670775D01*
X151168191Y-109670776D01*
X151214269Y-109689862D01*
X151295672Y-109723580D01*
X151431007Y-109750500D01*
X151431009Y-109750500D01*
X151568991Y-109750500D01*
X151568993Y-109750500D01*
X151704328Y-109723580D01*
X151831811Y-109670775D01*
X151946542Y-109594114D01*
X152044114Y-109496542D01*
X152120775Y-109381811D01*
X152173580Y-109254328D01*
X152200500Y-109118993D01*
X152200500Y-108981007D01*
X152173949Y-108847529D01*
X152184998Y-108791982D01*
X152194196Y-108780773D01*
X153452797Y-107522174D01*
X153505123Y-107500500D01*
X153565894Y-107500500D01*
X153565894Y-107500499D01*
X153693186Y-107466392D01*
X153807314Y-107400500D01*
X153900500Y-107307314D01*
X153966392Y-107193186D01*
X154000499Y-107065894D01*
X154000500Y-107065894D01*
X154000500Y-106934106D01*
X154000499Y-106934105D01*
X153977829Y-106849500D01*
X153966392Y-106806814D01*
X153900500Y-106692686D01*
X153807314Y-106599500D01*
X153733380Y-106556814D01*
X153693190Y-106533610D01*
X153693181Y-106533606D01*
X153565894Y-106499500D01*
X153565892Y-106499500D01*
X153434108Y-106499500D01*
X153434106Y-106499500D01*
X153306818Y-106533606D01*
X153306809Y-106533610D01*
X153192685Y-106599500D01*
X153099500Y-106692685D01*
X153033610Y-106806809D01*
X153033606Y-106806818D01*
X152999500Y-106934105D01*
X152999500Y-106934108D01*
X152999500Y-107065892D01*
X152999501Y-107065894D01*
X153001045Y-107071657D01*
X152993652Y-107127809D01*
X152981892Y-107143135D01*
X151769230Y-108355797D01*
X151716904Y-108377471D01*
X151702468Y-108376049D01*
X151568993Y-108349500D01*
X151431007Y-108349500D01*
X151399350Y-108355797D01*
X151295677Y-108376418D01*
X151295667Y-108376421D01*
X151168191Y-108429223D01*
X151053461Y-108505883D01*
X150955883Y-108603461D01*
X150879223Y-108718191D01*
X150826421Y-108845667D01*
X150826418Y-108845677D01*
X150799500Y-108981008D01*
X147049500Y-108981008D01*
X147049500Y-103812572D01*
X150990979Y-103812572D01*
X150990979Y-103812573D01*
X151026323Y-103836189D01*
X151208306Y-103911569D01*
X151208317Y-103911572D01*
X151401510Y-103950000D01*
X151598490Y-103950000D01*
X151791682Y-103911572D01*
X151791693Y-103911569D01*
X151973675Y-103836190D01*
X152009020Y-103812573D01*
X151500000Y-103303553D01*
X150990979Y-103812572D01*
X147049500Y-103812572D01*
X147049500Y-102851509D01*
X150500000Y-102851509D01*
X150500000Y-103048490D01*
X150538427Y-103241682D01*
X150538430Y-103241693D01*
X150613809Y-103423675D01*
X150637426Y-103459019D01*
X151146446Y-102950000D01*
X151146446Y-102949999D01*
X151853553Y-102949999D01*
X151853553Y-102950000D01*
X152362573Y-103459020D01*
X152386190Y-103423675D01*
X152461569Y-103241693D01*
X152461572Y-103241682D01*
X152500000Y-103048490D01*
X152500000Y-102851509D01*
X152461572Y-102658317D01*
X152461569Y-102658306D01*
X152386189Y-102476323D01*
X152362572Y-102440979D01*
X151853553Y-102949999D01*
X151146446Y-102949999D01*
X150637426Y-102440979D01*
X150637425Y-102440979D01*
X150613810Y-102476322D01*
X150538430Y-102658306D01*
X150538427Y-102658317D01*
X150500000Y-102851509D01*
X147049500Y-102851509D01*
X147049500Y-102087425D01*
X150990979Y-102087425D01*
X150990979Y-102087426D01*
X151499999Y-102596446D01*
X152009019Y-102087426D01*
X152009019Y-102087425D01*
X151973675Y-102063809D01*
X151791693Y-101988430D01*
X151791682Y-101988427D01*
X151598490Y-101950000D01*
X151401510Y-101950000D01*
X151208317Y-101988427D01*
X151208306Y-101988430D01*
X151026322Y-102063810D01*
X150990979Y-102087425D01*
X147049500Y-102087425D01*
X147049500Y-96493839D01*
X147071173Y-96441514D01*
X147542724Y-95969962D01*
X147595048Y-95948290D01*
X147647374Y-95969964D01*
X147663415Y-95993971D01*
X147717793Y-96125252D01*
X147831062Y-96294773D01*
X147831063Y-96294774D01*
X147975228Y-96438938D01*
X147978041Y-96441247D01*
X147976832Y-96442718D01*
X148005036Y-96484909D01*
X147993998Y-96540461D01*
X147993990Y-96540473D01*
X147983207Y-96556610D01*
X147927766Y-96690457D01*
X147927763Y-96690468D01*
X147899500Y-96832560D01*
X147899500Y-96977439D01*
X147927763Y-97119531D01*
X147927766Y-97119542D01*
X147983206Y-97253387D01*
X148050069Y-97353455D01*
X148063700Y-97373854D01*
X148166146Y-97476300D01*
X148286610Y-97556792D01*
X148286611Y-97556792D01*
X148286612Y-97556793D01*
X148340370Y-97579060D01*
X148420462Y-97612235D01*
X148562560Y-97640500D01*
X148562561Y-97640500D01*
X149437439Y-97640500D01*
X149437440Y-97640500D01*
X149579538Y-97612235D01*
X149713390Y-97556792D01*
X149833854Y-97476300D01*
X149936300Y-97373854D01*
X150016792Y-97253390D01*
X150017705Y-97251184D01*
X150018277Y-97250612D01*
X150018509Y-97250179D01*
X150018640Y-97250249D01*
X150057752Y-97211134D01*
X150086074Y-97205500D01*
X151134564Y-97205500D01*
X151134564Y-97205499D01*
X151210989Y-97185021D01*
X151279511Y-97145460D01*
X151335460Y-97089511D01*
X152728896Y-95696075D01*
X152781222Y-95674401D01*
X156469794Y-95674401D01*
X156522120Y-95696075D01*
G37*
%TD.AperFunction*%
%TA.AperFunction,Conductor*%
G36*
X175820389Y-92450824D02*
G01*
X175843523Y-92453865D01*
X175845702Y-92456704D01*
X175857617Y-92465847D01*
X175857912Y-92465966D01*
X175857979Y-92466124D01*
X175858394Y-92466443D01*
X175858395Y-92466444D01*
X175858198Y-92466640D01*
X175864236Y-92480847D01*
X175878011Y-92498791D01*
X175880537Y-92517959D01*
X175880537Y-92565078D01*
X175890409Y-92601920D01*
X175907830Y-92666939D01*
X175907832Y-92666943D01*
X175960554Y-92758260D01*
X175960555Y-92758261D01*
X175960557Y-92758264D01*
X178018185Y-94815892D01*
X180075467Y-96873174D01*
X180097141Y-96925500D01*
X180075467Y-96977826D01*
X180023141Y-96999500D01*
X179934106Y-96999500D01*
X179806818Y-97033606D01*
X179806809Y-97033610D01*
X179692685Y-97099500D01*
X179599500Y-97192685D01*
X179533610Y-97306809D01*
X179533606Y-97306818D01*
X179499500Y-97434105D01*
X179499500Y-97565894D01*
X179533606Y-97693181D01*
X179533610Y-97693190D01*
X179599500Y-97807314D01*
X179692686Y-97900500D01*
X179806814Y-97966392D01*
X179934105Y-98000499D01*
X179934106Y-98000500D01*
X179934108Y-98000500D01*
X180065894Y-98000500D01*
X180065894Y-98000499D01*
X180193186Y-97966392D01*
X180307314Y-97900500D01*
X180400500Y-97807314D01*
X180466392Y-97693186D01*
X180500499Y-97565894D01*
X180500500Y-97565894D01*
X180500500Y-97476859D01*
X180522174Y-97424533D01*
X180574500Y-97402859D01*
X180626826Y-97424533D01*
X183497512Y-100295219D01*
X183519186Y-100347545D01*
X183519186Y-106882720D01*
X183497512Y-106935046D01*
X183445186Y-106956720D01*
X183392860Y-106935046D01*
X183307314Y-106849500D01*
X183193190Y-106783610D01*
X183193181Y-106783606D01*
X183065894Y-106749500D01*
X183065892Y-106749500D01*
X182934108Y-106749500D01*
X182934106Y-106749500D01*
X182806818Y-106783606D01*
X182806809Y-106783610D01*
X182692685Y-106849500D01*
X182664360Y-106877826D01*
X182612034Y-106899500D01*
X181647305Y-106899500D01*
X181594979Y-106877826D01*
X181573305Y-106825500D01*
X181580238Y-106794227D01*
X181598701Y-106754632D01*
X181619259Y-106710545D01*
X181625500Y-106663139D01*
X181625499Y-106336862D01*
X181619259Y-106289455D01*
X181570747Y-106185421D01*
X181537652Y-106152326D01*
X181515978Y-106100000D01*
X181537652Y-106047674D01*
X181570747Y-106014579D01*
X181619259Y-105910545D01*
X181625500Y-105863139D01*
X181625499Y-105536862D01*
X181619259Y-105489455D01*
X181570747Y-105385421D01*
X181537652Y-105352326D01*
X181515978Y-105300000D01*
X181537652Y-105247674D01*
X181570747Y-105214579D01*
X181619259Y-105110545D01*
X181625500Y-105063139D01*
X181625499Y-104736862D01*
X181619259Y-104689455D01*
X181570747Y-104585421D01*
X181537652Y-104552326D01*
X181515978Y-104500000D01*
X181537652Y-104447674D01*
X181570747Y-104414579D01*
X181619259Y-104310545D01*
X181621985Y-104289840D01*
X181650304Y-104240791D01*
X181695352Y-104225500D01*
X181932762Y-104225500D01*
X181932762Y-104225499D01*
X182009187Y-104205021D01*
X182077709Y-104165460D01*
X182133658Y-104109511D01*
X182820681Y-103422488D01*
X182833376Y-103400500D01*
X182860242Y-103353966D01*
X182880720Y-103277541D01*
X182880721Y-103277541D01*
X182880721Y-100972461D01*
X182866235Y-100918398D01*
X182866235Y-100918397D01*
X182861439Y-100900499D01*
X182860243Y-100896035D01*
X182836274Y-100854520D01*
X182820683Y-100827515D01*
X182820682Y-100827514D01*
X182820681Y-100827512D01*
X180277709Y-98284540D01*
X180262304Y-98275646D01*
X180248534Y-98267696D01*
X180209188Y-98244979D01*
X180209183Y-98244977D01*
X180132762Y-98224500D01*
X180132760Y-98224500D01*
X179248321Y-98224500D01*
X179195995Y-98202826D01*
X178297174Y-97304005D01*
X178275500Y-97251679D01*
X178275500Y-96367240D01*
X178271614Y-96352739D01*
X178271613Y-96352736D01*
X178255022Y-96290814D01*
X178215714Y-96222731D01*
X178215462Y-96222294D01*
X178215461Y-96222293D01*
X178215460Y-96222291D01*
X176531103Y-94537934D01*
X176504874Y-94522791D01*
X176481923Y-94509540D01*
X176462582Y-94498373D01*
X176462577Y-94498371D01*
X176386156Y-94477894D01*
X176386154Y-94477894D01*
X175251715Y-94477894D01*
X175199389Y-94456220D01*
X175047174Y-94304005D01*
X175025500Y-94251679D01*
X175025500Y-93248321D01*
X175047174Y-93195995D01*
X175375932Y-92867237D01*
X175715460Y-92527709D01*
X175741983Y-92481769D01*
X175742443Y-92480973D01*
X175749909Y-92475241D01*
X175753265Y-92466925D01*
X175770017Y-92459805D01*
X175787369Y-92446485D01*
X175798054Y-92447889D01*
X175805390Y-92444772D01*
X175820389Y-92450824D01*
G37*
%TD.AperFunction*%
%TA.AperFunction,Conductor*%
G36*
X172406932Y-96404326D02*
G01*
X172416847Y-96403021D01*
X172432173Y-96414781D01*
X172450021Y-96422174D01*
X172453847Y-96431412D01*
X172461781Y-96437500D01*
X172464302Y-96456653D01*
X172471695Y-96474500D01*
X172467868Y-96483737D01*
X172469174Y-96493652D01*
X172457413Y-96508978D01*
X172450021Y-96526826D01*
X172434695Y-96538586D01*
X172368007Y-96577088D01*
X172274822Y-96670273D01*
X172208932Y-96784397D01*
X172208928Y-96784406D01*
X172174822Y-96911693D01*
X172174822Y-97043482D01*
X172208928Y-97170769D01*
X172208932Y-97170778D01*
X172234288Y-97214696D01*
X172274822Y-97284902D01*
X172368008Y-97378088D01*
X172482136Y-97443980D01*
X172609427Y-97478087D01*
X172609428Y-97478088D01*
X172692788Y-97478088D01*
X172745114Y-97499762D01*
X172766788Y-97552088D01*
X172766788Y-97581609D01*
X172800894Y-97708896D01*
X172800898Y-97708905D01*
X172824913Y-97750500D01*
X172866788Y-97823029D01*
X172959974Y-97916215D01*
X173074102Y-97982107D01*
X173201393Y-98016214D01*
X173201394Y-98016215D01*
X173312165Y-98016215D01*
X173364491Y-98037889D01*
X173427826Y-98101224D01*
X173449500Y-98153550D01*
X173449500Y-98539564D01*
X173469976Y-98615981D01*
X173469980Y-98615992D01*
X173470608Y-98617079D01*
X173470609Y-98617080D01*
X173509540Y-98684511D01*
X173928326Y-99103297D01*
X173950000Y-99155623D01*
X173950000Y-101564526D01*
X174075191Y-101528154D01*
X174211111Y-101447771D01*
X174322772Y-101336110D01*
X174322772Y-101336109D01*
X174337131Y-101311831D01*
X174382422Y-101277824D01*
X174400819Y-101275499D01*
X174663138Y-101275499D01*
X174710545Y-101269259D01*
X174814579Y-101220747D01*
X174847674Y-101187652D01*
X174900000Y-101165978D01*
X174952326Y-101187652D01*
X174985421Y-101220747D01*
X175089455Y-101269259D01*
X175136861Y-101275500D01*
X175338034Y-101275499D01*
X175390360Y-101297173D01*
X175412034Y-101349499D01*
X175390360Y-101401824D01*
X175349501Y-101442683D01*
X175283610Y-101556809D01*
X175283606Y-101556818D01*
X175249500Y-101684105D01*
X175249500Y-101815894D01*
X175283606Y-101943181D01*
X175283610Y-101943190D01*
X175343934Y-102047674D01*
X175349500Y-102057314D01*
X175442686Y-102150500D01*
X175556814Y-102216392D01*
X175684105Y-102250499D01*
X175684106Y-102250500D01*
X175684108Y-102250500D01*
X175815894Y-102250500D01*
X175815894Y-102250499D01*
X175902434Y-102227311D01*
X175958585Y-102234703D01*
X175993064Y-102279636D01*
X175985672Y-102335788D01*
X175973912Y-102351115D01*
X175847202Y-102477826D01*
X175794876Y-102499500D01*
X175684106Y-102499500D01*
X175556818Y-102533606D01*
X175556809Y-102533610D01*
X175442685Y-102599500D01*
X175349500Y-102692685D01*
X175283610Y-102806809D01*
X175283606Y-102806818D01*
X175249500Y-102934105D01*
X175249500Y-103065894D01*
X175283606Y-103193181D01*
X175283610Y-103193190D01*
X175347329Y-103303553D01*
X175349500Y-103307314D01*
X175442686Y-103400500D01*
X175556814Y-103466392D01*
X175684105Y-103500499D01*
X175684106Y-103500500D01*
X175684108Y-103500500D01*
X175815894Y-103500500D01*
X175815894Y-103500499D01*
X175943186Y-103466392D01*
X176057314Y-103400500D01*
X176150500Y-103307314D01*
X176216392Y-103193186D01*
X176250499Y-103065894D01*
X176250500Y-103065894D01*
X176250500Y-102955122D01*
X176272174Y-102902796D01*
X176690267Y-102484703D01*
X177129196Y-102045774D01*
X177181519Y-102024102D01*
X177233845Y-102045776D01*
X177252997Y-102078949D01*
X177283606Y-102193181D01*
X177283610Y-102193190D01*
X177310263Y-102239354D01*
X177349500Y-102307314D01*
X177442686Y-102400500D01*
X177556814Y-102466392D01*
X177684105Y-102500499D01*
X177684106Y-102500500D01*
X177684108Y-102500500D01*
X177815894Y-102500500D01*
X177815894Y-102500499D01*
X177902434Y-102477311D01*
X177958586Y-102484703D01*
X177993065Y-102529636D01*
X177985673Y-102585788D01*
X177973913Y-102601115D01*
X174601115Y-105973912D01*
X174548789Y-105995586D01*
X174496463Y-105973912D01*
X174474789Y-105921586D01*
X174477310Y-105902437D01*
X174500499Y-105815894D01*
X174500500Y-105815894D01*
X174500500Y-105684106D01*
X174500499Y-105684105D01*
X174496234Y-105668189D01*
X174466392Y-105556814D01*
X174400500Y-105442686D01*
X174307314Y-105349500D01*
X174267340Y-105326421D01*
X174193190Y-105283610D01*
X174193181Y-105283606D01*
X174065894Y-105249500D01*
X174065892Y-105249500D01*
X173934108Y-105249500D01*
X173934106Y-105249500D01*
X173806818Y-105283606D01*
X173806809Y-105283610D01*
X173692685Y-105349500D01*
X173614360Y-105427826D01*
X173562034Y-105449500D01*
X173297771Y-105449500D01*
X173245445Y-105427826D01*
X173239010Y-105420480D01*
X173234111Y-105414080D01*
X173220747Y-105385421D01*
X173184190Y-105348864D01*
X173181217Y-105344980D01*
X173175084Y-105321984D01*
X173165978Y-105300000D01*
X173167950Y-105295237D01*
X173166622Y-105290255D01*
X173178546Y-105269657D01*
X173187652Y-105247674D01*
X173220747Y-105214579D01*
X173246124Y-105160154D01*
X173260864Y-105139106D01*
X173315459Y-105084511D01*
X173532419Y-104867551D01*
X174416378Y-103983590D01*
X174440400Y-103967545D01*
X174443183Y-103966392D01*
X174443186Y-103966392D01*
X174443188Y-103966390D01*
X174443190Y-103966390D01*
X174494335Y-103936861D01*
X174557314Y-103900500D01*
X174650500Y-103807314D01*
X174716392Y-103693186D01*
X174750499Y-103565894D01*
X174750500Y-103565894D01*
X174750500Y-103434106D01*
X174750499Y-103434105D01*
X174748193Y-103425500D01*
X174716392Y-103306814D01*
X174650500Y-103192686D01*
X174557314Y-103099500D01*
X174499107Y-103065894D01*
X174443190Y-103033610D01*
X174443181Y-103033606D01*
X174315894Y-102999500D01*
X174315892Y-102999500D01*
X174184108Y-102999500D01*
X174184106Y-102999500D01*
X174056818Y-103033606D01*
X174056809Y-103033610D01*
X173942685Y-103099500D01*
X173849500Y-103192685D01*
X173783610Y-103306809D01*
X173783606Y-103306818D01*
X173749500Y-103434105D01*
X173749500Y-103565894D01*
X173783606Y-103693181D01*
X173785465Y-103697668D01*
X173783101Y-103698646D01*
X173789416Y-103746587D01*
X173770262Y-103779764D01*
X173401825Y-104148201D01*
X173349499Y-104169875D01*
X173297173Y-104148201D01*
X173275499Y-104095875D01*
X173275499Y-103936862D01*
X173269259Y-103889456D01*
X173269259Y-103889455D01*
X173220747Y-103785421D01*
X173187652Y-103752326D01*
X173165978Y-103700000D01*
X173187652Y-103647674D01*
X173220747Y-103614579D01*
X173269259Y-103510545D01*
X173275500Y-103463139D01*
X173275499Y-103136862D01*
X173269259Y-103089455D01*
X173220747Y-102985421D01*
X173187652Y-102952326D01*
X173165978Y-102900000D01*
X173187652Y-102847674D01*
X173187808Y-102847518D01*
X173220747Y-102814579D01*
X173269259Y-102710545D01*
X173275500Y-102663139D01*
X173275499Y-102336862D01*
X173269259Y-102289455D01*
X173220747Y-102185421D01*
X173187652Y-102152326D01*
X173165978Y-102100000D01*
X173187652Y-102047674D01*
X173200815Y-102034511D01*
X173220747Y-102014579D01*
X173269259Y-101910545D01*
X173275500Y-101863139D01*
X173275499Y-101612386D01*
X173297173Y-101560061D01*
X173349499Y-101538387D01*
X173370145Y-101541325D01*
X173450000Y-101564525D01*
X173450000Y-99085473D01*
X173324808Y-99121845D01*
X173199169Y-99196148D01*
X173143097Y-99204128D01*
X173097805Y-99170122D01*
X173091256Y-99155728D01*
X173086548Y-99141521D01*
X173086545Y-99141513D01*
X172997573Y-98997268D01*
X172877731Y-98877426D01*
X172733482Y-98788452D01*
X172572608Y-98735144D01*
X172473311Y-98725000D01*
X172450000Y-98725000D01*
X172450000Y-100674999D01*
X172473307Y-100674999D01*
X172473312Y-100674998D01*
X172572608Y-100664855D01*
X172733482Y-100611547D01*
X172837152Y-100547603D01*
X172893065Y-100538581D01*
X172938983Y-100571738D01*
X172950000Y-100610586D01*
X172950000Y-101013110D01*
X172952789Y-101048551D01*
X172983674Y-101154854D01*
X172977459Y-101211149D01*
X172933258Y-101246562D01*
X172912612Y-101249500D01*
X172471545Y-101249500D01*
X172419219Y-101227826D01*
X172239584Y-101048191D01*
X172045913Y-100854520D01*
X172045910Y-100854518D01*
X172045909Y-100854517D01*
X171954814Y-100801923D01*
X171920335Y-100756989D01*
X171927728Y-100700837D01*
X171939487Y-100685512D01*
X171950000Y-100674998D01*
X171950000Y-98725000D01*
X171926693Y-98725000D01*
X171926686Y-98725001D01*
X171827391Y-98735144D01*
X171666517Y-98788452D01*
X171522268Y-98877426D01*
X171402426Y-98997268D01*
X171313450Y-99141520D01*
X171311940Y-99144759D01*
X171270178Y-99183017D01*
X171213595Y-99180540D01*
X171192551Y-99165803D01*
X171128219Y-99101471D01*
X171008126Y-99040281D01*
X171008125Y-99040280D01*
X170908489Y-99024500D01*
X170908488Y-99024500D01*
X170571545Y-99024500D01*
X170519219Y-99002826D01*
X168922174Y-97405781D01*
X168900500Y-97353455D01*
X168900500Y-96474500D01*
X168922174Y-96422174D01*
X168974500Y-96400500D01*
X172397695Y-96400500D01*
X172406932Y-96404326D01*
G37*
%TD.AperFunction*%
%TA.AperFunction,Conductor*%
G36*
X167000030Y-101356174D02*
G01*
X167019181Y-101389345D01*
X167024314Y-101408500D01*
X167033608Y-101443186D01*
X167033610Y-101443190D01*
X167082664Y-101528154D01*
X167099500Y-101557314D01*
X167192686Y-101650500D01*
X167306814Y-101716392D01*
X167434105Y-101750499D01*
X167434106Y-101750500D01*
X167434108Y-101750500D01*
X167565894Y-101750500D01*
X167565894Y-101750499D01*
X167693186Y-101716392D01*
X167807314Y-101650500D01*
X167900500Y-101557314D01*
X167961414Y-101451807D01*
X168006347Y-101417329D01*
X168062500Y-101424722D01*
X168096979Y-101469655D01*
X168099500Y-101488808D01*
X168099500Y-103745684D01*
X168077826Y-103798010D01*
X168025500Y-103819684D01*
X167988500Y-103809770D01*
X167943190Y-103783610D01*
X167943181Y-103783606D01*
X167815894Y-103749500D01*
X167815892Y-103749500D01*
X167684108Y-103749500D01*
X167684106Y-103749500D01*
X167556818Y-103783606D01*
X167556809Y-103783610D01*
X167442685Y-103849500D01*
X167364360Y-103927826D01*
X167312034Y-103949500D01*
X162935387Y-103949500D01*
X162883061Y-103927826D01*
X162861387Y-103875500D01*
X162883061Y-103823174D01*
X162923811Y-103802411D01*
X162951248Y-103798065D01*
X162951261Y-103798062D01*
X163175792Y-103725107D01*
X163386170Y-103617915D01*
X163469105Y-103557659D01*
X162770234Y-102858787D01*
X162812292Y-102847518D01*
X162937708Y-102775110D01*
X163040110Y-102672708D01*
X163112518Y-102547292D01*
X163123787Y-102505233D01*
X163822659Y-103204105D01*
X163882915Y-103121170D01*
X163990107Y-102910792D01*
X164063062Y-102686261D01*
X164063065Y-102686248D01*
X164100000Y-102453053D01*
X164100000Y-102216946D01*
X164063065Y-101983751D01*
X164063062Y-101983738D01*
X163990107Y-101759207D01*
X163882915Y-101548828D01*
X163812562Y-101451996D01*
X163799340Y-101396924D01*
X163828933Y-101348633D01*
X163872429Y-101334500D01*
X166947704Y-101334500D01*
X167000030Y-101356174D01*
G37*
%TD.AperFunction*%
%TA.AperFunction,Conductor*%
G36*
X167414360Y-95696075D02*
G01*
X167492686Y-95774401D01*
X167606814Y-95840293D01*
X167734105Y-95874400D01*
X167734106Y-95874401D01*
X167734108Y-95874401D01*
X167865891Y-95874401D01*
X167865892Y-95874401D01*
X167993186Y-95840293D01*
X167993190Y-95840290D01*
X167997181Y-95838638D01*
X168053818Y-95838638D01*
X168093867Y-95878686D01*
X168099500Y-95907005D01*
X168099500Y-96745684D01*
X168077826Y-96798010D01*
X168025500Y-96819684D01*
X167988500Y-96809770D01*
X167943190Y-96783610D01*
X167943181Y-96783606D01*
X167815894Y-96749500D01*
X167815892Y-96749500D01*
X167684108Y-96749500D01*
X167684106Y-96749500D01*
X167556818Y-96783606D01*
X167556809Y-96783610D01*
X167442685Y-96849500D01*
X167349500Y-96942685D01*
X167283610Y-97056809D01*
X167283606Y-97056818D01*
X167249500Y-97184105D01*
X167249500Y-97294876D01*
X167227826Y-97347202D01*
X167062203Y-97512826D01*
X167009877Y-97534500D01*
X163818406Y-97534500D01*
X163766080Y-97512826D01*
X163748028Y-97483367D01*
X163712549Y-97374173D01*
X163712547Y-97374170D01*
X163712547Y-97374168D01*
X163626760Y-97205801D01*
X163583443Y-97146181D01*
X163515693Y-97052931D01*
X163515692Y-97052930D01*
X163515690Y-97052927D01*
X163382073Y-96919310D01*
X163382070Y-96919307D01*
X163382068Y-96919306D01*
X163229198Y-96808239D01*
X163060824Y-96722449D01*
X162881128Y-96664062D01*
X162881115Y-96664059D01*
X162694482Y-96634500D01*
X162694481Y-96634500D01*
X162505519Y-96634500D01*
X162505518Y-96634500D01*
X162318884Y-96664059D01*
X162318871Y-96664062D01*
X162139175Y-96722449D01*
X161970801Y-96808239D01*
X161817931Y-96919306D01*
X161684306Y-97052931D01*
X161573239Y-97205801D01*
X161487449Y-97374175D01*
X161429062Y-97553871D01*
X161429059Y-97553884D01*
X161399500Y-97740518D01*
X161399500Y-97929481D01*
X161429059Y-98116115D01*
X161429062Y-98116128D01*
X161487449Y-98295824D01*
X161573239Y-98464198D01*
X161683524Y-98615992D01*
X161684310Y-98617073D01*
X161817927Y-98750690D01*
X161970801Y-98861760D01*
X162139168Y-98947547D01*
X162139171Y-98947547D01*
X162139175Y-98947550D01*
X162318871Y-99005937D01*
X162318877Y-99005938D01*
X162318882Y-99005940D01*
X162436067Y-99024500D01*
X162505518Y-99035500D01*
X162505519Y-99035500D01*
X162694482Y-99035500D01*
X162763933Y-99024500D01*
X162881118Y-99005940D01*
X162881125Y-99005937D01*
X162881128Y-99005937D01*
X163060824Y-98947550D01*
X163060826Y-98947548D01*
X163060832Y-98947547D01*
X163229199Y-98861760D01*
X163382073Y-98750690D01*
X163515690Y-98617073D01*
X163626760Y-98464199D01*
X163712547Y-98295832D01*
X163738410Y-98216234D01*
X163748028Y-98186633D01*
X163784811Y-98143566D01*
X163818406Y-98135500D01*
X167204564Y-98135500D01*
X167204564Y-98135499D01*
X167280989Y-98115021D01*
X167349511Y-98075460D01*
X167405460Y-98019511D01*
X167652796Y-97772173D01*
X167705122Y-97750500D01*
X167815894Y-97750500D01*
X167815894Y-97750499D01*
X167943186Y-97716392D01*
X167988500Y-97690229D01*
X168044651Y-97682836D01*
X168089585Y-97717314D01*
X168099500Y-97754315D01*
X168099500Y-99745684D01*
X168077826Y-99798010D01*
X168025500Y-99819684D01*
X167988500Y-99809770D01*
X167943190Y-99783610D01*
X167943181Y-99783606D01*
X167815894Y-99749500D01*
X167815892Y-99749500D01*
X167684108Y-99749500D01*
X167684106Y-99749500D01*
X167556818Y-99783606D01*
X167556809Y-99783610D01*
X167442685Y-99849500D01*
X167364360Y-99927826D01*
X167312034Y-99949500D01*
X160905123Y-99949500D01*
X160852797Y-99927826D01*
X157272174Y-96347203D01*
X157250500Y-96294877D01*
X157250500Y-96184106D01*
X157250499Y-96184105D01*
X157242487Y-96154205D01*
X157216392Y-96056814D01*
X157150500Y-95942686D01*
X157057314Y-95849500D01*
X156993206Y-95812487D01*
X156958727Y-95767553D01*
X156966120Y-95711401D01*
X157011054Y-95676922D01*
X157030206Y-95674401D01*
X167362034Y-95674401D01*
X167414360Y-95696075D01*
G37*
%TD.AperFunction*%
%TA.AperFunction,Conductor*%
G36*
X176057399Y-95550568D02*
G01*
X177202826Y-96695995D01*
X177224500Y-96748321D01*
X177224500Y-97002648D01*
X177202826Y-97054974D01*
X177150500Y-97076648D01*
X177098174Y-97054974D01*
X177087172Y-97040931D01*
X177005074Y-96905125D01*
X176884874Y-96784925D01*
X176739393Y-96696979D01*
X176577109Y-96646410D01*
X176577099Y-96646408D01*
X176506582Y-96640000D01*
X176500000Y-96640000D01*
X176500000Y-98589999D01*
X176506571Y-98589999D01*
X176506583Y-98589998D01*
X176577102Y-98583591D01*
X176577106Y-98583590D01*
X176739393Y-98533020D01*
X176884874Y-98445074D01*
X177005074Y-98324874D01*
X177093020Y-98179393D01*
X177143589Y-98017109D01*
X177143591Y-98017099D01*
X177149999Y-97946582D01*
X177149999Y-97820370D01*
X177171673Y-97768044D01*
X177223998Y-97746369D01*
X177276324Y-97768043D01*
X177282707Y-97775321D01*
X177284537Y-97777706D01*
X177284540Y-97777709D01*
X178666342Y-99159511D01*
X178722291Y-99215460D01*
X178790813Y-99255021D01*
X178867237Y-99275499D01*
X178867238Y-99275500D01*
X178867240Y-99275500D01*
X178981352Y-99275500D01*
X179033678Y-99297174D01*
X179055352Y-99349500D01*
X179033678Y-99401826D01*
X179025522Y-99408872D01*
X179019465Y-99413377D01*
X178985421Y-99429253D01*
X178948505Y-99466168D01*
X178944170Y-99469394D01*
X178921550Y-99475095D01*
X178900000Y-99484022D01*
X178894755Y-99481849D01*
X178889251Y-99483237D01*
X178869226Y-99471275D01*
X178847674Y-99462348D01*
X178814579Y-99429253D01*
X178787256Y-99416512D01*
X178732610Y-99391030D01*
X178723983Y-99387007D01*
X178710546Y-99380741D01*
X178710543Y-99380740D01*
X178675619Y-99376142D01*
X178663139Y-99374500D01*
X178663137Y-99374500D01*
X178336862Y-99374500D01*
X178289456Y-99380740D01*
X178289454Y-99380741D01*
X178185420Y-99429253D01*
X178152326Y-99462348D01*
X178100000Y-99484022D01*
X178047674Y-99462348D01*
X178014579Y-99429253D01*
X177970872Y-99408872D01*
X177910545Y-99380741D01*
X177910543Y-99380740D01*
X177875619Y-99376142D01*
X177863139Y-99374500D01*
X177863137Y-99374500D01*
X177536862Y-99374500D01*
X177489456Y-99380740D01*
X177489454Y-99380741D01*
X177385420Y-99429253D01*
X177352326Y-99462348D01*
X177300000Y-99484022D01*
X177247674Y-99462348D01*
X177214579Y-99429253D01*
X177170872Y-99408872D01*
X177110545Y-99380741D01*
X177110543Y-99380740D01*
X177075619Y-99376142D01*
X177063139Y-99374500D01*
X177063137Y-99374500D01*
X176736862Y-99374500D01*
X176689456Y-99380740D01*
X176689454Y-99380741D01*
X176585420Y-99429253D01*
X176552326Y-99462348D01*
X176500000Y-99484022D01*
X176447674Y-99462348D01*
X176414579Y-99429253D01*
X176370872Y-99408872D01*
X176310545Y-99380741D01*
X176310543Y-99380740D01*
X176275619Y-99376142D01*
X176263139Y-99374500D01*
X176263137Y-99374500D01*
X175936862Y-99374500D01*
X175889456Y-99380740D01*
X175889454Y-99380741D01*
X175785420Y-99429253D01*
X175752326Y-99462348D01*
X175700000Y-99484022D01*
X175647674Y-99462348D01*
X175622174Y-99436848D01*
X175600500Y-99384522D01*
X175600500Y-98567438D01*
X175622174Y-98515112D01*
X175674500Y-98493438D01*
X175712783Y-98504110D01*
X175760606Y-98533020D01*
X175922890Y-98583589D01*
X175922901Y-98583591D01*
X175993421Y-98589999D01*
X176000000Y-98589998D01*
X176000000Y-96640000D01*
X175999999Y-96639999D01*
X175993434Y-96640000D01*
X175993411Y-96640001D01*
X175922897Y-96646408D01*
X175922893Y-96646409D01*
X175760606Y-96696979D01*
X175615125Y-96784925D01*
X175551869Y-96848182D01*
X175499543Y-96869856D01*
X175447217Y-96848182D01*
X175225861Y-96626826D01*
X175204187Y-96574500D01*
X175225861Y-96522174D01*
X175278187Y-96500500D01*
X175315894Y-96500500D01*
X175315894Y-96500499D01*
X175443186Y-96466392D01*
X175557314Y-96400500D01*
X175650500Y-96307314D01*
X175716392Y-96193186D01*
X175750499Y-96065894D01*
X175750500Y-96065894D01*
X175750500Y-95934106D01*
X175750499Y-95934105D01*
X175727829Y-95849500D01*
X175716392Y-95806814D01*
X175650500Y-95692686D01*
X175613034Y-95655220D01*
X175591360Y-95602894D01*
X175613034Y-95550568D01*
X175665360Y-95528894D01*
X176005073Y-95528894D01*
X176057399Y-95550568D01*
G37*
%TD.AperFunction*%
%TA.AperFunction,Conductor*%
G36*
X161773383Y-69032627D02*
G01*
X161821395Y-69047145D01*
X161848137Y-69097071D01*
X161848500Y-69104389D01*
X161848500Y-69306932D01*
X161868977Y-69383353D01*
X161868978Y-69383354D01*
X161868979Y-69383357D01*
X161884096Y-69409540D01*
X161908540Y-69451879D01*
X162222152Y-69765491D01*
X162278101Y-69821440D01*
X162328261Y-69850400D01*
X162342481Y-69858610D01*
X162346623Y-69861001D01*
X162346624Y-69861001D01*
X162346626Y-69861002D01*
X162384836Y-69871240D01*
X162423047Y-69881479D01*
X162423048Y-69881480D01*
X162423050Y-69881480D01*
X162502174Y-69881480D01*
X162689546Y-69881480D01*
X162741872Y-69903154D01*
X164911892Y-72073174D01*
X164933566Y-72125500D01*
X164911892Y-72177826D01*
X164859566Y-72199500D01*
X164413333Y-72199500D01*
X164361007Y-72177826D01*
X164343982Y-72160801D01*
X164238894Y-72109427D01*
X164170764Y-72099500D01*
X164170760Y-72099500D01*
X163079240Y-72099500D01*
X163079235Y-72099500D01*
X163011106Y-72109427D01*
X163011105Y-72109427D01*
X162906017Y-72160801D01*
X162823301Y-72243517D01*
X162771927Y-72348605D01*
X162771927Y-72348606D01*
X162762000Y-72416735D01*
X162762000Y-72783264D01*
X162771927Y-72851393D01*
X162771927Y-72851394D01*
X162823301Y-72956482D01*
X162823302Y-72956483D01*
X162906017Y-73039198D01*
X163011107Y-73090573D01*
X163079240Y-73100500D01*
X163079246Y-73100500D01*
X164170754Y-73100500D01*
X164170760Y-73100500D01*
X164238893Y-73090573D01*
X164343983Y-73039198D01*
X164361007Y-73022174D01*
X164413333Y-73000500D01*
X164525500Y-73000500D01*
X164577826Y-73022174D01*
X164599500Y-73074500D01*
X164599500Y-74177131D01*
X164577826Y-74229457D01*
X164525500Y-74251131D01*
X164473174Y-74229457D01*
X164459019Y-74209631D01*
X164426698Y-74143517D01*
X164343982Y-74060801D01*
X164238894Y-74009427D01*
X164170764Y-73999500D01*
X164170760Y-73999500D01*
X163079240Y-73999500D01*
X163079235Y-73999500D01*
X163011106Y-74009427D01*
X163011105Y-74009427D01*
X162906017Y-74060801D01*
X162823301Y-74143517D01*
X162771927Y-74248605D01*
X162771927Y-74248606D01*
X162762000Y-74316735D01*
X162762000Y-74683264D01*
X162771927Y-74751393D01*
X162771927Y-74751394D01*
X162823301Y-74856482D01*
X162823302Y-74856483D01*
X162906017Y-74939198D01*
X163011107Y-74990573D01*
X163079240Y-75000500D01*
X163079246Y-75000500D01*
X164170754Y-75000500D01*
X164170760Y-75000500D01*
X164238893Y-74990573D01*
X164343983Y-74939198D01*
X164426698Y-74856483D01*
X164478073Y-74751393D01*
X164488000Y-74683260D01*
X164488000Y-74683259D01*
X164488386Y-74680610D01*
X164489771Y-74680811D01*
X164513304Y-74633903D01*
X164567058Y-74616063D01*
X164617682Y-74641459D01*
X164625801Y-74652870D01*
X164679517Y-74745909D01*
X164679518Y-74745910D01*
X164679520Y-74745913D01*
X168077826Y-78144219D01*
X168099500Y-78196544D01*
X168099500Y-94840797D01*
X168077826Y-94893123D01*
X168025500Y-94914797D01*
X167997183Y-94909165D01*
X167993181Y-94907507D01*
X167865891Y-94873400D01*
X167864835Y-94873261D01*
X167864370Y-94872992D01*
X167861207Y-94872145D01*
X167861434Y-94871297D01*
X167815788Y-94844938D01*
X167800500Y-94799895D01*
X167800500Y-78270436D01*
X167800499Y-78270435D01*
X167780022Y-78194014D01*
X167780020Y-78194009D01*
X167748295Y-78139060D01*
X167740460Y-78125489D01*
X167684511Y-78069540D01*
X167649801Y-78049500D01*
X167615990Y-78029979D01*
X167615985Y-78029977D01*
X167539564Y-78009500D01*
X167539562Y-78009500D01*
X157539562Y-78009500D01*
X157460438Y-78009500D01*
X157460436Y-78009500D01*
X157384014Y-78029977D01*
X157384009Y-78029979D01*
X157315488Y-78069540D01*
X157259540Y-78125488D01*
X157219979Y-78194009D01*
X157219977Y-78194014D01*
X157199500Y-78270435D01*
X157199500Y-94313034D01*
X157177826Y-94365360D01*
X157125500Y-94387034D01*
X157073174Y-94365360D01*
X157072174Y-94364360D01*
X157050500Y-94312034D01*
X157050500Y-88295436D01*
X157050499Y-88295435D01*
X157030022Y-88219014D01*
X157030020Y-88219009D01*
X156990459Y-88150488D01*
X153074028Y-84234057D01*
X153052354Y-84181731D01*
X153060420Y-84148135D01*
X153096966Y-84076410D01*
X153112547Y-84045832D01*
X153112550Y-84045824D01*
X153170937Y-83866128D01*
X153170937Y-83866125D01*
X153170940Y-83866118D01*
X153200500Y-83679481D01*
X153200500Y-83490519D01*
X153170940Y-83303882D01*
X153170938Y-83303877D01*
X153170937Y-83303871D01*
X153112550Y-83124175D01*
X153112547Y-83124171D01*
X153112547Y-83124168D01*
X153026760Y-82955801D01*
X152915690Y-82802927D01*
X152782073Y-82669310D01*
X152782070Y-82669307D01*
X152782068Y-82669306D01*
X152629198Y-82558239D01*
X152460824Y-82472449D01*
X152281128Y-82414062D01*
X152281115Y-82414059D01*
X152094482Y-82384500D01*
X152094481Y-82384500D01*
X151905519Y-82384500D01*
X151905518Y-82384500D01*
X151718884Y-82414059D01*
X151718871Y-82414062D01*
X151539175Y-82472449D01*
X151370801Y-82558239D01*
X151217931Y-82669306D01*
X151084306Y-82802931D01*
X150973239Y-82955801D01*
X150887449Y-83124175D01*
X150829062Y-83303871D01*
X150829059Y-83303884D01*
X150799500Y-83490518D01*
X150799500Y-83679481D01*
X150829059Y-83866115D01*
X150829062Y-83866128D01*
X150887449Y-84045824D01*
X150973239Y-84214198D01*
X151043696Y-84311174D01*
X151084310Y-84367073D01*
X151217927Y-84500690D01*
X151370801Y-84611760D01*
X151539168Y-84697547D01*
X151539171Y-84697547D01*
X151539175Y-84697550D01*
X151718871Y-84755937D01*
X151718877Y-84755938D01*
X151718882Y-84755940D01*
X151843306Y-84775646D01*
X151905518Y-84785500D01*
X151905519Y-84785500D01*
X152094482Y-84785500D01*
X152141140Y-84778110D01*
X152281118Y-84755940D01*
X152281125Y-84755937D01*
X152281128Y-84755937D01*
X152460826Y-84697549D01*
X152460827Y-84697549D01*
X152460829Y-84697547D01*
X152460832Y-84697547D01*
X152563135Y-84645419D01*
X152619598Y-84640976D01*
X152649057Y-84659028D01*
X156427826Y-88437797D01*
X156449500Y-88490123D01*
X156449500Y-94312034D01*
X156427826Y-94364360D01*
X156349500Y-94442685D01*
X156283610Y-94556809D01*
X156283606Y-94556818D01*
X156249500Y-94684105D01*
X156249500Y-94815894D01*
X156283606Y-94943181D01*
X156283611Y-94943192D01*
X156294701Y-94962400D01*
X156302095Y-95018553D01*
X156267617Y-95063486D01*
X156230616Y-95073401D01*
X152586535Y-95073401D01*
X152510113Y-95093878D01*
X152510108Y-95093880D01*
X152478024Y-95112405D01*
X152441587Y-95133441D01*
X150992203Y-96582826D01*
X150939877Y-96604500D01*
X150086074Y-96604500D01*
X150033748Y-96582826D01*
X150022487Y-96568351D01*
X150019752Y-96563757D01*
X150016792Y-96556610D01*
X150004934Y-96538863D01*
X150003951Y-96537212D01*
X150000135Y-96510940D01*
X149994960Y-96484925D01*
X149996107Y-96483208D01*
X149995810Y-96481163D01*
X150011686Y-96459891D01*
X150023167Y-96442707D01*
X150021965Y-96441242D01*
X150024775Y-96438936D01*
X150168936Y-96294775D01*
X150168937Y-96294773D01*
X150282206Y-96125252D01*
X150360225Y-95936898D01*
X150360227Y-95936891D01*
X150370549Y-95885000D01*
X149375278Y-95885000D01*
X149419333Y-95808694D01*
X149450000Y-95694244D01*
X149450000Y-95575756D01*
X149419333Y-95461306D01*
X149375278Y-95385000D01*
X150370549Y-95385000D01*
X150370549Y-95384999D01*
X150360227Y-95333108D01*
X150360225Y-95333101D01*
X150282206Y-95144747D01*
X150168937Y-94975226D01*
X150168936Y-94975225D01*
X150024771Y-94831061D01*
X150021959Y-94828753D01*
X150023164Y-94827284D01*
X149994960Y-94785077D01*
X150006007Y-94729529D01*
X150016792Y-94713390D01*
X150072235Y-94579538D01*
X150100500Y-94437440D01*
X150100500Y-94292560D01*
X150072235Y-94150462D01*
X150016792Y-94016610D01*
X149954655Y-93923617D01*
X149943607Y-93868070D01*
X149975072Y-93820978D01*
X149983687Y-93815221D01*
X150044552Y-93774552D01*
X150088867Y-93708231D01*
X150100500Y-93649748D01*
X150100500Y-92540252D01*
X150088867Y-92481769D01*
X150078948Y-92466925D01*
X150066229Y-92447889D01*
X150044552Y-92415448D01*
X149995632Y-92382760D01*
X149978232Y-92371133D01*
X149978233Y-92371133D01*
X149948989Y-92365316D01*
X149919748Y-92359500D01*
X148080252Y-92359500D01*
X148051010Y-92365316D01*
X148021767Y-92371133D01*
X147955449Y-92415447D01*
X147955447Y-92415449D01*
X147911133Y-92481767D01*
X147899500Y-92540253D01*
X147899500Y-92885500D01*
X147877826Y-92937826D01*
X147825500Y-92959500D01*
X145683476Y-92959500D01*
X145631150Y-92937826D01*
X145617542Y-92919095D01*
X145598529Y-92881782D01*
X145598529Y-92881781D01*
X145503220Y-92786472D01*
X145440904Y-92754720D01*
X145404122Y-92711653D01*
X145400500Y-92688786D01*
X145400500Y-87966946D01*
X150500000Y-87966946D01*
X150500000Y-88203053D01*
X150536934Y-88436248D01*
X150536937Y-88436261D01*
X150609892Y-88660792D01*
X150717082Y-88871166D01*
X150777340Y-88954105D01*
X151476212Y-88255233D01*
X151487482Y-88297292D01*
X151559890Y-88422708D01*
X151662292Y-88525110D01*
X151787708Y-88597518D01*
X151829765Y-88608787D01*
X151130893Y-89307658D01*
X151213833Y-89367917D01*
X151424207Y-89475107D01*
X151648738Y-89548062D01*
X151648751Y-89548065D01*
X151881946Y-89585000D01*
X152118054Y-89585000D01*
X152351248Y-89548065D01*
X152351261Y-89548062D01*
X152575792Y-89475107D01*
X152786170Y-89367915D01*
X152869105Y-89307659D01*
X152170234Y-88608787D01*
X152212292Y-88597518D01*
X152337708Y-88525110D01*
X152440110Y-88422708D01*
X152512518Y-88297292D01*
X152523787Y-88255233D01*
X153222659Y-88954105D01*
X153282915Y-88871170D01*
X153390107Y-88660792D01*
X153463062Y-88436261D01*
X153463065Y-88436248D01*
X153500000Y-88203053D01*
X153500000Y-87966946D01*
X153463065Y-87733751D01*
X153463062Y-87733738D01*
X153390107Y-87509207D01*
X153282917Y-87298833D01*
X153222658Y-87215893D01*
X152523787Y-87914764D01*
X152512518Y-87872708D01*
X152440110Y-87747292D01*
X152337708Y-87644890D01*
X152212292Y-87572482D01*
X152170232Y-87561212D01*
X152869105Y-86862340D01*
X152869106Y-86862340D01*
X152786166Y-86802082D01*
X152575792Y-86694892D01*
X152351261Y-86621937D01*
X152351248Y-86621934D01*
X152118054Y-86585000D01*
X151881946Y-86585000D01*
X151648751Y-86621934D01*
X151648738Y-86621937D01*
X151424207Y-86694892D01*
X151213828Y-86802084D01*
X151130893Y-86862339D01*
X151130893Y-86862340D01*
X151829765Y-87561212D01*
X151787708Y-87572482D01*
X151662292Y-87644890D01*
X151559890Y-87747292D01*
X151487482Y-87872708D01*
X151476212Y-87914765D01*
X150777340Y-87215893D01*
X150777339Y-87215893D01*
X150717084Y-87298828D01*
X150609892Y-87509207D01*
X150536937Y-87733738D01*
X150536934Y-87733751D01*
X150500000Y-87966946D01*
X145400500Y-87966946D01*
X145400500Y-86582045D01*
X145422174Y-86529719D01*
X157859174Y-74092719D01*
X157911500Y-74071045D01*
X157963826Y-74092719D01*
X158090326Y-74219219D01*
X158112000Y-74271545D01*
X158112000Y-74608488D01*
X158127780Y-74708125D01*
X158127781Y-74708126D01*
X158188970Y-74828218D01*
X158188972Y-74828220D01*
X158284280Y-74923528D01*
X158404374Y-74984719D01*
X158504011Y-75000500D01*
X158504012Y-75000500D01*
X159070989Y-75000500D01*
X159133671Y-74990572D01*
X159170626Y-74984719D01*
X159290720Y-74923528D01*
X159386028Y-74828220D01*
X159391807Y-74816876D01*
X159405042Y-74790905D01*
X159448109Y-74754122D01*
X159470976Y-74750500D01*
X160450297Y-74750500D01*
X160502623Y-74772174D01*
X160516777Y-74791998D01*
X160548302Y-74856483D01*
X160631017Y-74939198D01*
X160736107Y-74990573D01*
X160804240Y-75000500D01*
X160804246Y-75000500D01*
X161895754Y-75000500D01*
X161895760Y-75000500D01*
X161963893Y-74990573D01*
X162068983Y-74939198D01*
X162151698Y-74856483D01*
X162203073Y-74751393D01*
X162213000Y-74683260D01*
X162213000Y-74316740D01*
X162210917Y-74302445D01*
X162224817Y-74247542D01*
X162246478Y-74228077D01*
X162264056Y-74217682D01*
X162380182Y-74101556D01*
X162463781Y-73960199D01*
X162509599Y-73802493D01*
X162509796Y-73800000D01*
X161424000Y-73800000D01*
X161371674Y-73778326D01*
X161350000Y-73726000D01*
X161350000Y-73374000D01*
X161371674Y-73321674D01*
X161424000Y-73300000D01*
X162509796Y-73300000D01*
X162509599Y-73297506D01*
X162463781Y-73139800D01*
X162380182Y-72998443D01*
X162264056Y-72882317D01*
X162246474Y-72871919D01*
X162212469Y-72826626D01*
X162210917Y-72797554D01*
X162212999Y-72783264D01*
X162213000Y-72783260D01*
X162213000Y-72416740D01*
X162203073Y-72348607D01*
X162151698Y-72243517D01*
X162068983Y-72160802D01*
X162068982Y-72160801D01*
X161963894Y-72109427D01*
X161895764Y-72099500D01*
X161895760Y-72099500D01*
X160804240Y-72099500D01*
X160804235Y-72099500D01*
X160736106Y-72109427D01*
X160736105Y-72109427D01*
X160631017Y-72160801D01*
X160613994Y-72177825D01*
X160561668Y-72199499D01*
X160484771Y-72199499D01*
X160382916Y-72226791D01*
X160382911Y-72226793D01*
X160291586Y-72279520D01*
X160217018Y-72354089D01*
X159888825Y-72682281D01*
X159836499Y-72703955D01*
X159784173Y-72682281D01*
X159762499Y-72629955D01*
X159762499Y-72526693D01*
X159762498Y-72526687D01*
X159752355Y-72427391D01*
X159699047Y-72266517D01*
X159610073Y-72122268D01*
X159490231Y-72002426D01*
X159345982Y-71913452D01*
X159185108Y-71860144D01*
X159085811Y-71850000D01*
X159037500Y-71850000D01*
X159037500Y-72726000D01*
X159015826Y-72778326D01*
X158963500Y-72800000D01*
X158611500Y-72800000D01*
X158559174Y-72778326D01*
X158537500Y-72726000D01*
X158537500Y-71850000D01*
X158537499Y-71849999D01*
X158489192Y-71850000D01*
X158489186Y-71850001D01*
X158393520Y-71859773D01*
X158389691Y-71858626D01*
X158386000Y-71860156D01*
X158363052Y-71850651D01*
X158339262Y-71843528D01*
X158337365Y-71840011D01*
X158333674Y-71838482D01*
X158324169Y-71815537D01*
X158312383Y-71793676D01*
X158312000Y-71786156D01*
X158312000Y-71785045D01*
X158333674Y-71732719D01*
X160673174Y-69393219D01*
X160725500Y-69371545D01*
X160777826Y-69393219D01*
X160799500Y-69445545D01*
X160799500Y-69994876D01*
X160777826Y-70047202D01*
X160597202Y-70227826D01*
X160544876Y-70249500D01*
X160434106Y-70249500D01*
X160306818Y-70283606D01*
X160306809Y-70283610D01*
X160192685Y-70349500D01*
X160099500Y-70442685D01*
X160033610Y-70556809D01*
X160033606Y-70556818D01*
X159999500Y-70684105D01*
X159999500Y-70815894D01*
X160033606Y-70943181D01*
X160033610Y-70943190D01*
X160057427Y-70984442D01*
X160099500Y-71057314D01*
X160192686Y-71150500D01*
X160306814Y-71216392D01*
X160434105Y-71250499D01*
X160434106Y-71250500D01*
X160434108Y-71250500D01*
X160565894Y-71250500D01*
X160565894Y-71250499D01*
X160693186Y-71216392D01*
X160807314Y-71150500D01*
X160900500Y-71057314D01*
X160966392Y-70943186D01*
X161000499Y-70815894D01*
X161000500Y-70815894D01*
X161000500Y-70705122D01*
X161022174Y-70652796D01*
X161156784Y-70518186D01*
X161340460Y-70334511D01*
X161362744Y-70295913D01*
X161380021Y-70265989D01*
X161400499Y-70189564D01*
X161400500Y-70189564D01*
X161400500Y-69104500D01*
X161422174Y-69052174D01*
X161474500Y-69030500D01*
X161773383Y-69030500D01*
X161773383Y-69032627D01*
G37*
%TD.AperFunction*%
%TA.AperFunction,Conductor*%
G36*
X171004000Y-89589000D02*
G01*
X171606693Y-89589000D01*
X171801643Y-89558123D01*
X171801656Y-89558120D01*
X171989363Y-89497130D01*
X171989364Y-89497130D01*
X172165240Y-89407515D01*
X172165241Y-89407515D01*
X172324921Y-89291501D01*
X172324931Y-89291493D01*
X172464493Y-89151931D01*
X172466381Y-89149720D01*
X172467346Y-89150544D01*
X172468639Y-89149750D01*
X172470622Y-89144706D01*
X172492218Y-89135293D01*
X172512302Y-89122979D01*
X172517572Y-89124242D01*
X172522542Y-89122077D01*
X172544470Y-89130693D01*
X172567378Y-89136187D01*
X172570211Y-89140807D01*
X172575256Y-89142790D01*
X172583904Y-89163140D01*
X172596983Y-89184470D01*
X172597885Y-89194710D01*
X172597897Y-89195365D01*
X172597897Y-89219562D01*
X172598372Y-89221336D01*
X172598488Y-89227635D01*
X172598422Y-89227802D01*
X172598500Y-89228990D01*
X172598500Y-89538507D01*
X172618977Y-89614929D01*
X172623754Y-89623201D01*
X172623755Y-89623207D01*
X172623757Y-89623207D01*
X172658540Y-89683454D01*
X172833260Y-89858174D01*
X172854934Y-89910500D01*
X172833260Y-89962826D01*
X172780934Y-89984500D01*
X172655582Y-89984500D01*
X172461176Y-90015290D01*
X172461163Y-90015293D01*
X172273980Y-90076113D01*
X172098595Y-90165475D01*
X171939358Y-90281168D01*
X171800168Y-90420358D01*
X171684475Y-90579595D01*
X171595113Y-90754980D01*
X171534293Y-90942163D01*
X171534290Y-90942176D01*
X171503500Y-91136582D01*
X171503500Y-91333417D01*
X171534290Y-91527823D01*
X171534293Y-91527836D01*
X171595113Y-91715019D01*
X171684475Y-91890404D01*
X171787591Y-92032331D01*
X171800172Y-92049646D01*
X171939354Y-92188828D01*
X172098595Y-92304524D01*
X172273975Y-92393884D01*
X172273977Y-92393884D01*
X172273980Y-92393886D01*
X172461163Y-92454706D01*
X172461169Y-92454707D01*
X172461174Y-92454709D01*
X172590780Y-92475236D01*
X172655582Y-92485500D01*
X172655583Y-92485500D01*
X172852417Y-92485500D01*
X172909206Y-92476505D01*
X172964276Y-92489726D01*
X172993870Y-92538017D01*
X172980649Y-92593089D01*
X172973107Y-92601920D01*
X171815489Y-93759540D01*
X171009540Y-94565488D01*
X170969979Y-94634009D01*
X170969977Y-94634014D01*
X170949500Y-94710435D01*
X170949500Y-94812034D01*
X170927826Y-94864360D01*
X170849500Y-94942685D01*
X170783610Y-95056809D01*
X170783606Y-95056818D01*
X170749500Y-95184105D01*
X170749500Y-95315894D01*
X170783606Y-95443181D01*
X170783610Y-95443190D01*
X170809770Y-95488500D01*
X170817163Y-95544653D01*
X170782684Y-95589586D01*
X170745684Y-95599500D01*
X168974500Y-95599500D01*
X168922174Y-95577826D01*
X168900500Y-95525500D01*
X168900500Y-89182848D01*
X168922174Y-89130522D01*
X168974500Y-89108848D01*
X169026826Y-89130522D01*
X169034368Y-89139353D01*
X169043501Y-89151924D01*
X169043507Y-89151931D01*
X169183069Y-89291493D01*
X169183078Y-89291501D01*
X169342758Y-89407515D01*
X169518635Y-89497130D01*
X169706343Y-89558120D01*
X169706356Y-89558123D01*
X169901307Y-89589000D01*
X170504000Y-89589000D01*
X170504000Y-88768012D01*
X170561007Y-88800925D01*
X170688174Y-88835000D01*
X170819826Y-88835000D01*
X170946993Y-88800925D01*
X171004000Y-88768012D01*
X171004000Y-89589000D01*
G37*
%TD.AperFunction*%
%TA.AperFunction,Conductor*%
G36*
X174702826Y-91826797D02*
G01*
X174724500Y-91879123D01*
X174724500Y-92001679D01*
X174702826Y-92054005D01*
X174034540Y-92722290D01*
X173994979Y-92790811D01*
X173994977Y-92790816D01*
X173974500Y-92867237D01*
X173974500Y-94632762D01*
X173994977Y-94709183D01*
X173994979Y-94709188D01*
X174018250Y-94749494D01*
X174018251Y-94749496D01*
X174018254Y-94749500D01*
X174034540Y-94777709D01*
X174034541Y-94777710D01*
X174729115Y-95472284D01*
X174727246Y-95474152D01*
X174751315Y-95515837D01*
X174736660Y-95570545D01*
X174687612Y-95598866D01*
X174677949Y-95599500D01*
X171754316Y-95599500D01*
X171701990Y-95577826D01*
X171680316Y-95525500D01*
X171690230Y-95488500D01*
X171699592Y-95472284D01*
X171716392Y-95443186D01*
X171750499Y-95315894D01*
X171750500Y-95315894D01*
X171750500Y-95184106D01*
X171750499Y-95184105D01*
X171745563Y-95165685D01*
X171716392Y-95056814D01*
X171650500Y-94942686D01*
X171618718Y-94910904D01*
X171597044Y-94858578D01*
X171618718Y-94806252D01*
X171915431Y-94509540D01*
X172240460Y-94184511D01*
X174598174Y-91826797D01*
X174650500Y-91805123D01*
X174702826Y-91826797D01*
G37*
%TD.AperFunction*%
%TA.AperFunction,Conductor*%
G36*
X180386780Y-87223400D02*
G01*
X180394214Y-87221922D01*
X180412160Y-87233913D01*
X180432104Y-87242174D01*
X180441304Y-87253385D01*
X180455448Y-87274552D01*
X180475027Y-87287634D01*
X180524927Y-87320978D01*
X180556392Y-87368071D01*
X180545343Y-87423618D01*
X180483206Y-87516612D01*
X180427766Y-87650457D01*
X180427763Y-87650468D01*
X180399500Y-87792560D01*
X180399500Y-87937442D01*
X180399856Y-87941055D01*
X180397433Y-87941293D01*
X180387700Y-87989736D01*
X180378577Y-88000830D01*
X177249392Y-91130016D01*
X177197066Y-91151690D01*
X177086296Y-91151690D01*
X176959008Y-91185796D01*
X176958999Y-91185800D01*
X176844875Y-91251690D01*
X176807863Y-91288703D01*
X176755537Y-91310377D01*
X176703211Y-91288703D01*
X176681537Y-91236377D01*
X176681537Y-89190494D01*
X176703211Y-89138168D01*
X176755537Y-89116494D01*
X176807863Y-89138168D01*
X176837268Y-89167573D01*
X176981517Y-89256547D01*
X177142391Y-89309855D01*
X177241689Y-89319999D01*
X177241690Y-89319999D01*
X177790000Y-89319999D01*
X177838307Y-89319999D01*
X177838312Y-89319998D01*
X177937608Y-89309855D01*
X178098482Y-89256547D01*
X178242731Y-89167573D01*
X178362573Y-89047731D01*
X178451547Y-88903482D01*
X178504855Y-88742608D01*
X178514999Y-88643311D01*
X178515000Y-88643309D01*
X178515000Y-88620000D01*
X177790000Y-88620000D01*
X177790000Y-89319999D01*
X177241690Y-89319999D01*
X177289999Y-89319998D01*
X177290000Y-89319998D01*
X177290000Y-88444000D01*
X177311674Y-88391674D01*
X177364000Y-88370000D01*
X177540000Y-88370000D01*
X177540000Y-88194000D01*
X177561674Y-88141674D01*
X177614000Y-88120000D01*
X178514999Y-88120000D01*
X178514999Y-88096693D01*
X178514998Y-88096687D01*
X178504855Y-87997391D01*
X178451547Y-87836517D01*
X178362573Y-87692268D01*
X178242731Y-87572426D01*
X178098484Y-87483454D01*
X178095243Y-87481942D01*
X178056983Y-87440181D01*
X178059457Y-87383598D01*
X178074193Y-87362554D01*
X178138528Y-87298220D01*
X178150587Y-87274553D01*
X178157542Y-87260905D01*
X178200609Y-87224122D01*
X178223476Y-87220500D01*
X180379778Y-87220500D01*
X180386780Y-87223400D01*
G37*
%TD.AperFunction*%
%TA.AperFunction,Conductor*%
G36*
X167089326Y-72832495D02*
G01*
X173523097Y-79266266D01*
X173544771Y-79318592D01*
X173523097Y-79370918D01*
X173470771Y-79392592D01*
X173427275Y-79378459D01*
X173409405Y-79365475D01*
X173234019Y-79276113D01*
X173046836Y-79215293D01*
X173046823Y-79215290D01*
X172852418Y-79184500D01*
X172852417Y-79184500D01*
X172655583Y-79184500D01*
X172655582Y-79184500D01*
X172461176Y-79215290D01*
X172461163Y-79215293D01*
X172273980Y-79276113D01*
X172098595Y-79365475D01*
X171939358Y-79481168D01*
X171800168Y-79620358D01*
X171684475Y-79779595D01*
X171595113Y-79954980D01*
X171534293Y-80142163D01*
X171534290Y-80142176D01*
X171503500Y-80336582D01*
X171503500Y-80533417D01*
X171534290Y-80727823D01*
X171534293Y-80727836D01*
X171595113Y-80915019D01*
X171657066Y-81036611D01*
X171684476Y-81090405D01*
X171800172Y-81249646D01*
X171939354Y-81388828D01*
X172098595Y-81504524D01*
X172273975Y-81593884D01*
X172273977Y-81593884D01*
X172273980Y-81593886D01*
X172461163Y-81654706D01*
X172461169Y-81654707D01*
X172461174Y-81654709D01*
X172590780Y-81675236D01*
X172655582Y-81685500D01*
X172655583Y-81685500D01*
X172852418Y-81685500D01*
X172901019Y-81677802D01*
X173046826Y-81654709D01*
X173046833Y-81654706D01*
X173046836Y-81654706D01*
X173234019Y-81593886D01*
X173234019Y-81593885D01*
X173234025Y-81593884D01*
X173409405Y-81504524D01*
X173568646Y-81388828D01*
X173707828Y-81249646D01*
X173823524Y-81090405D01*
X173912884Y-80915025D01*
X173942675Y-80823339D01*
X173973706Y-80727836D01*
X173973706Y-80727833D01*
X173973709Y-80727826D01*
X174004500Y-80533417D01*
X174004500Y-80336583D01*
X173973709Y-80142174D01*
X173973707Y-80142169D01*
X173973706Y-80142163D01*
X173912886Y-79954980D01*
X173912884Y-79954977D01*
X173912884Y-79954975D01*
X173823524Y-79779595D01*
X173817157Y-79770832D01*
X173810540Y-79761724D01*
X173797318Y-79706652D01*
X173826911Y-79658361D01*
X173881983Y-79645139D01*
X173922733Y-79665902D01*
X174702826Y-80445995D01*
X174724500Y-80498321D01*
X174724500Y-90402480D01*
X174702826Y-90454806D01*
X174650500Y-90476480D01*
X174598174Y-90454806D01*
X173852917Y-89709549D01*
X173831243Y-89657223D01*
X173852917Y-89604897D01*
X173872814Y-89585000D01*
X173900500Y-89557314D01*
X173966392Y-89443186D01*
X174000499Y-89315894D01*
X174000500Y-89315894D01*
X174000500Y-89184106D01*
X174000499Y-89184105D01*
X173996069Y-89167573D01*
X173966392Y-89056814D01*
X173900500Y-88942686D01*
X173822174Y-88864360D01*
X173800500Y-88812034D01*
X173800500Y-86041436D01*
X173800499Y-86041435D01*
X173780022Y-85965014D01*
X173780020Y-85965009D01*
X173762178Y-85934106D01*
X173740460Y-85896489D01*
X173684511Y-85840540D01*
X172062676Y-84218705D01*
X172041002Y-84166379D01*
X172062676Y-84114053D01*
X172073891Y-84104850D01*
X172076965Y-84102796D01*
X172116458Y-84076408D01*
X172249408Y-83943458D01*
X172353867Y-83787125D01*
X172425819Y-83613417D01*
X172462500Y-83429010D01*
X172462500Y-83240990D01*
X172425819Y-83056583D01*
X172353867Y-82882875D01*
X172249408Y-82726542D01*
X172116458Y-82593592D01*
X172063550Y-82558240D01*
X171960122Y-82489131D01*
X171786421Y-82417182D01*
X171786411Y-82417179D01*
X171662921Y-82392616D01*
X171602010Y-82380500D01*
X169905990Y-82380500D01*
X169853713Y-82390898D01*
X169721588Y-82417179D01*
X169721578Y-82417182D01*
X169547877Y-82489131D01*
X169391545Y-82593589D01*
X169258589Y-82726545D01*
X169154131Y-82882877D01*
X169082182Y-83056578D01*
X169082179Y-83056588D01*
X169068737Y-83124168D01*
X169049950Y-83218621D01*
X169047078Y-83233058D01*
X169015612Y-83280150D01*
X168960063Y-83291199D01*
X168912971Y-83259733D01*
X168900500Y-83218621D01*
X168900500Y-77947271D01*
X168900499Y-77947270D01*
X168873208Y-77845417D01*
X168873207Y-77845413D01*
X168820480Y-77754087D01*
X168745913Y-77679520D01*
X166442718Y-75376325D01*
X166421044Y-75323999D01*
X166442718Y-75271673D01*
X166495044Y-75249999D01*
X166585807Y-75249999D01*
X166585812Y-75249998D01*
X166685108Y-75239855D01*
X166845982Y-75186547D01*
X166990231Y-75097573D01*
X167110073Y-74977731D01*
X167199047Y-74833482D01*
X167252355Y-74672608D01*
X167262499Y-74573311D01*
X167262500Y-74573309D01*
X167262500Y-74550000D01*
X166361500Y-74550000D01*
X166309174Y-74528326D01*
X166287500Y-74476000D01*
X166287500Y-74124000D01*
X166309174Y-74071674D01*
X166361500Y-74050000D01*
X167262499Y-74050000D01*
X167262499Y-74026693D01*
X167262498Y-74026687D01*
X167252355Y-73927391D01*
X167199047Y-73766517D01*
X167110073Y-73622268D01*
X166990231Y-73502426D01*
X166845984Y-73413454D01*
X166842743Y-73411942D01*
X166804483Y-73370181D01*
X166806957Y-73313598D01*
X166821693Y-73292554D01*
X166886028Y-73228220D01*
X166947219Y-73108126D01*
X166963000Y-73008488D01*
X166963000Y-72884821D01*
X166984674Y-72832495D01*
X167037000Y-72810821D01*
X167089326Y-72832495D01*
G37*
%TD.AperFunction*%
%TA.AperFunction,Conductor*%
G36*
X169026826Y-85899052D02*
G01*
X169047077Y-85936939D01*
X169059075Y-85997259D01*
X169082179Y-86113411D01*
X169082182Y-86113421D01*
X169154131Y-86287122D01*
X169242583Y-86419500D01*
X169258592Y-86443458D01*
X169391542Y-86576408D01*
X169547875Y-86680867D01*
X169721583Y-86752819D01*
X169905990Y-86789500D01*
X171252877Y-86789500D01*
X171305203Y-86811174D01*
X171448703Y-86954674D01*
X171470377Y-87007000D01*
X171448703Y-87059326D01*
X171396377Y-87081000D01*
X171004000Y-87081000D01*
X171004000Y-87901988D01*
X170946993Y-87869075D01*
X170819826Y-87835000D01*
X170688174Y-87835000D01*
X170561007Y-87869075D01*
X170504000Y-87901988D01*
X170504000Y-87081000D01*
X169901307Y-87081000D01*
X169706356Y-87111876D01*
X169706343Y-87111879D01*
X169518636Y-87172869D01*
X169518635Y-87172869D01*
X169342759Y-87262484D01*
X169342758Y-87262484D01*
X169183078Y-87378498D01*
X169043503Y-87518073D01*
X169034367Y-87530648D01*
X168986075Y-87560240D01*
X168931003Y-87547018D01*
X168901411Y-87498726D01*
X168900500Y-87487151D01*
X168900500Y-85951378D01*
X168922174Y-85899052D01*
X168974500Y-85877378D01*
X169026826Y-85899052D01*
G37*
%TD.AperFunction*%
%TA.AperFunction,Conductor*%
G36*
X157899802Y-61822174D02*
G01*
X157921476Y-61874500D01*
X157899802Y-61926826D01*
X157894426Y-61931698D01*
X157892545Y-61933241D01*
X157753246Y-62072540D01*
X157643809Y-62236324D01*
X157568430Y-62418306D01*
X157568427Y-62418317D01*
X157530000Y-62611509D01*
X157530000Y-62760000D01*
X158230000Y-62760000D01*
X158230000Y-63260000D01*
X157530000Y-63260000D01*
X157530000Y-63408490D01*
X157568427Y-63601682D01*
X157568430Y-63601693D01*
X157643809Y-63783675D01*
X157753246Y-63947459D01*
X157892540Y-64086753D01*
X158056324Y-64196190D01*
X158238306Y-64271569D01*
X158238317Y-64271572D01*
X158279999Y-64279863D01*
X158280000Y-64279863D01*
X158280000Y-63476988D01*
X158289940Y-63494205D01*
X158345795Y-63550060D01*
X158414204Y-63589556D01*
X158490504Y-63610000D01*
X158569496Y-63610000D01*
X158645796Y-63589556D01*
X158714205Y-63550060D01*
X158770060Y-63494205D01*
X158780000Y-63476988D01*
X158780000Y-64279863D01*
X158821682Y-64271572D01*
X158821693Y-64271569D01*
X159003675Y-64196190D01*
X159167459Y-64086753D01*
X159306753Y-63947459D01*
X159416190Y-63783675D01*
X159491569Y-63601693D01*
X159491572Y-63601682D01*
X159530000Y-63408490D01*
X159530000Y-63260000D01*
X158830000Y-63260000D01*
X158830000Y-62760000D01*
X159530000Y-62760000D01*
X159530000Y-62611509D01*
X159491572Y-62418317D01*
X159491569Y-62418306D01*
X159416190Y-62236324D01*
X159306753Y-62072540D01*
X159167454Y-61933241D01*
X159165574Y-61931698D01*
X159165187Y-61930974D01*
X159164892Y-61930679D01*
X159164981Y-61930589D01*
X159138880Y-61881746D01*
X159155326Y-61827550D01*
X159205278Y-61800856D01*
X159212524Y-61800500D01*
X166487476Y-61800500D01*
X166539802Y-61822174D01*
X166561476Y-61874500D01*
X166539802Y-61926826D01*
X166534426Y-61931698D01*
X166532545Y-61933241D01*
X166393246Y-62072540D01*
X166283809Y-62236324D01*
X166208430Y-62418306D01*
X166208427Y-62418317D01*
X166170000Y-62611509D01*
X166170000Y-62760000D01*
X166870000Y-62760000D01*
X166870000Y-63260000D01*
X166170000Y-63260000D01*
X166170000Y-63408490D01*
X166208427Y-63601682D01*
X166208430Y-63601693D01*
X166283809Y-63783675D01*
X166393246Y-63947459D01*
X166532540Y-64086753D01*
X166696324Y-64196190D01*
X166878306Y-64271569D01*
X166878317Y-64271572D01*
X166919999Y-64279863D01*
X166920000Y-64279863D01*
X166920000Y-63476988D01*
X166929940Y-63494205D01*
X166985795Y-63550060D01*
X167054204Y-63589556D01*
X167130504Y-63610000D01*
X167209496Y-63610000D01*
X167285796Y-63589556D01*
X167354205Y-63550060D01*
X167410060Y-63494205D01*
X167420000Y-63476988D01*
X167420000Y-64279863D01*
X167461682Y-64271572D01*
X167461693Y-64271569D01*
X167643675Y-64196190D01*
X167807459Y-64086753D01*
X167946753Y-63947459D01*
X168056190Y-63783675D01*
X168131569Y-63601693D01*
X168131572Y-63601682D01*
X168170000Y-63408490D01*
X168170000Y-63260000D01*
X167470000Y-63260000D01*
X167470000Y-62760000D01*
X168170000Y-62760000D01*
X168170000Y-62611509D01*
X168131572Y-62418317D01*
X168131569Y-62418306D01*
X168056190Y-62236324D01*
X167946753Y-62072540D01*
X167807454Y-61933241D01*
X167805574Y-61931698D01*
X167805187Y-61930974D01*
X167804892Y-61930679D01*
X167804981Y-61930589D01*
X167778880Y-61881746D01*
X167795326Y-61827550D01*
X167845278Y-61800856D01*
X167852524Y-61800500D01*
X168689192Y-61800500D01*
X168741518Y-61822174D01*
X168761925Y-61860863D01*
X169897331Y-67916360D01*
X169885671Y-67971784D01*
X169838235Y-68002730D01*
X169782811Y-67991070D01*
X169772272Y-67982323D01*
X169709874Y-67919925D01*
X169564393Y-67831979D01*
X169402109Y-67781410D01*
X169402099Y-67781408D01*
X169331582Y-67775000D01*
X169250000Y-67775000D01*
X169250000Y-69574999D01*
X169331571Y-69574999D01*
X169331583Y-69574998D01*
X169402102Y-69568591D01*
X169402106Y-69568590D01*
X169564393Y-69518020D01*
X169709874Y-69430074D01*
X169830074Y-69309874D01*
X169918018Y-69164396D01*
X169962662Y-69021126D01*
X169998922Y-68977618D01*
X170055327Y-68972491D01*
X170098835Y-69008751D01*
X170106045Y-69029504D01*
X170172393Y-69383357D01*
X170199500Y-69527927D01*
X170199500Y-69539562D01*
X170206763Y-69566671D01*
X170207285Y-69569453D01*
X170207287Y-69569462D01*
X170211938Y-69594265D01*
X170211939Y-69594267D01*
X170213997Y-69598559D01*
X170218746Y-69611389D01*
X170219979Y-69615989D01*
X170219979Y-69615990D01*
X170225915Y-69626271D01*
X170232598Y-69637846D01*
X170235235Y-69642845D01*
X170246150Y-69665607D01*
X170249240Y-69669209D01*
X170257161Y-69680391D01*
X170259537Y-69684507D01*
X170259538Y-69684508D01*
X170259540Y-69684511D01*
X170279392Y-69704363D01*
X170297662Y-69725664D01*
X170307260Y-69732231D01*
X170315489Y-69740460D01*
X170337361Y-69753088D01*
X170337360Y-69753088D01*
X170339806Y-69754500D01*
X170362963Y-69770344D01*
X170373930Y-69774201D01*
X170379890Y-69777642D01*
X170379894Y-69777644D01*
X170384011Y-69780021D01*
X170408398Y-69786555D01*
X170413790Y-69788224D01*
X170437598Y-69796599D01*
X170437599Y-69796599D01*
X170437602Y-69796600D01*
X170442342Y-69796963D01*
X170455840Y-69799267D01*
X170460438Y-69800500D01*
X170460440Y-69800500D01*
X170488508Y-69800500D01*
X170516494Y-69802644D01*
X170527928Y-69800500D01*
X182396271Y-69800500D01*
X182434343Y-69811045D01*
X189663574Y-74148584D01*
X189697291Y-74194089D01*
X189699500Y-74212037D01*
X189699500Y-112844877D01*
X189677826Y-112897203D01*
X177397203Y-125177826D01*
X177344877Y-125199500D01*
X148399019Y-125199500D01*
X148348178Y-125179270D01*
X135823659Y-113336910D01*
X135800529Y-113285211D01*
X135800500Y-113283140D01*
X135800500Y-83960435D01*
X141949500Y-83960435D01*
X141949500Y-97539564D01*
X141969977Y-97615985D01*
X141969979Y-97615990D01*
X142009540Y-97684511D01*
X145477826Y-101152797D01*
X145499500Y-101205123D01*
X145499500Y-101315894D01*
X145533606Y-101443181D01*
X145533610Y-101443190D01*
X145582664Y-101528154D01*
X145599500Y-101557314D01*
X145692686Y-101650500D01*
X145806814Y-101716392D01*
X145934105Y-101750499D01*
X145934106Y-101750500D01*
X145934108Y-101750500D01*
X146065894Y-101750500D01*
X146065894Y-101750499D01*
X146193186Y-101716392D01*
X146307314Y-101650500D01*
X146322174Y-101635640D01*
X146374500Y-101613966D01*
X146426826Y-101635640D01*
X146448500Y-101687966D01*
X146448500Y-116747085D01*
X146468977Y-116823506D01*
X146468979Y-116823511D01*
X146506296Y-116888146D01*
X146506297Y-116888147D01*
X146508540Y-116892032D01*
X153800468Y-124183960D01*
X153868991Y-124223522D01*
X153945417Y-124244000D01*
X153945419Y-124244000D01*
X173001064Y-124244000D01*
X173001064Y-124243999D01*
X173077489Y-124223521D01*
X173146011Y-124183960D01*
X173201960Y-124128011D01*
X177667797Y-119662174D01*
X177720123Y-119640500D01*
X178437439Y-119640500D01*
X178437440Y-119640500D01*
X178579538Y-119612235D01*
X178713390Y-119556792D01*
X178833854Y-119476300D01*
X178936300Y-119373854D01*
X179016792Y-119253390D01*
X179072235Y-119119538D01*
X179100500Y-118977440D01*
X179100500Y-118832560D01*
X179072235Y-118690462D01*
X179016792Y-118556610D01*
X179006009Y-118540473D01*
X178994960Y-118484925D01*
X179023167Y-118442707D01*
X179021965Y-118441242D01*
X179024775Y-118438936D01*
X179168936Y-118294775D01*
X179168937Y-118294773D01*
X179282206Y-118125252D01*
X179360225Y-117936898D01*
X179360227Y-117936891D01*
X179370549Y-117885000D01*
X178375278Y-117885000D01*
X178419333Y-117808694D01*
X178450000Y-117694244D01*
X178450000Y-117575756D01*
X178419333Y-117461306D01*
X178375278Y-117385000D01*
X179370549Y-117385000D01*
X179370549Y-117384999D01*
X179360227Y-117333108D01*
X179360225Y-117333101D01*
X179282206Y-117144747D01*
X179168937Y-116975226D01*
X179168936Y-116975225D01*
X179024771Y-116831061D01*
X179021959Y-116828753D01*
X179023164Y-116827284D01*
X178994960Y-116785077D01*
X179006007Y-116729529D01*
X179016792Y-116713390D01*
X179072235Y-116579538D01*
X179100500Y-116437440D01*
X179100500Y-116292560D01*
X179072235Y-116150462D01*
X179060085Y-116121128D01*
X179016793Y-116016612D01*
X178992797Y-115980700D01*
X178954655Y-115923617D01*
X178943607Y-115868070D01*
X178975072Y-115820978D01*
X178995771Y-115807147D01*
X179044552Y-115774552D01*
X179088867Y-115708231D01*
X179100500Y-115649748D01*
X179100500Y-114540252D01*
X179088867Y-114481769D01*
X179044552Y-114415448D01*
X179022343Y-114400608D01*
X178978232Y-114371133D01*
X178978233Y-114371133D01*
X178948989Y-114365316D01*
X178919748Y-114359500D01*
X177080252Y-114359500D01*
X177051010Y-114365316D01*
X177021767Y-114371133D01*
X176955449Y-114415447D01*
X176955447Y-114415449D01*
X176911133Y-114481767D01*
X176899500Y-114540253D01*
X176899500Y-115649746D01*
X176911133Y-115708232D01*
X176930253Y-115736846D01*
X176955448Y-115774552D01*
X176975027Y-115787634D01*
X177024927Y-115820978D01*
X177056392Y-115868071D01*
X177045343Y-115923618D01*
X176983206Y-116016612D01*
X176927766Y-116150457D01*
X176927763Y-116150468D01*
X176913292Y-116223222D01*
X176899500Y-116292560D01*
X176899500Y-116437440D01*
X176902098Y-116450500D01*
X176927763Y-116579531D01*
X176927766Y-116579542D01*
X176983206Y-116713387D01*
X176983207Y-116713388D01*
X176983208Y-116713390D01*
X176993988Y-116729524D01*
X176993990Y-116729526D01*
X177005039Y-116785075D01*
X176976840Y-116827290D01*
X176978041Y-116828753D01*
X176975228Y-116831061D01*
X176831063Y-116975225D01*
X176831062Y-116975226D01*
X176717793Y-117144747D01*
X176639774Y-117333101D01*
X176639772Y-117333108D01*
X176629450Y-117384999D01*
X176629451Y-117385000D01*
X177624722Y-117385000D01*
X177580667Y-117461306D01*
X177550000Y-117575756D01*
X177550000Y-117694244D01*
X177580667Y-117808694D01*
X177624722Y-117885000D01*
X176629450Y-117885000D01*
X176639772Y-117936891D01*
X176639774Y-117936898D01*
X176717793Y-118125252D01*
X176831062Y-118294773D01*
X176831063Y-118294774D01*
X176975228Y-118438938D01*
X176978041Y-118441247D01*
X176976832Y-118442718D01*
X177005036Y-118484909D01*
X176993998Y-118540461D01*
X176993990Y-118540473D01*
X176983207Y-118556610D01*
X176927766Y-118690457D01*
X176927763Y-118690468D01*
X176899500Y-118832560D01*
X176899500Y-118977439D01*
X176927763Y-119119531D01*
X176927766Y-119119542D01*
X176983206Y-119253387D01*
X177046972Y-119348820D01*
X177058021Y-119404369D01*
X177037769Y-119442258D01*
X172858703Y-123621326D01*
X172806377Y-123643000D01*
X167319500Y-123643000D01*
X167267174Y-123621326D01*
X167245500Y-123569000D01*
X167245500Y-123037417D01*
X167267174Y-122985091D01*
X167319500Y-122963417D01*
X167360610Y-122975887D01*
X167447137Y-123033703D01*
X167601918Y-123097816D01*
X167766233Y-123130500D01*
X167766234Y-123130500D01*
X167933766Y-123130500D01*
X167933767Y-123130500D01*
X168098082Y-123097816D01*
X168252863Y-123033703D01*
X168392162Y-122940626D01*
X168510626Y-122822162D01*
X168603703Y-122682863D01*
X168667816Y-122528082D01*
X168700500Y-122363767D01*
X168700500Y-122196233D01*
X168667816Y-122031918D01*
X168658129Y-122008531D01*
X168654693Y-122000235D01*
X168654693Y-121943598D01*
X168670731Y-121919594D01*
X173105187Y-117485139D01*
X173157510Y-117463467D01*
X173209836Y-117485141D01*
X173297268Y-117572573D01*
X173441517Y-117661547D01*
X173602391Y-117714855D01*
X173701689Y-117724999D01*
X174250000Y-117724999D01*
X174298307Y-117724999D01*
X174298312Y-117724998D01*
X174397608Y-117714855D01*
X174558482Y-117661547D01*
X174702731Y-117572573D01*
X174822573Y-117452731D01*
X174876044Y-117366042D01*
X174911547Y-117308482D01*
X174964855Y-117147608D01*
X174974999Y-117048311D01*
X174975000Y-117048309D01*
X174975000Y-117025000D01*
X174250000Y-117025000D01*
X174250000Y-117724999D01*
X173701689Y-117724999D01*
X173749999Y-117724998D01*
X173750000Y-117724998D01*
X173750000Y-116849000D01*
X173771674Y-116796674D01*
X173824000Y-116775000D01*
X174000000Y-116775000D01*
X174000000Y-116599000D01*
X174021674Y-116546674D01*
X174074000Y-116525000D01*
X174974999Y-116525000D01*
X174974999Y-116501693D01*
X174974998Y-116501687D01*
X174964855Y-116402391D01*
X174911547Y-116241517D01*
X174822573Y-116097268D01*
X174702731Y-115977426D01*
X174558484Y-115888454D01*
X174555243Y-115886942D01*
X174516983Y-115845181D01*
X174519457Y-115788598D01*
X174534193Y-115767554D01*
X174598528Y-115703220D01*
X174659719Y-115583126D01*
X174675500Y-115483488D01*
X174675500Y-115421544D01*
X174697173Y-115369219D01*
X175301873Y-114764518D01*
X175335043Y-114745367D01*
X175443186Y-114716392D01*
X175557314Y-114650500D01*
X175650500Y-114557314D01*
X175716392Y-114443186D01*
X175750499Y-114315894D01*
X175750500Y-114315894D01*
X175750500Y-114184106D01*
X175750499Y-114184105D01*
X175716393Y-114056818D01*
X175716392Y-114056814D01*
X175650500Y-113942686D01*
X175557314Y-113849500D01*
X175522673Y-113829500D01*
X175443190Y-113783610D01*
X175443181Y-113783606D01*
X175315894Y-113749500D01*
X175315892Y-113749500D01*
X175245543Y-113749500D01*
X175193217Y-113727826D01*
X175171543Y-113675500D01*
X175193217Y-113623174D01*
X175407241Y-113409150D01*
X175801873Y-113014518D01*
X175835041Y-112995368D01*
X175943186Y-112966392D01*
X176057314Y-112900500D01*
X176150500Y-112807314D01*
X176216392Y-112693186D01*
X176250499Y-112565894D01*
X176250500Y-112565894D01*
X176250500Y-112434106D01*
X176250499Y-112434105D01*
X176246417Y-112418872D01*
X176216392Y-112306814D01*
X176150500Y-112192686D01*
X176057314Y-112099500D01*
X175943190Y-112033610D01*
X175943181Y-112033606D01*
X175823559Y-112001553D01*
X175778626Y-111967075D01*
X175771234Y-111910922D01*
X175790384Y-111877751D01*
X177160465Y-110507672D01*
X177203317Y-110433449D01*
X177203318Y-110433448D01*
X177225499Y-110350665D01*
X177225500Y-110350665D01*
X177225500Y-109947834D01*
X177247174Y-109895508D01*
X177299500Y-109873834D01*
X177319983Y-109878078D01*
X177320339Y-109876856D01*
X177449999Y-109914526D01*
X177450000Y-109914526D01*
X177450000Y-107435473D01*
X177324808Y-107471845D01*
X177188888Y-107552228D01*
X177077225Y-107663891D01*
X177062865Y-107688172D01*
X177017572Y-107722176D01*
X176999172Y-107724500D01*
X176736862Y-107724500D01*
X176689456Y-107730740D01*
X176689454Y-107730741D01*
X176585420Y-107779253D01*
X176552326Y-107812348D01*
X176500000Y-107834022D01*
X176447674Y-107812348D01*
X176414579Y-107779253D01*
X176399396Y-107772173D01*
X176310545Y-107730741D01*
X176310543Y-107730740D01*
X176275619Y-107726142D01*
X176263139Y-107724500D01*
X176263137Y-107724500D01*
X175936862Y-107724500D01*
X175889456Y-107730740D01*
X175889454Y-107730741D01*
X175785420Y-107779253D01*
X175752326Y-107812348D01*
X175700000Y-107834022D01*
X175647674Y-107812348D01*
X175614579Y-107779253D01*
X175599396Y-107772173D01*
X175510545Y-107730741D01*
X175510543Y-107730740D01*
X175475619Y-107726142D01*
X175463139Y-107724500D01*
X175463137Y-107724500D01*
X175136862Y-107724500D01*
X175089456Y-107730740D01*
X175089454Y-107730741D01*
X174985420Y-107779253D01*
X174952326Y-107812348D01*
X174900000Y-107834022D01*
X174847674Y-107812348D01*
X174814579Y-107779253D01*
X174799396Y-107772173D01*
X174710545Y-107730741D01*
X174710543Y-107730740D01*
X174675619Y-107726142D01*
X174663139Y-107724500D01*
X174663137Y-107724500D01*
X174336862Y-107724500D01*
X174289456Y-107730740D01*
X174289454Y-107730741D01*
X174185420Y-107779253D01*
X174152326Y-107812348D01*
X174100000Y-107834022D01*
X174047674Y-107812348D01*
X174014579Y-107779253D01*
X173999396Y-107772173D01*
X173910545Y-107730741D01*
X173910543Y-107730740D01*
X173875619Y-107726142D01*
X173863139Y-107724500D01*
X173863137Y-107724500D01*
X173536862Y-107724500D01*
X173489456Y-107730740D01*
X173489454Y-107730741D01*
X173385420Y-107779253D01*
X173304253Y-107860420D01*
X173255740Y-107964456D01*
X173249500Y-108011862D01*
X173249500Y-109269520D01*
X173227826Y-109321846D01*
X170726825Y-111822846D01*
X170674499Y-111844520D01*
X170622173Y-111822846D01*
X170600499Y-111770522D01*
X170600499Y-111313482D01*
X170599676Y-111308288D01*
X170585646Y-111219695D01*
X170585645Y-111219693D01*
X170550134Y-111150000D01*
X170528050Y-111106658D01*
X170438342Y-111016950D01*
X170325304Y-110959354D01*
X170325302Y-110959353D01*
X170325301Y-110959353D01*
X170231519Y-110944500D01*
X169618480Y-110944500D01*
X169524695Y-110959353D01*
X169524693Y-110959354D01*
X169411657Y-111016950D01*
X169321951Y-111106656D01*
X169321950Y-111106658D01*
X169272302Y-111204096D01*
X169229236Y-111240878D01*
X169206369Y-111244500D01*
X168672767Y-111244500D01*
X168620441Y-111222826D01*
X168605421Y-111200347D01*
X168605420Y-111200348D01*
X168605410Y-111200330D01*
X168604400Y-111198818D01*
X168603705Y-111197140D01*
X168510628Y-111057841D01*
X168510626Y-111057838D01*
X168392162Y-110939374D01*
X168392158Y-110939371D01*
X168252862Y-110846296D01*
X168098082Y-110782184D01*
X168094600Y-110781128D01*
X168095155Y-110779297D01*
X168052973Y-110751115D01*
X168041921Y-110695567D01*
X168073385Y-110648473D01*
X168094819Y-110639594D01*
X168094600Y-110638872D01*
X168098072Y-110637817D01*
X168098082Y-110637816D01*
X168252863Y-110573703D01*
X168392162Y-110480626D01*
X168510626Y-110362162D01*
X168603703Y-110222863D01*
X168667816Y-110068082D01*
X168700500Y-109903767D01*
X168700500Y-109736233D01*
X168667816Y-109571918D01*
X168603703Y-109417137D01*
X168510626Y-109277838D01*
X168392162Y-109159374D01*
X168392158Y-109159371D01*
X168252862Y-109066296D01*
X168098082Y-109002184D01*
X168098075Y-109002182D01*
X167974288Y-108977560D01*
X167933767Y-108969500D01*
X167766233Y-108969500D01*
X167733728Y-108975965D01*
X167601924Y-109002182D01*
X167601917Y-109002184D01*
X167447137Y-109066296D01*
X167360612Y-109124111D01*
X167305063Y-109135160D01*
X167257971Y-109103694D01*
X167245500Y-109062582D01*
X167245500Y-107627936D01*
X167245499Y-107627935D01*
X167225022Y-107551514D01*
X167225020Y-107551509D01*
X167185459Y-107482988D01*
X167129511Y-107427040D01*
X167060990Y-107387479D01*
X167060985Y-107387477D01*
X166984564Y-107367000D01*
X166984562Y-107367000D01*
X158094562Y-107367000D01*
X158015438Y-107367000D01*
X158015436Y-107367000D01*
X157939014Y-107387477D01*
X157939009Y-107387479D01*
X157870488Y-107427040D01*
X157814540Y-107482988D01*
X157774979Y-107551509D01*
X157774977Y-107551514D01*
X157754500Y-107627935D01*
X157754500Y-108172582D01*
X157732826Y-108224908D01*
X157680500Y-108246582D01*
X157639388Y-108234111D01*
X157552862Y-108176296D01*
X157398082Y-108112184D01*
X157398075Y-108112182D01*
X157274288Y-108087560D01*
X157233767Y-108079500D01*
X157066233Y-108079500D01*
X157033728Y-108085965D01*
X156901924Y-108112182D01*
X156901917Y-108112184D01*
X156747137Y-108176296D01*
X156607841Y-108269371D01*
X156489371Y-108387841D01*
X156396296Y-108527137D01*
X156332184Y-108681917D01*
X156332182Y-108681924D01*
X156299500Y-108846233D01*
X156299500Y-109013766D01*
X156332182Y-109178075D01*
X156332184Y-109178082D01*
X156396296Y-109332862D01*
X156489371Y-109472158D01*
X156489374Y-109472162D01*
X156607838Y-109590626D01*
X156747137Y-109683703D01*
X156901918Y-109747816D01*
X156901924Y-109747817D01*
X156905400Y-109748872D01*
X156904845Y-109750700D01*
X156947031Y-109778892D01*
X156958076Y-109834442D01*
X156926607Y-109881532D01*
X156905181Y-109890406D01*
X156905400Y-109891128D01*
X156901917Y-109892184D01*
X156747137Y-109956296D01*
X156607841Y-110049371D01*
X156489371Y-110167841D01*
X156396296Y-110307137D01*
X156332184Y-110461917D01*
X156332182Y-110461924D01*
X156299500Y-110626233D01*
X156299500Y-110793766D01*
X156332182Y-110958075D01*
X156332184Y-110958082D01*
X156396296Y-111112862D01*
X156469772Y-111222826D01*
X156489374Y-111252162D01*
X156607838Y-111370626D01*
X156747137Y-111463703D01*
X156901918Y-111527816D01*
X156901924Y-111527817D01*
X156905400Y-111528872D01*
X156904845Y-111530700D01*
X156947031Y-111558892D01*
X156958076Y-111614442D01*
X156926607Y-111661532D01*
X156905181Y-111670406D01*
X156905400Y-111671128D01*
X156901917Y-111672184D01*
X156747137Y-111736296D01*
X156607841Y-111829371D01*
X156489371Y-111947841D01*
X156396295Y-112087139D01*
X156372818Y-112143819D01*
X156332769Y-112183867D01*
X156304451Y-112189500D01*
X156114047Y-112189500D01*
X156061721Y-112167826D01*
X156048113Y-112149096D01*
X156034920Y-112123204D01*
X155998528Y-112051780D01*
X155903220Y-111956472D01*
X155903219Y-111956471D01*
X155783126Y-111895281D01*
X155783125Y-111895280D01*
X155683489Y-111879500D01*
X155683488Y-111879500D01*
X155166512Y-111879500D01*
X155166511Y-111879500D01*
X155066874Y-111895280D01*
X155066873Y-111895281D01*
X154946780Y-111956471D01*
X154882448Y-112020803D01*
X154830121Y-112042477D01*
X154777796Y-112020803D01*
X154763056Y-111999751D01*
X154761550Y-111996522D01*
X154672573Y-111852268D01*
X154552731Y-111732426D01*
X154408482Y-111643452D01*
X154247608Y-111590144D01*
X154148311Y-111580000D01*
X154125000Y-111580000D01*
X154125000Y-113154500D01*
X154103326Y-113206826D01*
X154051000Y-113228500D01*
X153699000Y-113228500D01*
X153646674Y-113206826D01*
X153625000Y-113154500D01*
X153625000Y-112805000D01*
X152925001Y-112805000D01*
X152925001Y-112853312D01*
X152935144Y-112952608D01*
X152988452Y-113113482D01*
X153077426Y-113257731D01*
X153147480Y-113327785D01*
X153169154Y-113380111D01*
X153147480Y-113432437D01*
X152015489Y-114564430D01*
X151959540Y-114620378D01*
X151919979Y-114688899D01*
X151919977Y-114688904D01*
X151899500Y-114765325D01*
X151899500Y-114987951D01*
X151877826Y-115040277D01*
X151846665Y-115056171D01*
X151847416Y-115058480D01*
X151841873Y-115060281D01*
X151721780Y-115121471D01*
X151657448Y-115185803D01*
X151605121Y-115207477D01*
X151552796Y-115185803D01*
X151538056Y-115164751D01*
X151536550Y-115161522D01*
X151447573Y-115017268D01*
X151327731Y-114897426D01*
X151183482Y-114808452D01*
X151022608Y-114755144D01*
X150923311Y-114745000D01*
X150900000Y-114745000D01*
X150900000Y-116694999D01*
X150923307Y-116694999D01*
X150923312Y-116694998D01*
X151022608Y-116684855D01*
X151183482Y-116631547D01*
X151327731Y-116542573D01*
X151447573Y-116422731D01*
X151536546Y-116278483D01*
X151538054Y-116275251D01*
X151579810Y-116236986D01*
X151636393Y-116239454D01*
X151657448Y-116254196D01*
X151721780Y-116318528D01*
X151841874Y-116379719D01*
X151941511Y-116395500D01*
X151941512Y-116395500D01*
X152458489Y-116395500D01*
X152508307Y-116387609D01*
X152558126Y-116379719D01*
X152678220Y-116318528D01*
X152773528Y-116223220D01*
X152785067Y-116200571D01*
X152828130Y-116163791D01*
X152884593Y-116168232D01*
X152921377Y-116211298D01*
X152925000Y-116234167D01*
X152925000Y-116353306D01*
X152925001Y-116353312D01*
X152935144Y-116452608D01*
X152988452Y-116613482D01*
X153077426Y-116757731D01*
X153197268Y-116877573D01*
X153341517Y-116966547D01*
X153502391Y-117019855D01*
X153601689Y-117029999D01*
X153625000Y-117029999D01*
X153625000Y-115074000D01*
X153646674Y-115021674D01*
X153658029Y-115016970D01*
X153675000Y-115000000D01*
X153675000Y-113903500D01*
X153696674Y-113851174D01*
X153749000Y-113829500D01*
X154101000Y-113829500D01*
X154153326Y-113851174D01*
X154175000Y-113903500D01*
X154175000Y-115286000D01*
X154153326Y-115338326D01*
X154141970Y-115343029D01*
X154125000Y-115360000D01*
X154125000Y-117029999D01*
X154148307Y-117029999D01*
X154148312Y-117029998D01*
X154247608Y-117019855D01*
X154408482Y-116966547D01*
X154552731Y-116877573D01*
X154672573Y-116757731D01*
X154761546Y-116613483D01*
X154763054Y-116610251D01*
X154804810Y-116571986D01*
X154861393Y-116574454D01*
X154882448Y-116589196D01*
X154946780Y-116653528D01*
X154984094Y-116672540D01*
X155020878Y-116715607D01*
X155024500Y-116738475D01*
X155024500Y-117264106D01*
X155002826Y-117316432D01*
X154984096Y-117330040D01*
X154911657Y-117366950D01*
X154821951Y-117456656D01*
X154764353Y-117569698D01*
X154749500Y-117663480D01*
X154749500Y-117973454D01*
X154727826Y-118025780D01*
X154175781Y-118577826D01*
X154123455Y-118599500D01*
X149946545Y-118599500D01*
X149894219Y-118577826D01*
X147672174Y-116355781D01*
X147650500Y-116303455D01*
X147650500Y-116018312D01*
X149700001Y-116018312D01*
X149710144Y-116117608D01*
X149763452Y-116278482D01*
X149852426Y-116422731D01*
X149972268Y-116542573D01*
X150116517Y-116631547D01*
X150277391Y-116684855D01*
X150376689Y-116694999D01*
X150400000Y-116694999D01*
X150400000Y-115970000D01*
X149700001Y-115970000D01*
X149700001Y-116018312D01*
X147650500Y-116018312D01*
X147650500Y-115421688D01*
X149700000Y-115421688D01*
X149700000Y-115470000D01*
X150400000Y-115470000D01*
X150400000Y-114745000D01*
X150376693Y-114745000D01*
X150376686Y-114745001D01*
X150277391Y-114755144D01*
X150116517Y-114808452D01*
X149972268Y-114897426D01*
X149852426Y-115017268D01*
X149763452Y-115161517D01*
X149710144Y-115322391D01*
X149700000Y-115421688D01*
X147650500Y-115421688D01*
X147650500Y-114696545D01*
X147672174Y-114644219D01*
X150059705Y-112256688D01*
X152925000Y-112256688D01*
X152925000Y-112305000D01*
X153625000Y-112305000D01*
X153625000Y-111580000D01*
X153601693Y-111580000D01*
X153601686Y-111580001D01*
X153502391Y-111590144D01*
X153341517Y-111643452D01*
X153197268Y-111732426D01*
X153077426Y-111852268D01*
X152988452Y-111996517D01*
X152935144Y-112157391D01*
X152925000Y-112256688D01*
X150059705Y-112256688D01*
X150144219Y-112172174D01*
X150196545Y-112150500D01*
X152052726Y-112150500D01*
X152052727Y-112150500D01*
X152154588Y-112123207D01*
X152245913Y-112070480D01*
X155245910Y-109070481D01*
X155245913Y-109070480D01*
X155320480Y-108995913D01*
X155373207Y-108904587D01*
X155400500Y-108802729D01*
X155400501Y-108802729D01*
X155400501Y-108692744D01*
X155400500Y-108692726D01*
X155400500Y-107196545D01*
X155422174Y-107144219D01*
X156644219Y-105922174D01*
X156696545Y-105900500D01*
X168025500Y-105900500D01*
X168077826Y-105922174D01*
X168099500Y-105974500D01*
X168099500Y-107697273D01*
X168099500Y-108417273D01*
X168099500Y-108522727D01*
X168118658Y-108594226D01*
X168126793Y-108624588D01*
X168126795Y-108624592D01*
X168179517Y-108715909D01*
X168179518Y-108715910D01*
X168179520Y-108715913D01*
X168717929Y-109254322D01*
X169227826Y-109764219D01*
X169249500Y-109816545D01*
X169249500Y-110126519D01*
X169264353Y-110220304D01*
X169264354Y-110220306D01*
X169305711Y-110301471D01*
X169321950Y-110333342D01*
X169411658Y-110423050D01*
X169524696Y-110480646D01*
X169618481Y-110495500D01*
X170231518Y-110495499D01*
X170231519Y-110495499D01*
X170325304Y-110480646D01*
X170325306Y-110480645D01*
X170327419Y-110479568D01*
X170438342Y-110423050D01*
X170528050Y-110333342D01*
X170585646Y-110220304D01*
X170600500Y-110126519D01*
X170600499Y-109663482D01*
X170592795Y-109614839D01*
X170585646Y-109569695D01*
X170585645Y-109569693D01*
X170542441Y-109484902D01*
X170528050Y-109456658D01*
X170438342Y-109366950D01*
X170325304Y-109309354D01*
X170325302Y-109309353D01*
X170325301Y-109309353D01*
X170231520Y-109294500D01*
X170231519Y-109294500D01*
X169921545Y-109294500D01*
X169869219Y-109272826D01*
X168922174Y-108325781D01*
X168900500Y-108273455D01*
X168900500Y-106148312D01*
X169450001Y-106148312D01*
X169460144Y-106247608D01*
X169513452Y-106408482D01*
X169602426Y-106552731D01*
X169722268Y-106672573D01*
X169866517Y-106761547D01*
X170027391Y-106814855D01*
X170126689Y-106824999D01*
X170126690Y-106824999D01*
X170174999Y-106824998D01*
X170175000Y-106824998D01*
X170175000Y-106125000D01*
X169450001Y-106125000D01*
X169450001Y-106148312D01*
X168900500Y-106148312D01*
X168900500Y-101145544D01*
X168922174Y-101093218D01*
X168974500Y-101071544D01*
X169026824Y-101093217D01*
X169429087Y-101495480D01*
X169429089Y-101495481D01*
X169429090Y-101495482D01*
X169493281Y-101532542D01*
X169520412Y-101548207D01*
X169622273Y-101575500D01*
X169727727Y-101575500D01*
X169757321Y-101575500D01*
X169809647Y-101597174D01*
X169818164Y-101608895D01*
X169818528Y-101608632D01*
X169821949Y-101613341D01*
X169821950Y-101613342D01*
X169911658Y-101703050D01*
X170024696Y-101760646D01*
X170118481Y-101775500D01*
X170731518Y-101775499D01*
X170731519Y-101775499D01*
X170825304Y-101760646D01*
X170825306Y-101760645D01*
X170828128Y-101759207D01*
X170938342Y-101703050D01*
X171028050Y-101613342D01*
X171028051Y-101613338D01*
X171031472Y-101608632D01*
X171033516Y-101610117D01*
X171069822Y-101579119D01*
X171092679Y-101575500D01*
X171300500Y-101575500D01*
X171352826Y-101597174D01*
X171374500Y-101649500D01*
X171374500Y-101863137D01*
X171380740Y-101910543D01*
X171380741Y-101910545D01*
X171429253Y-102014579D01*
X171462348Y-102047674D01*
X171484022Y-102100000D01*
X171462348Y-102152326D01*
X171429253Y-102185420D01*
X171380740Y-102289456D01*
X171374500Y-102336862D01*
X171374500Y-102663137D01*
X171380740Y-102710543D01*
X171380741Y-102710545D01*
X171429253Y-102814579D01*
X171462348Y-102847674D01*
X171484022Y-102900000D01*
X171462348Y-102952326D01*
X171429253Y-102985420D01*
X171380740Y-103089456D01*
X171374500Y-103136862D01*
X171374500Y-103463137D01*
X171380740Y-103510543D01*
X171380741Y-103510545D01*
X171429253Y-103614579D01*
X171462348Y-103647674D01*
X171484022Y-103700000D01*
X171462348Y-103752326D01*
X171436848Y-103777826D01*
X171384522Y-103799500D01*
X171006900Y-103799500D01*
X170954574Y-103777826D01*
X170928219Y-103751471D01*
X170808128Y-103690282D01*
X170808127Y-103690281D01*
X170808126Y-103690281D01*
X170808124Y-103690280D01*
X170808122Y-103690280D01*
X170787923Y-103687081D01*
X170768365Y-103675095D01*
X170747174Y-103666318D01*
X170744837Y-103660677D01*
X170739633Y-103657488D01*
X170725500Y-103613992D01*
X170725500Y-103489654D01*
X170747174Y-103437328D01*
X170787924Y-103416565D01*
X170825304Y-103410646D01*
X170938342Y-103353050D01*
X171028050Y-103263342D01*
X171085646Y-103150304D01*
X171100500Y-103056519D01*
X171100499Y-102593482D01*
X171099280Y-102585788D01*
X171085646Y-102499695D01*
X171085645Y-102499693D01*
X171055728Y-102440979D01*
X171028050Y-102386658D01*
X170938342Y-102296950D01*
X170825304Y-102239354D01*
X170825302Y-102239353D01*
X170825301Y-102239353D01*
X170731519Y-102224500D01*
X170118480Y-102224500D01*
X170024695Y-102239353D01*
X170024693Y-102239354D01*
X169911657Y-102296950D01*
X169821951Y-102386656D01*
X169764353Y-102499698D01*
X169749500Y-102593480D01*
X169749500Y-103056519D01*
X169764353Y-103150304D01*
X169764354Y-103150306D01*
X169810919Y-103241693D01*
X169821950Y-103263342D01*
X169911658Y-103353050D01*
X170024696Y-103410646D01*
X170062075Y-103416566D01*
X170081633Y-103428550D01*
X170102826Y-103437329D01*
X170105161Y-103442968D01*
X170110367Y-103446158D01*
X170124500Y-103489654D01*
X170124500Y-103613992D01*
X170102826Y-103666318D01*
X170062077Y-103687081D01*
X170041877Y-103690280D01*
X170041871Y-103690282D01*
X169921780Y-103751471D01*
X169826471Y-103846780D01*
X169765281Y-103966873D01*
X169765280Y-103966874D01*
X169749500Y-104066511D01*
X169749500Y-104583488D01*
X169765280Y-104683125D01*
X169765281Y-104683126D01*
X169826471Y-104803219D01*
X169890803Y-104867551D01*
X169912477Y-104919877D01*
X169890803Y-104972203D01*
X169869759Y-104986940D01*
X169866520Y-104988450D01*
X169722268Y-105077426D01*
X169602426Y-105197268D01*
X169513452Y-105341517D01*
X169460144Y-105502391D01*
X169450000Y-105601688D01*
X169450000Y-105625000D01*
X170351000Y-105625000D01*
X170403326Y-105646674D01*
X170425000Y-105699000D01*
X170425000Y-105875000D01*
X170601000Y-105875000D01*
X170653326Y-105896674D01*
X170675000Y-105949000D01*
X170675000Y-106824999D01*
X170723307Y-106824999D01*
X170723312Y-106824998D01*
X170822608Y-106814855D01*
X170983482Y-106761547D01*
X171127731Y-106672573D01*
X171248174Y-106552130D01*
X171300500Y-106530456D01*
X171352826Y-106552130D01*
X171374500Y-106604455D01*
X171374500Y-106663137D01*
X171380740Y-106710543D01*
X171380741Y-106710545D01*
X171429253Y-106814579D01*
X171462348Y-106847674D01*
X171484022Y-106900000D01*
X171462348Y-106952326D01*
X171429253Y-106985420D01*
X171380740Y-107089456D01*
X171374500Y-107136862D01*
X171374500Y-107463137D01*
X171380740Y-107510543D01*
X171380741Y-107510545D01*
X171429253Y-107614579D01*
X171510421Y-107695747D01*
X171614455Y-107744259D01*
X171661861Y-107750500D01*
X172988138Y-107750499D01*
X173035545Y-107744259D01*
X173139579Y-107695747D01*
X173220747Y-107614579D01*
X173269259Y-107510545D01*
X173275500Y-107463139D01*
X173275499Y-107136862D01*
X173269259Y-107089455D01*
X173220747Y-106985421D01*
X173187652Y-106952326D01*
X173165978Y-106900000D01*
X173187652Y-106847674D01*
X173189919Y-106845407D01*
X173220747Y-106814579D01*
X173269259Y-106710545D01*
X173275500Y-106663139D01*
X173275499Y-106336862D01*
X173269259Y-106289455D01*
X173220747Y-106185421D01*
X173212152Y-106176826D01*
X173190478Y-106124500D01*
X173212152Y-106072174D01*
X173264478Y-106050500D01*
X173562034Y-106050500D01*
X173614360Y-106072174D01*
X173692686Y-106150500D01*
X173806814Y-106216392D01*
X173934105Y-106250499D01*
X173934106Y-106250500D01*
X173934108Y-106250500D01*
X174065894Y-106250500D01*
X174065894Y-106250499D01*
X174152434Y-106227311D01*
X174208585Y-106234703D01*
X174243064Y-106279636D01*
X174235672Y-106335788D01*
X174223912Y-106351115D01*
X174097202Y-106477826D01*
X174044876Y-106499500D01*
X173934106Y-106499500D01*
X173806818Y-106533606D01*
X173806809Y-106533610D01*
X173692685Y-106599500D01*
X173599500Y-106692685D01*
X173533610Y-106806809D01*
X173533606Y-106806818D01*
X173499500Y-106934105D01*
X173499500Y-107065894D01*
X173533606Y-107193181D01*
X173533610Y-107193190D01*
X173566698Y-107250499D01*
X173599500Y-107307314D01*
X173692686Y-107400500D01*
X173806814Y-107466392D01*
X173934105Y-107500499D01*
X173934106Y-107500500D01*
X173934108Y-107500500D01*
X174065894Y-107500500D01*
X174065894Y-107500499D01*
X174193186Y-107466392D01*
X174307314Y-107400500D01*
X174400500Y-107307314D01*
X174466392Y-107193186D01*
X174500499Y-107065894D01*
X174500500Y-107065894D01*
X174500500Y-106955122D01*
X174522174Y-106902796D01*
X174689490Y-106735480D01*
X174898885Y-106526084D01*
X174951210Y-106504411D01*
X175003536Y-106526085D01*
X175025210Y-106578411D01*
X175022689Y-106597563D01*
X174999500Y-106684108D01*
X174999500Y-106815894D01*
X175033606Y-106943181D01*
X175033610Y-106943190D01*
X175038885Y-106952326D01*
X175099500Y-107057314D01*
X175192686Y-107150500D01*
X175306814Y-107216392D01*
X175434105Y-107250499D01*
X175434106Y-107250500D01*
X175434108Y-107250500D01*
X175565894Y-107250500D01*
X175565894Y-107250499D01*
X175693186Y-107216392D01*
X175807314Y-107150500D01*
X175900500Y-107057314D01*
X175966392Y-106943186D01*
X176000499Y-106815894D01*
X176000500Y-106815894D01*
X176000500Y-106684106D01*
X176000499Y-106684105D01*
X175997678Y-106673578D01*
X175966392Y-106556814D01*
X175900500Y-106442686D01*
X175900499Y-106442685D01*
X175900498Y-106442683D01*
X175897547Y-106438837D01*
X175899804Y-106437104D01*
X175881585Y-106393119D01*
X175903259Y-106340793D01*
X176323174Y-105920878D01*
X176375500Y-105899204D01*
X176427826Y-105920878D01*
X176449500Y-105973204D01*
X176449500Y-106312034D01*
X176427826Y-106364360D01*
X176349500Y-106442685D01*
X176283610Y-106556809D01*
X176283606Y-106556818D01*
X176249500Y-106684105D01*
X176249500Y-106815894D01*
X176283606Y-106943181D01*
X176283610Y-106943190D01*
X176288885Y-106952326D01*
X176349500Y-107057314D01*
X176442686Y-107150500D01*
X176556814Y-107216392D01*
X176684105Y-107250499D01*
X176684106Y-107250500D01*
X176684108Y-107250500D01*
X176815894Y-107250500D01*
X176815894Y-107250499D01*
X176943186Y-107216392D01*
X177057314Y-107150500D01*
X177150500Y-107057314D01*
X177216392Y-106943186D01*
X177250499Y-106815894D01*
X177250500Y-106815894D01*
X177250500Y-106684106D01*
X177250499Y-106684105D01*
X177247678Y-106673578D01*
X177216392Y-106556814D01*
X177150500Y-106442686D01*
X177072174Y-106364360D01*
X177050500Y-106312034D01*
X177050500Y-106024204D01*
X177072173Y-105971879D01*
X179601690Y-103442361D01*
X179654015Y-103420688D01*
X179706341Y-103442362D01*
X179727382Y-103485029D01*
X179730741Y-103510544D01*
X179730741Y-103510545D01*
X179779253Y-103614579D01*
X179812348Y-103647674D01*
X179834022Y-103700000D01*
X179812348Y-103752326D01*
X179779253Y-103785420D01*
X179730740Y-103889456D01*
X179724500Y-103936862D01*
X179724500Y-104263137D01*
X179730740Y-104310543D01*
X179730741Y-104310545D01*
X179779253Y-104414579D01*
X179812348Y-104447674D01*
X179834022Y-104500000D01*
X179812348Y-104552326D01*
X179779253Y-104585420D01*
X179730740Y-104689456D01*
X179724500Y-104736862D01*
X179724500Y-105063137D01*
X179730740Y-105110543D01*
X179730741Y-105110545D01*
X179779253Y-105214579D01*
X179812348Y-105247674D01*
X179834022Y-105300000D01*
X179812348Y-105352326D01*
X179779253Y-105385420D01*
X179730740Y-105489456D01*
X179724500Y-105536862D01*
X179724500Y-105863137D01*
X179730740Y-105910543D01*
X179730741Y-105910545D01*
X179779253Y-106014579D01*
X179812348Y-106047674D01*
X179834022Y-106100000D01*
X179812348Y-106152326D01*
X179779253Y-106185420D01*
X179730740Y-106289456D01*
X179724500Y-106336862D01*
X179724500Y-106663137D01*
X179730740Y-106710543D01*
X179730741Y-106710545D01*
X179779253Y-106814579D01*
X179812348Y-106847674D01*
X179834022Y-106900000D01*
X179812348Y-106952326D01*
X179779253Y-106985420D01*
X179730740Y-107089456D01*
X179724500Y-107136862D01*
X179724500Y-107387611D01*
X179702826Y-107439937D01*
X179650500Y-107461611D01*
X179629855Y-107458673D01*
X179550000Y-107435472D01*
X179550000Y-108425000D01*
X180050000Y-108425000D01*
X180050000Y-107986889D01*
X180047210Y-107951448D01*
X180016326Y-107845145D01*
X180022541Y-107788849D01*
X180066742Y-107753437D01*
X180087381Y-107750499D01*
X181054454Y-107750499D01*
X181106780Y-107772173D01*
X181128454Y-107824499D01*
X181106780Y-107876825D01*
X180080280Y-108903326D01*
X180027954Y-108925000D01*
X179024500Y-108925000D01*
X178972174Y-108903326D01*
X178950500Y-108851000D01*
X178950499Y-108499000D01*
X178972173Y-108446674D01*
X179024499Y-108425000D01*
X179050000Y-108425000D01*
X179050000Y-107435473D01*
X178924808Y-107471845D01*
X178788888Y-107552228D01*
X178677225Y-107663891D01*
X178662867Y-107688170D01*
X178617575Y-107722175D01*
X178599173Y-107724500D01*
X178400826Y-107724500D01*
X178348500Y-107702826D01*
X178337131Y-107688169D01*
X178322771Y-107663888D01*
X178211111Y-107552228D01*
X178075191Y-107471845D01*
X177950000Y-107435473D01*
X177950000Y-108425000D01*
X177975500Y-108425000D01*
X178027826Y-108446674D01*
X178049500Y-108499000D01*
X178049500Y-108594226D01*
X178046979Y-108613376D01*
X178041950Y-108632147D01*
X178025719Y-108692726D01*
X178024500Y-108697274D01*
X178024500Y-108851000D01*
X178002826Y-108903326D01*
X177950500Y-108925000D01*
X177950000Y-108925000D01*
X177950000Y-109914526D01*
X177962610Y-109923993D01*
X177986146Y-109926591D01*
X178021561Y-109970791D01*
X178024500Y-109991440D01*
X178024500Y-110216524D01*
X178002826Y-110268850D01*
X177984096Y-110282458D01*
X177946780Y-110301471D01*
X177851471Y-110396780D01*
X177790281Y-110516873D01*
X177790280Y-110516874D01*
X177774500Y-110616511D01*
X177774500Y-111183488D01*
X177790280Y-111283125D01*
X177790281Y-111283126D01*
X177848632Y-111397648D01*
X177851472Y-111403220D01*
X177946780Y-111498528D01*
X178066874Y-111559719D01*
X178166511Y-111575500D01*
X178166512Y-111575500D01*
X178683489Y-111575500D01*
X178733307Y-111567609D01*
X178783126Y-111559719D01*
X178903220Y-111498528D01*
X178967552Y-111434195D01*
X179019876Y-111412522D01*
X179072203Y-111434196D01*
X179086942Y-111455243D01*
X179088454Y-111458484D01*
X179177426Y-111602731D01*
X179297268Y-111722573D01*
X179441517Y-111811547D01*
X179602391Y-111864855D01*
X179701689Y-111874999D01*
X179725000Y-111874999D01*
X180225000Y-111874999D01*
X180248307Y-111874999D01*
X180248312Y-111874998D01*
X180347608Y-111864855D01*
X180508482Y-111811547D01*
X180652731Y-111722573D01*
X180772573Y-111602731D01*
X180861547Y-111458482D01*
X180914855Y-111297608D01*
X180924999Y-111198311D01*
X180925000Y-111198309D01*
X180925000Y-111150000D01*
X180225000Y-111150000D01*
X180225000Y-111874999D01*
X179725000Y-111874999D01*
X179725000Y-110974000D01*
X179746674Y-110921674D01*
X179799000Y-110900000D01*
X179975000Y-110900000D01*
X179975000Y-110724000D01*
X179996674Y-110671674D01*
X180049000Y-110650000D01*
X180924999Y-110650000D01*
X180924999Y-110601693D01*
X180924998Y-110601687D01*
X180914855Y-110502391D01*
X180861547Y-110341517D01*
X180772573Y-110197268D01*
X180652731Y-110077426D01*
X180508482Y-109988452D01*
X180347605Y-109935143D01*
X180343659Y-109934299D01*
X180344213Y-109931709D01*
X180301462Y-109908333D01*
X180285538Y-109853980D01*
X180306781Y-109809611D01*
X182394219Y-107722174D01*
X182446545Y-107700500D01*
X182759460Y-107700500D01*
X182796457Y-107710412D01*
X182806814Y-107716392D01*
X182934105Y-107750499D01*
X182934106Y-107750500D01*
X182934108Y-107750500D01*
X183065894Y-107750500D01*
X183065894Y-107750499D01*
X183193186Y-107716392D01*
X183307314Y-107650500D01*
X183392860Y-107564954D01*
X183445186Y-107543280D01*
X183497512Y-107564954D01*
X183519186Y-107617280D01*
X183519186Y-109133769D01*
X183497512Y-109186095D01*
X180605781Y-112077826D01*
X180553455Y-112099500D01*
X179077143Y-112099500D01*
X179040143Y-112089586D01*
X178943190Y-112033610D01*
X178943181Y-112033606D01*
X178815894Y-111999500D01*
X178815892Y-111999500D01*
X178684108Y-111999500D01*
X178684106Y-111999500D01*
X178556818Y-112033606D01*
X178556809Y-112033610D01*
X178442685Y-112099500D01*
X178349500Y-112192685D01*
X178283610Y-112306809D01*
X178283606Y-112306818D01*
X178249500Y-112434105D01*
X178249500Y-112565894D01*
X178283606Y-112693181D01*
X178283610Y-112693190D01*
X178327076Y-112768474D01*
X178349500Y-112807314D01*
X178442686Y-112900500D01*
X178556814Y-112966392D01*
X178684105Y-113000499D01*
X178684106Y-113000500D01*
X178684108Y-113000500D01*
X178815894Y-113000500D01*
X178815894Y-113000499D01*
X178943186Y-112966392D01*
X179011249Y-112927095D01*
X179040143Y-112910414D01*
X179077143Y-112900500D01*
X180802726Y-112900500D01*
X180802727Y-112900500D01*
X180904588Y-112873207D01*
X180995913Y-112820480D01*
X182418747Y-111397646D01*
X185449500Y-111397646D01*
X185449500Y-111602353D01*
X185481522Y-111804531D01*
X185481525Y-111804544D01*
X185544777Y-111999213D01*
X185637712Y-112181610D01*
X185692260Y-112256688D01*
X185758034Y-112347219D01*
X185902781Y-112491966D01*
X185984767Y-112551532D01*
X186068389Y-112612287D01*
X186156300Y-112657079D01*
X186250781Y-112705220D01*
X186250783Y-112705220D01*
X186250786Y-112705222D01*
X186445455Y-112768474D01*
X186445461Y-112768475D01*
X186445466Y-112768477D01*
X186529027Y-112781712D01*
X186647646Y-112800500D01*
X186647648Y-112800500D01*
X186852354Y-112800500D01*
X186933224Y-112787690D01*
X187054534Y-112768477D01*
X187054541Y-112768474D01*
X187054544Y-112768474D01*
X187249213Y-112705222D01*
X187249213Y-112705221D01*
X187249219Y-112705220D01*
X187431610Y-112612287D01*
X187597219Y-112491966D01*
X187741966Y-112347219D01*
X187862287Y-112181610D01*
X187955220Y-111999219D01*
X187971915Y-111947838D01*
X188018474Y-111804544D01*
X188018474Y-111804541D01*
X188018477Y-111804534D01*
X188050500Y-111602352D01*
X188050500Y-111397648D01*
X188046220Y-111370628D01*
X188026243Y-111244500D01*
X188018477Y-111195466D01*
X188018475Y-111195461D01*
X188018474Y-111195455D01*
X187955222Y-111000786D01*
X187955220Y-111000783D01*
X187955220Y-111000781D01*
X187895561Y-110883694D01*
X187862287Y-110818389D01*
X187793709Y-110724000D01*
X187741966Y-110652781D01*
X187597219Y-110508034D01*
X187494561Y-110433449D01*
X187431610Y-110387712D01*
X187249213Y-110294777D01*
X187054544Y-110231525D01*
X187054531Y-110231522D01*
X186852354Y-110199500D01*
X186852352Y-110199500D01*
X186647648Y-110199500D01*
X186647646Y-110199500D01*
X186445468Y-110231522D01*
X186445455Y-110231525D01*
X186250786Y-110294777D01*
X186068389Y-110387712D01*
X185905144Y-110506317D01*
X185902781Y-110508034D01*
X185758034Y-110652781D01*
X185758031Y-110652784D01*
X185758031Y-110652785D01*
X185637712Y-110818389D01*
X185544777Y-111000786D01*
X185481525Y-111195455D01*
X185481522Y-111195468D01*
X185449500Y-111397646D01*
X182418747Y-111397646D01*
X184240166Y-109576227D01*
X184292893Y-109484902D01*
X184320186Y-109383041D01*
X184320186Y-109277587D01*
X184320186Y-100098273D01*
X184304546Y-100039902D01*
X184311939Y-99983750D01*
X184356873Y-99949272D01*
X184387601Y-99947662D01*
X184405519Y-99950500D01*
X184594482Y-99950500D01*
X184643817Y-99942686D01*
X184781118Y-99920940D01*
X184781125Y-99920937D01*
X184781128Y-99920937D01*
X184960824Y-99862550D01*
X184960826Y-99862548D01*
X184960832Y-99862547D01*
X185129199Y-99776760D01*
X185282073Y-99665690D01*
X185415690Y-99532073D01*
X185526760Y-99379199D01*
X185612547Y-99210832D01*
X185614726Y-99204128D01*
X185670937Y-99031128D01*
X185670937Y-99031125D01*
X185670940Y-99031118D01*
X185700500Y-98844481D01*
X185700500Y-98655519D01*
X185670940Y-98468882D01*
X185670938Y-98468877D01*
X185670937Y-98468871D01*
X185612550Y-98289175D01*
X185612547Y-98289171D01*
X185612547Y-98289168D01*
X185526760Y-98120801D01*
X185451416Y-98017099D01*
X185415693Y-97967931D01*
X185415692Y-97967930D01*
X185415690Y-97967927D01*
X185282073Y-97834310D01*
X185282070Y-97834307D01*
X185282068Y-97834306D01*
X185129198Y-97723239D01*
X184960824Y-97637449D01*
X184781128Y-97579062D01*
X184781115Y-97579059D01*
X184594482Y-97549500D01*
X184594481Y-97549500D01*
X184405519Y-97549500D01*
X184405518Y-97549500D01*
X184218884Y-97579059D01*
X184218871Y-97579062D01*
X184039175Y-97637449D01*
X183870801Y-97723239D01*
X183717931Y-97834306D01*
X183584306Y-97967931D01*
X183473239Y-98120801D01*
X183387449Y-98289175D01*
X183329062Y-98468871D01*
X183329059Y-98468884D01*
X183299500Y-98655518D01*
X183299500Y-98785769D01*
X183277826Y-98838095D01*
X183225500Y-98859769D01*
X183173174Y-98838095D01*
X181669500Y-97334421D01*
X181647826Y-97282095D01*
X181669500Y-97229769D01*
X181693519Y-97213723D01*
X181697490Y-97212077D01*
X181697504Y-97212074D01*
X181811632Y-97146182D01*
X181904818Y-97052996D01*
X181970710Y-96938868D01*
X182004817Y-96811576D01*
X182004818Y-96811576D01*
X182004818Y-96679788D01*
X182004817Y-96679787D01*
X182002482Y-96671074D01*
X181970710Y-96552496D01*
X181904818Y-96438368D01*
X181826492Y-96360042D01*
X181804818Y-96307716D01*
X181804818Y-95934105D01*
X182499500Y-95934105D01*
X182499500Y-96065894D01*
X182533606Y-96193181D01*
X182533610Y-96193190D01*
X182550663Y-96222726D01*
X182599500Y-96307314D01*
X182692686Y-96400500D01*
X182806814Y-96466392D01*
X182934105Y-96500499D01*
X182934106Y-96500500D01*
X182934108Y-96500500D01*
X183065894Y-96500500D01*
X183065894Y-96500499D01*
X183193186Y-96466392D01*
X183282579Y-96414781D01*
X183290143Y-96410414D01*
X183327143Y-96400500D01*
X185303455Y-96400500D01*
X185355781Y-96422174D01*
X186327826Y-97394219D01*
X186349500Y-97446545D01*
X186349500Y-105303454D01*
X186327826Y-105355780D01*
X184948125Y-106735480D01*
X184914952Y-106754632D01*
X184806817Y-106783606D01*
X184806812Y-106783608D01*
X184692685Y-106849500D01*
X184599500Y-106942685D01*
X184533610Y-107056809D01*
X184533606Y-107056818D01*
X184499500Y-107184105D01*
X184499500Y-107315894D01*
X184533606Y-107443181D01*
X184533610Y-107443190D01*
X184550154Y-107471845D01*
X184599500Y-107557314D01*
X184692686Y-107650500D01*
X184806814Y-107716392D01*
X184934105Y-107750499D01*
X184934106Y-107750500D01*
X184934108Y-107750500D01*
X185065894Y-107750500D01*
X185065894Y-107750499D01*
X185193186Y-107716392D01*
X185307314Y-107650500D01*
X185400500Y-107557314D01*
X185466392Y-107443186D01*
X185495367Y-107335043D01*
X185514518Y-107301873D01*
X186995910Y-105820481D01*
X186995913Y-105820480D01*
X187070480Y-105745913D01*
X187123207Y-105654587D01*
X187130164Y-105628622D01*
X187150501Y-105552727D01*
X187150501Y-105447273D01*
X187150501Y-105442744D01*
X187150500Y-105442726D01*
X187150500Y-97197271D01*
X187147218Y-97185026D01*
X187147218Y-97185021D01*
X187147217Y-97185022D01*
X187147217Y-97185021D01*
X187123207Y-97095412D01*
X187070480Y-97004087D01*
X185745913Y-95679520D01*
X185745910Y-95679518D01*
X185745909Y-95679517D01*
X185654592Y-95626795D01*
X185654588Y-95626793D01*
X185552727Y-95599500D01*
X185552726Y-95599500D01*
X183327143Y-95599500D01*
X183290143Y-95589586D01*
X183193190Y-95533610D01*
X183193181Y-95533606D01*
X183065894Y-95499500D01*
X183065892Y-95499500D01*
X182934108Y-95499500D01*
X182934106Y-95499500D01*
X182806818Y-95533606D01*
X182806809Y-95533610D01*
X182692685Y-95599500D01*
X182599500Y-95692685D01*
X182533610Y-95806809D01*
X182533606Y-95806818D01*
X182499500Y-95934105D01*
X181804818Y-95934105D01*
X181804818Y-95433648D01*
X181826492Y-95381322D01*
X181849120Y-95358694D01*
X181900500Y-95307314D01*
X181966392Y-95193186D01*
X182000499Y-95065894D01*
X182000500Y-95065894D01*
X182000500Y-94934106D01*
X182000499Y-94934105D01*
X181994282Y-94910904D01*
X181966392Y-94806814D01*
X181900500Y-94692686D01*
X181884640Y-94676826D01*
X181862966Y-94624500D01*
X181884640Y-94572174D01*
X181936966Y-94550500D01*
X183281594Y-94550500D01*
X183333920Y-94572174D01*
X183351972Y-94601633D01*
X183387450Y-94710826D01*
X183473239Y-94879198D01*
X183573207Y-95016792D01*
X183584310Y-95032073D01*
X183717927Y-95165690D01*
X183870801Y-95276760D01*
X184039168Y-95362547D01*
X184039171Y-95362547D01*
X184039175Y-95362550D01*
X184218871Y-95420937D01*
X184218877Y-95420938D01*
X184218882Y-95420940D01*
X184343306Y-95440646D01*
X184405518Y-95450500D01*
X184405519Y-95450500D01*
X184594482Y-95450500D01*
X184646355Y-95442284D01*
X184781118Y-95420940D01*
X184781125Y-95420937D01*
X184781128Y-95420937D01*
X184960824Y-95362550D01*
X184960826Y-95362548D01*
X184960832Y-95362547D01*
X185129199Y-95276760D01*
X185282073Y-95165690D01*
X185415690Y-95032073D01*
X185526760Y-94879199D01*
X185612547Y-94710832D01*
X185613082Y-94709188D01*
X185670937Y-94531128D01*
X185670937Y-94531125D01*
X185670940Y-94531118D01*
X185700500Y-94344481D01*
X185700500Y-94155519D01*
X185670940Y-93968882D01*
X185670938Y-93968877D01*
X185670937Y-93968871D01*
X185612550Y-93789175D01*
X185612547Y-93789171D01*
X185612547Y-93789168D01*
X185526760Y-93620801D01*
X185415693Y-93467931D01*
X185415692Y-93467930D01*
X185415690Y-93467927D01*
X185282073Y-93334310D01*
X185282070Y-93334307D01*
X185282068Y-93334306D01*
X185129198Y-93223239D01*
X184960824Y-93137449D01*
X184781128Y-93079062D01*
X184781115Y-93079059D01*
X184594482Y-93049500D01*
X184594481Y-93049500D01*
X184405519Y-93049500D01*
X184405518Y-93049500D01*
X184218884Y-93079059D01*
X184218871Y-93079062D01*
X184039175Y-93137449D01*
X183870801Y-93223239D01*
X183717931Y-93334306D01*
X183584306Y-93467931D01*
X183473239Y-93620801D01*
X183387450Y-93789173D01*
X183351972Y-93898367D01*
X183315189Y-93941434D01*
X183281594Y-93949500D01*
X179960436Y-93949500D01*
X179884014Y-93969977D01*
X179884009Y-93969979D01*
X179841160Y-93994719D01*
X179815488Y-94009540D01*
X179601520Y-94223508D01*
X179549194Y-94245182D01*
X179438424Y-94245182D01*
X179311136Y-94279288D01*
X179311127Y-94279292D01*
X179197003Y-94345182D01*
X179103818Y-94438367D01*
X179037923Y-94552500D01*
X179036267Y-94556498D01*
X178996214Y-94596542D01*
X178939577Y-94596536D01*
X178915577Y-94580498D01*
X176703211Y-92368132D01*
X176681537Y-92315806D01*
X176681537Y-92068003D01*
X176703211Y-92015677D01*
X176755537Y-91994003D01*
X176807863Y-92015677D01*
X176844876Y-92052690D01*
X176959004Y-92118582D01*
X177086295Y-92152689D01*
X177086296Y-92152690D01*
X177086298Y-92152690D01*
X177218084Y-92152690D01*
X177218084Y-92152689D01*
X177345376Y-92118582D01*
X177459504Y-92052690D01*
X177552690Y-91959504D01*
X177618582Y-91845376D01*
X177652689Y-91718084D01*
X177652690Y-91718084D01*
X177652690Y-91607312D01*
X177674364Y-91554986D01*
X178457164Y-90772186D01*
X179259167Y-89970182D01*
X179311492Y-89948509D01*
X179363818Y-89970183D01*
X179379857Y-89994186D01*
X179381512Y-89998181D01*
X179447407Y-90112314D01*
X179525733Y-90190640D01*
X179547407Y-90242966D01*
X179547407Y-91637471D01*
X179567883Y-91713888D01*
X179567887Y-91713899D01*
X179568541Y-91715031D01*
X179568542Y-91715032D01*
X179607447Y-91782418D01*
X180977826Y-93152797D01*
X180999500Y-93205123D01*
X180999500Y-93315894D01*
X181033606Y-93443181D01*
X181033610Y-93443190D01*
X181099500Y-93557314D01*
X181192686Y-93650500D01*
X181306814Y-93716392D01*
X181434105Y-93750499D01*
X181434106Y-93750500D01*
X181434108Y-93750500D01*
X181565894Y-93750500D01*
X181565894Y-93750499D01*
X181693186Y-93716392D01*
X181807314Y-93650500D01*
X181900500Y-93557314D01*
X181966392Y-93443186D01*
X182000499Y-93315894D01*
X182000500Y-93315894D01*
X182000500Y-93184106D01*
X182000499Y-93184105D01*
X181966393Y-93056818D01*
X181966392Y-93056814D01*
X181900500Y-92942686D01*
X181807314Y-92849500D01*
X181705671Y-92790816D01*
X181693190Y-92783610D01*
X181693181Y-92783606D01*
X181565894Y-92749500D01*
X181565892Y-92749500D01*
X181455123Y-92749500D01*
X181402797Y-92727826D01*
X180170081Y-91495110D01*
X180148407Y-91442784D01*
X180148407Y-90242966D01*
X180170081Y-90190640D01*
X180209221Y-90151500D01*
X180248407Y-90112314D01*
X180314299Y-89998186D01*
X180327654Y-89948340D01*
X180338937Y-89933636D01*
X180345645Y-89916356D01*
X180355545Y-89911992D01*
X180362131Y-89903410D01*
X180380509Y-89900990D01*
X180397472Y-89893514D01*
X180407311Y-89897460D01*
X180418284Y-89896016D01*
X180450271Y-89914008D01*
X180483600Y-89945874D01*
X180492614Y-89966326D01*
X180505036Y-89984909D01*
X180503720Y-89991527D01*
X180506442Y-89997701D01*
X180498353Y-90018538D01*
X180493998Y-90040461D01*
X180493990Y-90040473D01*
X180483207Y-90056610D01*
X180427766Y-90190457D01*
X180427763Y-90190468D01*
X180399500Y-90332560D01*
X180399500Y-90477439D01*
X180427763Y-90619531D01*
X180427766Y-90619542D01*
X180483206Y-90753387D01*
X180546010Y-90847380D01*
X180563700Y-90873854D01*
X180666146Y-90976300D01*
X180786610Y-91056792D01*
X180920462Y-91112235D01*
X181062560Y-91140500D01*
X181062561Y-91140500D01*
X181937439Y-91140500D01*
X181937440Y-91140500D01*
X182079538Y-91112235D01*
X182213390Y-91056792D01*
X182333854Y-90976300D01*
X182436300Y-90873854D01*
X182516792Y-90753390D01*
X182572235Y-90619538D01*
X182600500Y-90477440D01*
X182600500Y-90332560D01*
X182572235Y-90190462D01*
X182516792Y-90056610D01*
X182506009Y-90040473D01*
X182494960Y-89984925D01*
X182523167Y-89942707D01*
X182521965Y-89941242D01*
X182524775Y-89938936D01*
X182668936Y-89794775D01*
X182668937Y-89794773D01*
X182782206Y-89625252D01*
X182860225Y-89436898D01*
X182860227Y-89436891D01*
X182870549Y-89385000D01*
X181875278Y-89385000D01*
X181919333Y-89308694D01*
X181950000Y-89194244D01*
X181950000Y-89075756D01*
X181919333Y-88961306D01*
X181875278Y-88885000D01*
X182870549Y-88885000D01*
X182870549Y-88884999D01*
X182860227Y-88833108D01*
X182860225Y-88833101D01*
X182782206Y-88644747D01*
X182668937Y-88475226D01*
X182668936Y-88475225D01*
X182524771Y-88331061D01*
X182521959Y-88328753D01*
X182523164Y-88327284D01*
X182494960Y-88285077D01*
X182506007Y-88229529D01*
X182516792Y-88213390D01*
X182572235Y-88079538D01*
X182600500Y-87937440D01*
X182600500Y-87792560D01*
X182572235Y-87650462D01*
X182529387Y-87547018D01*
X182516793Y-87516612D01*
X182494637Y-87483454D01*
X182454655Y-87423617D01*
X182443607Y-87368070D01*
X182475072Y-87320978D01*
X182483687Y-87315221D01*
X182544552Y-87274552D01*
X182588867Y-87208231D01*
X182600500Y-87149748D01*
X182600500Y-86040252D01*
X182588867Y-85981769D01*
X182577671Y-85965014D01*
X182553614Y-85929010D01*
X182544552Y-85915448D01*
X182516177Y-85896488D01*
X182478232Y-85871133D01*
X182478233Y-85871133D01*
X182448989Y-85865316D01*
X182419748Y-85859500D01*
X180580252Y-85859500D01*
X180551010Y-85865316D01*
X180521767Y-85871133D01*
X180455449Y-85915447D01*
X180455447Y-85915449D01*
X180411133Y-85981767D01*
X180399500Y-86040253D01*
X180399500Y-86345500D01*
X180377826Y-86397826D01*
X180325500Y-86419500D01*
X179963901Y-86419500D01*
X179911575Y-86397826D01*
X179889901Y-86345500D01*
X179899815Y-86308500D01*
X179912158Y-86287122D01*
X179966392Y-86193186D01*
X180000499Y-86065894D01*
X180000500Y-86065894D01*
X180000500Y-85934106D01*
X180000499Y-85934105D01*
X179966393Y-85806818D01*
X179966392Y-85806814D01*
X179900500Y-85692686D01*
X179807314Y-85599500D01*
X179745993Y-85564096D01*
X179693190Y-85533610D01*
X179693181Y-85533606D01*
X179565894Y-85499500D01*
X179565892Y-85499500D01*
X179455123Y-85499500D01*
X179402797Y-85477826D01*
X178822174Y-84897203D01*
X178800500Y-84844877D01*
X178800500Y-80528406D01*
X178822174Y-80476080D01*
X178851633Y-80458028D01*
X178960826Y-80422549D01*
X178960826Y-80422548D01*
X178960832Y-80422547D01*
X179129199Y-80336760D01*
X179282073Y-80225690D01*
X179415690Y-80092073D01*
X179526760Y-79939199D01*
X179612547Y-79770832D01*
X179615507Y-79761724D01*
X179670937Y-79591128D01*
X179670937Y-79591125D01*
X179670940Y-79591118D01*
X179700500Y-79404481D01*
X179700500Y-79215519D01*
X179670940Y-79028882D01*
X179670938Y-79028877D01*
X179670937Y-79028871D01*
X179612550Y-78849175D01*
X179612547Y-78849171D01*
X179612547Y-78849168D01*
X179526760Y-78680801D01*
X179415690Y-78527927D01*
X179282073Y-78394310D01*
X179282070Y-78394307D01*
X179282068Y-78394306D01*
X179129198Y-78283239D01*
X178960824Y-78197449D01*
X178781128Y-78139062D01*
X178781115Y-78139059D01*
X178594482Y-78109500D01*
X178594481Y-78109500D01*
X178405519Y-78109500D01*
X178405518Y-78109500D01*
X178218884Y-78139059D01*
X178218871Y-78139062D01*
X178039175Y-78197449D01*
X177870801Y-78283239D01*
X177717931Y-78394306D01*
X177584306Y-78527931D01*
X177473239Y-78680801D01*
X177387449Y-78849175D01*
X177329062Y-79028871D01*
X177329059Y-79028884D01*
X177299500Y-79215518D01*
X177299500Y-79404481D01*
X177329059Y-79591115D01*
X177329062Y-79591128D01*
X177387449Y-79770824D01*
X177473239Y-79939198D01*
X177540713Y-80032068D01*
X177584310Y-80092073D01*
X177717927Y-80225690D01*
X177870801Y-80336760D01*
X178039168Y-80422547D01*
X178039170Y-80422547D01*
X178039173Y-80422549D01*
X178148367Y-80458028D01*
X178191434Y-80494811D01*
X178199500Y-80528406D01*
X178199500Y-85039564D01*
X178219977Y-85115985D01*
X178219979Y-85115990D01*
X178251112Y-85169913D01*
X178259541Y-85184512D01*
X178977826Y-85902797D01*
X178999500Y-85955123D01*
X178999500Y-86065894D01*
X179033606Y-86193181D01*
X179033610Y-86193190D01*
X179100185Y-86308500D01*
X179107578Y-86364652D01*
X179073099Y-86409586D01*
X179036099Y-86419500D01*
X178223476Y-86419500D01*
X178171150Y-86397826D01*
X178157542Y-86379095D01*
X178138529Y-86341782D01*
X178138529Y-86341781D01*
X178043220Y-86246472D01*
X177980904Y-86214720D01*
X177944122Y-86171653D01*
X177940500Y-86148786D01*
X177940500Y-81036624D01*
X177940501Y-81036611D01*
X177940501Y-80925197D01*
X177940500Y-80925196D01*
X177913208Y-80823342D01*
X177913206Y-80823337D01*
X177860479Y-80732012D01*
X177783334Y-80654867D01*
X177783323Y-80654857D01*
X176526950Y-79398483D01*
X174882553Y-77754086D01*
X171820413Y-74691946D01*
X177000000Y-74691946D01*
X177000000Y-74928053D01*
X177036934Y-75161248D01*
X177036937Y-75161261D01*
X177109892Y-75385792D01*
X177217082Y-75596166D01*
X177277340Y-75679105D01*
X177976212Y-74980233D01*
X177987482Y-75022292D01*
X178059890Y-75147708D01*
X178162292Y-75250110D01*
X178287708Y-75322518D01*
X178329765Y-75333787D01*
X177630893Y-76032658D01*
X177713833Y-76092917D01*
X177924207Y-76200107D01*
X178148738Y-76273062D01*
X178148751Y-76273065D01*
X178381946Y-76310000D01*
X178618054Y-76310000D01*
X178851248Y-76273065D01*
X178851261Y-76273062D01*
X179075792Y-76200107D01*
X179286170Y-76092915D01*
X179369105Y-76032659D01*
X178670234Y-75333787D01*
X178712292Y-75322518D01*
X178837708Y-75250110D01*
X178940110Y-75147708D01*
X179012518Y-75022292D01*
X179023787Y-74980233D01*
X179722659Y-75679105D01*
X179782915Y-75596170D01*
X179890107Y-75385792D01*
X179963062Y-75161261D01*
X179963065Y-75161248D01*
X180000000Y-74928053D01*
X180000000Y-74691946D01*
X179963065Y-74458751D01*
X179963062Y-74458738D01*
X179890107Y-74234207D01*
X179782917Y-74023833D01*
X179722658Y-73940893D01*
X179023787Y-74639764D01*
X179012518Y-74597708D01*
X178940110Y-74472292D01*
X178837708Y-74369890D01*
X178712292Y-74297482D01*
X178670232Y-74286212D01*
X179369105Y-73587340D01*
X179369106Y-73587340D01*
X179286166Y-73527082D01*
X179075792Y-73419892D01*
X178851261Y-73346937D01*
X178851248Y-73346934D01*
X178618054Y-73310000D01*
X178381946Y-73310000D01*
X178148751Y-73346934D01*
X178148738Y-73346937D01*
X177924207Y-73419892D01*
X177713828Y-73527084D01*
X177630893Y-73587339D01*
X177630893Y-73587340D01*
X178329765Y-74286212D01*
X178287708Y-74297482D01*
X178162292Y-74369890D01*
X178059890Y-74472292D01*
X177987482Y-74597708D01*
X177976212Y-74639765D01*
X177277340Y-73940893D01*
X177277339Y-73940893D01*
X177217084Y-74023828D01*
X177109892Y-74234207D01*
X177036937Y-74458738D01*
X177036934Y-74458751D01*
X177000000Y-74691946D01*
X171820413Y-74691946D01*
X167605291Y-70476824D01*
X167583618Y-70424500D01*
X167605292Y-70372174D01*
X167657618Y-70350500D01*
X168250501Y-70350500D01*
X168302827Y-70372174D01*
X168324501Y-70424500D01*
X168324501Y-70556519D01*
X168339353Y-70650304D01*
X168339354Y-70650306D01*
X168367285Y-70705122D01*
X168396950Y-70763342D01*
X168486658Y-70853050D01*
X168599696Y-70910646D01*
X168693481Y-70925500D01*
X169306518Y-70925499D01*
X169306519Y-70925499D01*
X169400304Y-70910646D01*
X169400306Y-70910645D01*
X169402419Y-70909568D01*
X169513342Y-70853050D01*
X169603050Y-70763342D01*
X169660646Y-70650304D01*
X169675500Y-70556519D01*
X169675499Y-70093482D01*
X169660937Y-70001536D01*
X169660646Y-69999695D01*
X169660645Y-69999693D01*
X169630770Y-69941061D01*
X169603050Y-69886658D01*
X169513342Y-69796950D01*
X169400304Y-69739354D01*
X169400302Y-69739353D01*
X169400301Y-69739353D01*
X169306519Y-69724500D01*
X168693480Y-69724500D01*
X168599695Y-69739353D01*
X168599694Y-69739354D01*
X168595613Y-69741434D01*
X168562017Y-69749500D01*
X167379404Y-69749500D01*
X167327078Y-69727826D01*
X167248752Y-69649500D01*
X167134628Y-69583610D01*
X167134619Y-69583606D01*
X167007332Y-69549500D01*
X167007330Y-69549500D01*
X166875546Y-69549500D01*
X166875544Y-69549500D01*
X166748256Y-69583606D01*
X166748247Y-69583610D01*
X166634123Y-69649500D01*
X166540938Y-69742685D01*
X166475048Y-69856809D01*
X166475044Y-69856818D01*
X166444432Y-69971062D01*
X166409953Y-70015995D01*
X166353801Y-70023387D01*
X166320628Y-70004235D01*
X165772719Y-69456326D01*
X165751045Y-69404000D01*
X165772719Y-69351674D01*
X165825045Y-69330000D01*
X165850000Y-69330000D01*
X165850000Y-68355000D01*
X165832676Y-68337676D01*
X165822174Y-68333326D01*
X165800500Y-68281000D01*
X165800500Y-67929000D01*
X165822174Y-67876674D01*
X165874500Y-67855000D01*
X166026000Y-67855000D01*
X166078326Y-67876674D01*
X166100000Y-67929000D01*
X166100000Y-68105000D01*
X166276000Y-68105000D01*
X166328326Y-68126674D01*
X166350000Y-68179000D01*
X166350000Y-69330000D01*
X166447829Y-69330000D01*
X166507375Y-69323597D01*
X166507380Y-69323596D01*
X166642087Y-69273354D01*
X166642088Y-69273353D01*
X166757188Y-69187188D01*
X166843353Y-69072088D01*
X166843354Y-69072087D01*
X166893596Y-68937380D01*
X166893597Y-68937375D01*
X166894220Y-68931583D01*
X168025001Y-68931583D01*
X168031408Y-69002102D01*
X168031409Y-69002106D01*
X168081979Y-69164393D01*
X168169925Y-69309874D01*
X168290125Y-69430074D01*
X168435606Y-69518020D01*
X168597890Y-69568589D01*
X168597900Y-69568591D01*
X168668422Y-69574999D01*
X168750000Y-69574999D01*
X168750000Y-68925000D01*
X168025001Y-68925000D01*
X168025001Y-68931583D01*
X166894220Y-68931583D01*
X166898690Y-68890005D01*
X166900004Y-68760524D01*
X166910959Y-68734816D01*
X166920000Y-68712990D01*
X166920000Y-67906988D01*
X166929940Y-67924205D01*
X166985795Y-67980060D01*
X167054204Y-68019556D01*
X167130504Y-68040000D01*
X167209496Y-68040000D01*
X167285796Y-68019556D01*
X167354205Y-67980060D01*
X167410060Y-67924205D01*
X167420000Y-67906988D01*
X167420000Y-68709863D01*
X167461682Y-68701572D01*
X167461693Y-68701569D01*
X167643675Y-68626190D01*
X167807459Y-68516753D01*
X167909780Y-68414432D01*
X167962106Y-68392758D01*
X168014432Y-68414432D01*
X168025000Y-68425000D01*
X168750000Y-68425000D01*
X168750000Y-67775000D01*
X168668429Y-67775000D01*
X168668416Y-67775001D01*
X168597897Y-67781408D01*
X168597893Y-67781409D01*
X168435606Y-67831979D01*
X168290120Y-67919928D01*
X168286602Y-67922685D01*
X168285035Y-67920685D01*
X168240077Y-67939277D01*
X168187764Y-67917572D01*
X168166121Y-67865233D01*
X168167543Y-67850839D01*
X168170000Y-67838488D01*
X168170000Y-67440000D01*
X167470000Y-67440000D01*
X167470000Y-66940000D01*
X168170000Y-66940000D01*
X168170000Y-66541509D01*
X168131572Y-66348317D01*
X168131569Y-66348306D01*
X168056190Y-66166324D01*
X167946753Y-66002540D01*
X167807459Y-65863246D01*
X167643675Y-65753809D01*
X167461691Y-65678429D01*
X167461684Y-65678427D01*
X167420000Y-65670136D01*
X167420000Y-66473011D01*
X167410060Y-66455795D01*
X167354205Y-66399940D01*
X167285796Y-66360444D01*
X167209496Y-66340000D01*
X167130504Y-66340000D01*
X167054204Y-66360444D01*
X166985795Y-66399940D01*
X166929940Y-66455795D01*
X166920000Y-66473011D01*
X166920000Y-65670136D01*
X166919999Y-65670136D01*
X166878315Y-65678427D01*
X166878308Y-65678429D01*
X166696324Y-65753809D01*
X166532540Y-65863246D01*
X166393246Y-66002540D01*
X166283811Y-66166321D01*
X166260698Y-66222120D01*
X166220648Y-66262168D01*
X166164011Y-66262167D01*
X166140008Y-66246128D01*
X166093365Y-66199485D01*
X166027009Y-66161174D01*
X165962139Y-66123721D01*
X165962130Y-66123717D01*
X165815768Y-66084500D01*
X165815766Y-66084500D01*
X165664234Y-66084500D01*
X165664232Y-66084500D01*
X165517869Y-66123717D01*
X165517860Y-66123721D01*
X165386637Y-66199483D01*
X165279483Y-66306637D01*
X165203721Y-66437860D01*
X165203718Y-66437867D01*
X165191057Y-66485118D01*
X165156578Y-66530050D01*
X165100425Y-66537442D01*
X165067253Y-66518290D01*
X164551503Y-66002540D01*
X163967483Y-65418520D01*
X163967480Y-65418518D01*
X163967479Y-65418517D01*
X163876162Y-65365795D01*
X163876158Y-65365793D01*
X163774297Y-65338500D01*
X162063727Y-65338500D01*
X161958273Y-65338500D01*
X161907342Y-65352146D01*
X161856411Y-65365793D01*
X161856407Y-65365795D01*
X161765090Y-65418517D01*
X160639629Y-66543977D01*
X160587303Y-66565651D01*
X160534977Y-66543977D01*
X160515825Y-66510806D01*
X160496281Y-66437865D01*
X160420515Y-66306635D01*
X160313365Y-66199485D01*
X160247009Y-66161174D01*
X160182139Y-66123721D01*
X160182130Y-66123717D01*
X160035768Y-66084500D01*
X160035766Y-66084500D01*
X159884234Y-66084500D01*
X159884232Y-66084500D01*
X159737869Y-66123717D01*
X159737860Y-66123721D01*
X159606636Y-66199484D01*
X159559992Y-66246127D01*
X159507666Y-66267800D01*
X159455340Y-66246125D01*
X159439300Y-66222118D01*
X159416190Y-66166324D01*
X159306753Y-66002540D01*
X159167459Y-65863246D01*
X159003675Y-65753809D01*
X158821691Y-65678429D01*
X158821684Y-65678427D01*
X158780000Y-65670136D01*
X158780000Y-66473011D01*
X158770060Y-66455795D01*
X158714205Y-66399940D01*
X158645796Y-66360444D01*
X158569496Y-66340000D01*
X158490504Y-66340000D01*
X158414204Y-66360444D01*
X158345795Y-66399940D01*
X158289940Y-66455795D01*
X158280000Y-66473011D01*
X158280000Y-65670136D01*
X158279999Y-65670136D01*
X158238315Y-65678427D01*
X158238308Y-65678429D01*
X158056324Y-65753809D01*
X157892540Y-65863246D01*
X157753246Y-66002540D01*
X157643809Y-66166324D01*
X157568430Y-66348306D01*
X157568427Y-66348317D01*
X157530000Y-66541509D01*
X157530000Y-66940000D01*
X158230000Y-66940000D01*
X158230000Y-67440000D01*
X157530000Y-67440000D01*
X157530000Y-67838490D01*
X157568427Y-68031682D01*
X157568430Y-68031693D01*
X157643809Y-68213675D01*
X157753246Y-68377459D01*
X157892540Y-68516753D01*
X158056324Y-68626190D01*
X158238306Y-68701569D01*
X158238317Y-68701572D01*
X158279999Y-68709863D01*
X158280000Y-68709863D01*
X158280000Y-67906988D01*
X158289940Y-67924205D01*
X158345795Y-67980060D01*
X158414204Y-68019556D01*
X158490504Y-68040000D01*
X158569496Y-68040000D01*
X158645796Y-68019556D01*
X158714205Y-67980060D01*
X158770060Y-67924205D01*
X158809556Y-67855796D01*
X158809769Y-67855000D01*
X159526000Y-67855000D01*
X159578326Y-67876674D01*
X159600000Y-67929000D01*
X159600000Y-68105000D01*
X159776000Y-68105000D01*
X159828326Y-68126674D01*
X159850000Y-68179000D01*
X159850000Y-69052954D01*
X159828326Y-69105280D01*
X158338716Y-70594890D01*
X158286390Y-70616564D01*
X158234064Y-70594890D01*
X158212390Y-70542564D01*
X158216262Y-70523171D01*
X158215137Y-70522870D01*
X158236622Y-70442685D01*
X158250499Y-70390894D01*
X158250500Y-70390894D01*
X158250500Y-70259106D01*
X158250499Y-70259105D01*
X158247925Y-70249500D01*
X158216392Y-70131814D01*
X158150500Y-70017686D01*
X158057314Y-69924500D01*
X157991768Y-69886657D01*
X157943190Y-69858610D01*
X157943181Y-69858606D01*
X157815894Y-69824500D01*
X157815892Y-69824500D01*
X157684108Y-69824500D01*
X157684106Y-69824500D01*
X157556818Y-69858606D01*
X157556809Y-69858610D01*
X157442685Y-69924500D01*
X157364360Y-70002826D01*
X157312034Y-70024500D01*
X157218632Y-70024500D01*
X157166306Y-70002826D01*
X157152698Y-69984096D01*
X157124720Y-69929188D01*
X157103050Y-69886658D01*
X157013342Y-69796950D01*
X156900304Y-69739354D01*
X156900302Y-69739353D01*
X156900301Y-69739353D01*
X156806519Y-69724500D01*
X156193480Y-69724500D01*
X156099695Y-69739353D01*
X156099693Y-69739354D01*
X155986657Y-69796950D01*
X155896951Y-69886656D01*
X155839353Y-69999698D01*
X155824500Y-70093480D01*
X155824500Y-70556519D01*
X155839353Y-70650304D01*
X155839354Y-70650306D01*
X155867285Y-70705122D01*
X155896950Y-70763342D01*
X155986658Y-70853050D01*
X156099696Y-70910646D01*
X156193481Y-70925500D01*
X156806518Y-70925499D01*
X156806519Y-70925499D01*
X156900304Y-70910646D01*
X156900306Y-70910645D01*
X156902419Y-70909568D01*
X157013342Y-70853050D01*
X157103050Y-70763342D01*
X157152697Y-70665903D01*
X157161749Y-70658173D01*
X157166305Y-70647174D01*
X157182464Y-70640480D01*
X157195764Y-70629122D01*
X157218631Y-70625500D01*
X157312034Y-70625500D01*
X157364360Y-70647174D01*
X157442686Y-70725500D01*
X157556814Y-70791392D01*
X157684105Y-70825499D01*
X157684106Y-70825500D01*
X157684108Y-70825500D01*
X157815894Y-70825500D01*
X157815894Y-70825499D01*
X157943186Y-70791392D01*
X157943185Y-70791392D01*
X157947870Y-70790137D01*
X157948647Y-70793037D01*
X157995830Y-70793001D01*
X158035910Y-70833018D01*
X158035954Y-70889655D01*
X158019891Y-70913716D01*
X157591017Y-71342590D01*
X157538292Y-71433912D01*
X157538293Y-71433913D01*
X157511000Y-71535773D01*
X157511000Y-73277455D01*
X157489326Y-73329781D01*
X144679517Y-86139590D01*
X144626795Y-86230907D01*
X144626793Y-86230910D01*
X144626793Y-86230912D01*
X144615109Y-86274520D01*
X144599500Y-86332770D01*
X144599500Y-92688786D01*
X144577826Y-92741112D01*
X144559096Y-92754720D01*
X144496779Y-92786472D01*
X144401471Y-92881780D01*
X144340281Y-93001873D01*
X144340280Y-93001874D01*
X144324500Y-93101511D01*
X144324500Y-93618488D01*
X144340280Y-93718125D01*
X144340281Y-93718126D01*
X144401471Y-93838219D01*
X144465803Y-93902551D01*
X144487477Y-93954877D01*
X144465803Y-94007203D01*
X144444759Y-94021940D01*
X144441520Y-94023450D01*
X144297268Y-94112426D01*
X144177426Y-94232268D01*
X144088452Y-94376517D01*
X144035144Y-94537391D01*
X144025000Y-94636688D01*
X144025000Y-94660000D01*
X145974999Y-94660000D01*
X145974999Y-94636693D01*
X145974998Y-94636687D01*
X145964855Y-94537391D01*
X145911547Y-94376517D01*
X145822573Y-94232268D01*
X145702731Y-94112426D01*
X145558484Y-94023454D01*
X145555243Y-94021942D01*
X145516983Y-93980181D01*
X145519457Y-93923598D01*
X145534193Y-93902554D01*
X145598528Y-93838220D01*
X145608389Y-93818867D01*
X145617542Y-93800905D01*
X145660609Y-93764122D01*
X145683476Y-93760500D01*
X147911970Y-93760500D01*
X147953083Y-93772972D01*
X148024927Y-93820978D01*
X148056392Y-93868070D01*
X148045343Y-93923618D01*
X147983206Y-94016612D01*
X147927766Y-94150457D01*
X147927763Y-94150468D01*
X147902139Y-94279292D01*
X147899500Y-94292560D01*
X147899500Y-94437440D01*
X147903236Y-94456220D01*
X147927763Y-94579531D01*
X147927766Y-94579542D01*
X147954370Y-94643771D01*
X147954370Y-94700409D01*
X147938329Y-94724415D01*
X146564489Y-96098257D01*
X146508540Y-96154205D01*
X146468979Y-96222726D01*
X146468977Y-96222731D01*
X146448500Y-96299152D01*
X146448500Y-100812034D01*
X146426826Y-100864360D01*
X146374500Y-100886034D01*
X146322174Y-100864360D01*
X146307314Y-100849500D01*
X146193190Y-100783610D01*
X146193181Y-100783606D01*
X146065894Y-100749500D01*
X146065892Y-100749500D01*
X145955123Y-100749500D01*
X145902797Y-100727826D01*
X142572174Y-97397203D01*
X142550500Y-97344877D01*
X142550500Y-95183312D01*
X144025001Y-95183312D01*
X144035144Y-95282608D01*
X144088452Y-95443482D01*
X144177426Y-95587731D01*
X144297268Y-95707573D01*
X144441517Y-95796547D01*
X144602391Y-95849855D01*
X144701689Y-95859999D01*
X145250000Y-95859999D01*
X145298307Y-95859999D01*
X145298312Y-95859998D01*
X145397608Y-95849855D01*
X145558482Y-95796547D01*
X145702731Y-95707573D01*
X145822573Y-95587731D01*
X145911547Y-95443482D01*
X145964855Y-95282608D01*
X145974999Y-95183311D01*
X145975000Y-95183309D01*
X145975000Y-95160000D01*
X145250000Y-95160000D01*
X145250000Y-95859999D01*
X144701689Y-95859999D01*
X144749999Y-95859998D01*
X144750000Y-95859998D01*
X144750000Y-95160000D01*
X144025001Y-95160000D01*
X144025001Y-95183312D01*
X142550500Y-95183312D01*
X142550500Y-84155122D01*
X142572173Y-84102797D01*
X146350943Y-80324026D01*
X146403268Y-80302353D01*
X146436860Y-80310418D01*
X146539168Y-80362547D01*
X146539170Y-80362547D01*
X146539173Y-80362549D01*
X146718871Y-80420937D01*
X146718877Y-80420938D01*
X146718882Y-80420940D01*
X146843306Y-80440646D01*
X146905518Y-80450500D01*
X146905519Y-80450500D01*
X147094482Y-80450500D01*
X147141140Y-80443110D01*
X147281118Y-80420940D01*
X147281125Y-80420937D01*
X147281128Y-80420937D01*
X147460824Y-80362550D01*
X147460826Y-80362548D01*
X147460832Y-80362547D01*
X147629199Y-80276760D01*
X147782073Y-80165690D01*
X147915690Y-80032073D01*
X148026760Y-79879199D01*
X148112547Y-79710832D01*
X148113906Y-79706652D01*
X148170937Y-79531128D01*
X148170937Y-79531125D01*
X148170940Y-79531118D01*
X148200500Y-79344481D01*
X148200500Y-79155519D01*
X148170940Y-78968882D01*
X148170938Y-78968877D01*
X148170937Y-78968871D01*
X148112550Y-78789175D01*
X148112547Y-78789171D01*
X148112547Y-78789168D01*
X148026760Y-78620801D01*
X147915690Y-78467927D01*
X147782073Y-78334310D01*
X147782070Y-78334307D01*
X147782068Y-78334306D01*
X147629198Y-78223239D01*
X147460824Y-78137449D01*
X147281128Y-78079062D01*
X147281115Y-78079059D01*
X147094482Y-78049500D01*
X147094481Y-78049500D01*
X146905519Y-78049500D01*
X146905518Y-78049500D01*
X146718884Y-78079059D01*
X146718871Y-78079062D01*
X146539175Y-78137449D01*
X146370801Y-78223239D01*
X146217931Y-78334306D01*
X146084306Y-78467931D01*
X145973239Y-78620801D01*
X145887449Y-78789175D01*
X145829062Y-78968871D01*
X145829059Y-78968884D01*
X145799500Y-79155518D01*
X145799500Y-79344481D01*
X145829059Y-79531115D01*
X145829062Y-79531128D01*
X145887450Y-79710826D01*
X145887452Y-79710832D01*
X145939579Y-79813135D01*
X145944023Y-79869597D01*
X145925971Y-79899056D01*
X142065489Y-83759540D01*
X142009540Y-83815488D01*
X141969979Y-83884009D01*
X141969977Y-83884014D01*
X141949500Y-83960435D01*
X135800500Y-83960435D01*
X135800500Y-75897646D01*
X138199500Y-75897646D01*
X138199500Y-76102353D01*
X138231522Y-76304531D01*
X138231525Y-76304544D01*
X138294777Y-76499213D01*
X138387712Y-76681610D01*
X138461406Y-76783040D01*
X138508034Y-76847219D01*
X138652781Y-76991966D01*
X138744695Y-77058745D01*
X138818389Y-77112287D01*
X138906300Y-77157079D01*
X139000781Y-77205220D01*
X139000783Y-77205220D01*
X139000786Y-77205222D01*
X139195455Y-77268474D01*
X139195461Y-77268475D01*
X139195466Y-77268477D01*
X139296557Y-77284488D01*
X139397646Y-77300500D01*
X139397648Y-77300500D01*
X139602354Y-77300500D01*
X139683224Y-77287690D01*
X139804534Y-77268477D01*
X139804541Y-77268474D01*
X139804544Y-77268474D01*
X139999213Y-77205222D01*
X139999213Y-77205221D01*
X139999219Y-77205220D01*
X140181610Y-77112287D01*
X140347219Y-76991966D01*
X140491966Y-76847219D01*
X140612287Y-76681610D01*
X140705220Y-76499219D01*
X140768477Y-76304534D01*
X140800500Y-76102352D01*
X140800500Y-75897648D01*
X140768477Y-75695466D01*
X140768475Y-75695461D01*
X140768474Y-75695455D01*
X140705222Y-75500786D01*
X140705220Y-75500783D01*
X140705220Y-75500781D01*
X140646630Y-75385792D01*
X140612287Y-75318389D01*
X140555228Y-75239855D01*
X140491966Y-75152781D01*
X140347219Y-75008034D01*
X140230906Y-74923528D01*
X140181610Y-74887712D01*
X139999213Y-74794777D01*
X139804544Y-74731525D01*
X139804531Y-74731522D01*
X139618952Y-74702129D01*
X139618951Y-74702129D01*
X139602353Y-74699500D01*
X139602352Y-74699500D01*
X139397648Y-74699500D01*
X139397646Y-74699500D01*
X139195468Y-74731522D01*
X139195455Y-74731525D01*
X139000786Y-74794777D01*
X138818389Y-74887712D01*
X138652785Y-75008031D01*
X138652781Y-75008034D01*
X138508034Y-75152781D01*
X138508031Y-75152784D01*
X138508031Y-75152785D01*
X138387712Y-75318389D01*
X138294777Y-75500786D01*
X138231525Y-75695455D01*
X138231522Y-75695468D01*
X138199500Y-75897646D01*
X135800500Y-75897646D01*
X135800500Y-74631946D01*
X145500000Y-74631946D01*
X145500000Y-74868053D01*
X145536934Y-75101248D01*
X145536937Y-75101261D01*
X145609892Y-75325792D01*
X145717082Y-75536166D01*
X145777340Y-75619105D01*
X146476212Y-74920233D01*
X146487482Y-74962292D01*
X146559890Y-75087708D01*
X146662292Y-75190110D01*
X146787708Y-75262518D01*
X146829765Y-75273787D01*
X146130893Y-75972658D01*
X146213833Y-76032917D01*
X146424207Y-76140107D01*
X146648738Y-76213062D01*
X146648751Y-76213065D01*
X146881946Y-76250000D01*
X147118054Y-76250000D01*
X147351248Y-76213065D01*
X147351261Y-76213062D01*
X147575792Y-76140107D01*
X147786170Y-76032915D01*
X147869105Y-75972659D01*
X147170234Y-75273787D01*
X147212292Y-75262518D01*
X147337708Y-75190110D01*
X147440110Y-75087708D01*
X147512518Y-74962292D01*
X147523787Y-74920233D01*
X148222659Y-75619105D01*
X148282915Y-75536170D01*
X148390107Y-75325792D01*
X148463062Y-75101261D01*
X148463065Y-75101248D01*
X148500000Y-74868053D01*
X148500000Y-74631946D01*
X148463065Y-74398751D01*
X148463062Y-74398738D01*
X148390107Y-74174207D01*
X148282917Y-73963833D01*
X148222658Y-73880893D01*
X147523787Y-74579764D01*
X147512518Y-74537708D01*
X147440110Y-74412292D01*
X147337708Y-74309890D01*
X147212292Y-74237482D01*
X147170232Y-74226212D01*
X147869105Y-73527340D01*
X147869106Y-73527340D01*
X147786166Y-73467082D01*
X147575792Y-73359892D01*
X147351261Y-73286937D01*
X147351248Y-73286934D01*
X147118054Y-73250000D01*
X146881946Y-73250000D01*
X146648751Y-73286934D01*
X146648738Y-73286937D01*
X146424207Y-73359892D01*
X146213828Y-73467084D01*
X146130893Y-73527339D01*
X146130893Y-73527340D01*
X146829765Y-74226212D01*
X146787708Y-74237482D01*
X146662292Y-74309890D01*
X146559890Y-74412292D01*
X146487482Y-74537708D01*
X146476212Y-74579765D01*
X145777340Y-73880893D01*
X145777339Y-73880893D01*
X145717084Y-73963828D01*
X145609892Y-74174207D01*
X145536937Y-74398738D01*
X145536934Y-74398751D01*
X145500000Y-74631946D01*
X135800500Y-74631946D01*
X135800500Y-74212037D01*
X135822174Y-74159711D01*
X135836422Y-74148586D01*
X143065656Y-69811045D01*
X143103729Y-69800500D01*
X154972072Y-69800500D01*
X154983506Y-69802644D01*
X155011492Y-69800500D01*
X155039562Y-69800500D01*
X155044155Y-69799268D01*
X155057655Y-69796963D01*
X155062398Y-69796600D01*
X155088876Y-69787285D01*
X155115989Y-69780021D01*
X155126061Y-69774205D01*
X155137037Y-69770345D01*
X155160205Y-69754492D01*
X155184511Y-69740460D01*
X155192736Y-69732234D01*
X155202338Y-69725665D01*
X155218781Y-69706492D01*
X155222614Y-69702356D01*
X155240457Y-69684514D01*
X155240457Y-69684513D01*
X155240460Y-69684511D01*
X155242839Y-69680390D01*
X155246278Y-69674431D01*
X155253849Y-69665607D01*
X155265984Y-69640301D01*
X155280021Y-69615989D01*
X155281252Y-69611393D01*
X155286009Y-69598543D01*
X155286172Y-69598203D01*
X155288062Y-69594263D01*
X155293234Y-69566677D01*
X155300500Y-69539562D01*
X155300500Y-69527927D01*
X155393954Y-69029503D01*
X155424900Y-68982068D01*
X155480324Y-68970408D01*
X155527760Y-69001354D01*
X155537336Y-69021126D01*
X155581979Y-69164393D01*
X155669925Y-69309874D01*
X155790125Y-69430074D01*
X155935606Y-69518020D01*
X156097890Y-69568589D01*
X156097900Y-69568591D01*
X156168422Y-69574999D01*
X156250000Y-69574999D01*
X156750000Y-69574999D01*
X156831571Y-69574999D01*
X156831583Y-69574998D01*
X156902102Y-69568591D01*
X156902106Y-69568590D01*
X157064393Y-69518020D01*
X157209874Y-69430074D01*
X157330074Y-69309874D01*
X157418020Y-69164393D01*
X157468589Y-69002109D01*
X157468591Y-69002099D01*
X157474999Y-68931582D01*
X157475000Y-68931573D01*
X157475000Y-68925000D01*
X156750000Y-68925000D01*
X156750000Y-69574999D01*
X156250000Y-69574999D01*
X156250000Y-68717271D01*
X158780000Y-68717271D01*
X158799644Y-68754020D01*
X158800000Y-68761275D01*
X158800000Y-68877828D01*
X158806402Y-68937375D01*
X158806403Y-68937380D01*
X158856645Y-69072087D01*
X158856646Y-69072088D01*
X158942811Y-69187188D01*
X159057911Y-69273353D01*
X159057912Y-69273354D01*
X159192619Y-69323596D01*
X159192624Y-69323597D01*
X159252171Y-69330000D01*
X159350000Y-69330000D01*
X159350000Y-68355000D01*
X158780000Y-68355000D01*
X158780000Y-68717271D01*
X156250000Y-68717271D01*
X156250000Y-68425000D01*
X156750000Y-68425000D01*
X157474999Y-68425000D01*
X157474999Y-68418429D01*
X157474998Y-68418416D01*
X157468591Y-68347897D01*
X157468590Y-68347893D01*
X157418020Y-68185606D01*
X157330074Y-68040125D01*
X157209874Y-67919925D01*
X157064393Y-67831979D01*
X156902109Y-67781410D01*
X156902099Y-67781408D01*
X156831582Y-67775000D01*
X156750000Y-67775000D01*
X156750000Y-68425000D01*
X156250000Y-68425000D01*
X156250000Y-67775000D01*
X156168429Y-67775000D01*
X156168416Y-67775001D01*
X156097897Y-67781408D01*
X156097893Y-67781409D01*
X155935606Y-67831979D01*
X155790125Y-67919925D01*
X155727727Y-67982323D01*
X155675400Y-68003997D01*
X155623075Y-67982323D01*
X155601401Y-67929996D01*
X155602667Y-67916369D01*
X156600574Y-62594204D01*
X156738075Y-61860863D01*
X156769021Y-61813427D01*
X156810808Y-61800500D01*
X157847476Y-61800500D01*
X157899802Y-61822174D01*
G37*
%TD.AperFunction*%
%TD*%
M02*
