M48
; DRILL file {KiCad 9.0.6} date 2026-03-04T20:25:38+1100
; FORMAT={-:-/ absolute / metric / decimal}
; #@! TF.CreationDate,2026-03-04T20:25:38+11:00
; #@! TF.GenerationSoftware,Kicad,Pcbnew,9.0.6
; #@! TF.FileFunction,Plated,1,2,PTH
FMAT,2
METRIC
; #@! TA.AperFunction,Plated,PTH,ViaDrill
T1C0.300
; #@! TA.AperFunction,Plated,PTH,ComponentDrill
T2C0.600
; #@! TA.AperFunction,Plated,PTH,ComponentDrill
T3C0.700
; #@! TA.AperFunction,Plated,PTH,ComponentDrill
T4C0.900
; #@! TA.AperFunction,Plated,PTH,ComponentDrill
T5C1.000
; #@! TA.AperFunction,Plated,PTH,ComponentDrill
T6C1.100
%
G90
G05
T1
X146.0Y-101.25
X148.75Y-100.5
X153.5Y-107.0
X156.75Y-94.75
X156.75Y-96.25
X157.75Y-70.325
X160.0Y-97.75
X160.5Y-70.75
X165.25Y-70.5
X165.5Y-77.25
X166.941Y-70.05
X167.5Y-101.25
X167.75Y-97.25
X167.75Y-100.25
X167.75Y-104.25
X167.8Y-95.374
X168.75Y-76.0
X169.5Y-91.75
X169.75Y-96.75
X171.25Y-95.25
X171.75Y-92.75
X172.5Y-98.25
X172.5Y-115.25
X172.675Y-96.978
X173.0Y-94.5
X173.267Y-97.516
X173.5Y-89.25
X173.578Y-110.328
X174.0Y-105.75
X174.0Y-107.0
X174.25Y-103.5
X175.25Y-96.0
X175.25Y-114.25
X175.5Y-106.75
X175.75Y-93.0
X175.75Y-101.75
X175.75Y-103.0
X175.75Y-112.5
X176.5Y-99.0
X176.75Y-106.75
X177.152Y-91.652
X177.5Y-90.0
X177.75Y-102.0
X178.75Y-112.5
X179.5Y-86.0
X179.504Y-94.746
X179.848Y-89.805
X180.0Y-97.5
X181.5Y-93.25
X181.5Y-95.0
X181.504Y-96.746
X182.0Y-99.5
X182.0Y-109.0
X182.75Y-105.25
X183.0Y-96.0
X183.0Y-107.25
X185.0Y-107.25
T3
X157.15Y-108.93
X157.15Y-110.71
X157.15Y-112.49
X157.15Y-114.27
X157.15Y-116.05
X157.15Y-117.83
X157.15Y-119.61
X157.15Y-121.39
X167.85Y-109.82
X167.85Y-111.6
X167.85Y-113.38
X167.85Y-115.16
X167.85Y-116.94
X167.85Y-118.72
X167.85Y-120.5
X167.85Y-122.28
T4
X149.0Y-93.095
X149.0Y-94.365
X149.0Y-95.635
X149.0Y-96.905
X178.0Y-115.095
X178.0Y-116.365
X178.0Y-117.635
X178.0Y-118.905
X181.5Y-86.595
X181.5Y-87.865
X181.5Y-89.135
X181.5Y-90.405
T5
X170.754Y-83.335
X170.754Y-85.835
X170.754Y-88.335
T6
X147.0Y-74.75
X147.0Y-79.25
X152.0Y-83.585
X152.0Y-88.085
X162.6Y-97.835
X162.6Y-102.335
X178.5Y-74.81
X178.5Y-79.31
X184.5Y-94.25
X184.5Y-98.75
T2
G00X158.53Y-63.31
M15
G01X158.53Y-62.71
M16
G05
G00X158.53Y-67.74
M15
G01X158.53Y-66.64
M16
G05
G00X167.17Y-63.31
M15
G01X167.17Y-62.71
M16
G05
G00X167.17Y-67.74
M15
G01X167.17Y-66.64
M16
G05
M30
