%TF.GenerationSoftware,KiCad,Pcbnew,9.0.6*%
%TF.CreationDate,2026-03-04T20:25:35+11:00*%
%TF.ProjectId,CustomMouse,43757374-6f6d-44d6-9f75-73652e6b6963,rev?*%
%TF.SameCoordinates,Original*%
%TF.FileFunction,Soldermask,Top*%
%TF.FilePolarity,Negative*%
%FSLAX46Y46*%
G04 Gerber Fmt 4.6, Leading zero omitted, Abs format (unit mm)*
G04 Created by KiCad (PCBNEW 9.0.6) date 2026-03-04 20:25:35*
%MOMM*%
%LPD*%
G01*
G04 APERTURE LIST*
G04 Aperture macros list*
%AMRoundRect*
0 Rectangle with rounded corners*
0 $1 Rounding radius*
0 $2 $3 $4 $5 $6 $7 $8 $9 X,Y pos of 4 corners*
0 Add a 4 corners polygon primitive as box body*
4,1,4,$2,$3,$4,$5,$6,$7,$8,$9,$2,$3,0*
0 Add four circle primitives for the rounded corners*
1,1,$1+$1,$2,$3*
1,1,$1+$1,$4,$5*
1,1,$1+$1,$6,$7*
1,1,$1+$1,$8,$9*
0 Add four rect primitives between the rounded corners*
20,1,$1+$1,$2,$3,$4,$5,0*
20,1,$1+$1,$4,$5,$6,$7,0*
20,1,$1+$1,$6,$7,$8,$9,0*
20,1,$1+$1,$8,$9,$2,$3,0*%
G04 Aperture macros list end*
%ADD10RoundRect,0.225000X-0.225000X-0.250000X0.225000X-0.250000X0.225000X0.250000X-0.225000X0.250000X0*%
%ADD11RoundRect,0.125000X-0.625000X-0.125000X0.625000X-0.125000X0.625000X0.125000X-0.625000X0.125000X0*%
%ADD12RoundRect,0.125000X-0.125000X-0.625000X0.125000X-0.625000X0.125000X0.625000X-0.125000X0.625000X0*%
%ADD13RoundRect,0.225000X0.250000X-0.225000X0.250000X0.225000X-0.250000X0.225000X-0.250000X-0.225000X0*%
%ADD14RoundRect,0.200000X0.275000X-0.200000X0.275000X0.200000X-0.275000X0.200000X-0.275000X-0.200000X0*%
%ADD15RoundRect,0.225000X-0.250000X0.225000X-0.250000X-0.225000X0.250000X-0.225000X0.250000X0.225000X0*%
%ADD16RoundRect,0.225000X0.225000X0.250000X-0.225000X0.250000X-0.225000X-0.250000X0.225000X-0.250000X0*%
%ADD17C,1.000000*%
%ADD18C,2.000000*%
%ADD19C,2.100000*%
%ADD20R,1.800000X1.070000*%
%ADD21O,1.800000X1.070000*%
%ADD22RoundRect,0.200000X-0.200000X-0.275000X0.200000X-0.275000X0.200000X0.275000X-0.200000X0.275000X0*%
%ADD23C,0.650000*%
%ADD24R,0.600000X1.450000*%
%ADD25R,0.300000X1.450000*%
%ADD26O,1.000000X2.100000*%
%ADD27O,1.000000X1.600000*%
%ADD28O,3.220000X1.712000*%
%ADD29C,1.504000*%
%ADD30RoundRect,0.150000X-0.512500X-0.150000X0.512500X-0.150000X0.512500X0.150000X-0.512500X0.150000X0*%
G04 APERTURE END LIST*
D10*
%TO.C,C8*%
X170650000Y-99700000D03*
X172200000Y-99700000D03*
%TD*%
D11*
%TO.C,U1*%
X172325000Y-101700000D03*
X172325000Y-102500000D03*
X172325000Y-103300000D03*
X172325000Y-104100000D03*
X172325000Y-104900000D03*
X172325000Y-105700000D03*
X172325000Y-106500000D03*
X172325000Y-107300000D03*
D12*
X173700000Y-108675000D03*
X174500000Y-108675000D03*
X175300000Y-108675000D03*
X176100000Y-108675000D03*
X176900000Y-108675000D03*
X177700000Y-108675000D03*
X178500000Y-108675000D03*
X179300000Y-108675000D03*
D11*
X180675000Y-107300000D03*
X180675000Y-106500000D03*
X180675000Y-105700000D03*
X180675000Y-104900000D03*
X180675000Y-104100000D03*
X180675000Y-103300000D03*
X180675000Y-102500000D03*
X180675000Y-101700000D03*
D12*
X179300000Y-100325000D03*
X178500000Y-100325000D03*
X177700000Y-100325000D03*
X176900000Y-100325000D03*
X176100000Y-100325000D03*
X175300000Y-100325000D03*
X174500000Y-100325000D03*
X173700000Y-100325000D03*
%TD*%
D13*
%TO.C,C15*%
X177540000Y-88370000D03*
X177540000Y-86820000D03*
%TD*%
D14*
%TO.C,R2*%
X169000000Y-70325000D03*
X169000000Y-68675000D03*
%TD*%
D15*
%TO.C,C9*%
X166287500Y-72750000D03*
X166287500Y-74300000D03*
%TD*%
D16*
%TO.C,C3*%
X155425000Y-112555000D03*
X153875000Y-112555000D03*
%TD*%
D17*
%TO.C,TP1*%
X151500000Y-102950000D03*
%TD*%
D18*
%TO.C,DFU1*%
X184500000Y-94250000D03*
X184500000Y-98750000D03*
%TD*%
D10*
%TO.C,C11*%
X178425000Y-110900000D03*
X179975000Y-110900000D03*
%TD*%
D19*
%TO.C,MH2*%
X139500000Y-76000000D03*
%TD*%
D10*
%TO.C,C2*%
X150650000Y-115720000D03*
X152200000Y-115720000D03*
%TD*%
D18*
%TO.C,RMB1*%
X178500000Y-79310000D03*
X178500000Y-74810000D03*
%TD*%
D20*
%TO.C,D3*%
X178000000Y-115095000D03*
D21*
X178000000Y-116365000D03*
X178000000Y-117635000D03*
X178000000Y-118905000D03*
%TD*%
D18*
%TO.C,LMB1*%
X147000000Y-79250000D03*
X147000000Y-74750000D03*
%TD*%
D13*
%TO.C,C17*%
X174000000Y-116775000D03*
X174000000Y-115225000D03*
%TD*%
D18*
%TO.C,MMB1*%
X152000000Y-83585000D03*
X152000000Y-88085000D03*
%TD*%
D22*
%TO.C,R6*%
X174600000Y-97615000D03*
X176250000Y-97615000D03*
%TD*%
D23*
%TO.C,USB1*%
X165740000Y-66660000D03*
X159960000Y-66660000D03*
D24*
X166100000Y-68105000D03*
X165300000Y-68105000D03*
D25*
X164100000Y-68105000D03*
X163100000Y-68105000D03*
X162600000Y-68105000D03*
X161600000Y-68105000D03*
D24*
X160400000Y-68105000D03*
X159600000Y-68105000D03*
X159600000Y-68105000D03*
X160400000Y-68105000D03*
D25*
X161100000Y-68105000D03*
X162100000Y-68105000D03*
X163600000Y-68105000D03*
X164600000Y-68105000D03*
D24*
X165300000Y-68105000D03*
X166100000Y-68105000D03*
D26*
X167170000Y-67190000D03*
D27*
X167170000Y-63010000D03*
D26*
X158530000Y-67190000D03*
D27*
X158530000Y-63010000D03*
%TD*%
D17*
%TO.C,TP2*%
X151500000Y-106000000D03*
%TD*%
D13*
%TO.C,C1*%
X158787500Y-74350000D03*
X158787500Y-72800000D03*
%TD*%
D18*
%TO.C,WHEEL1*%
X172754000Y-80435000D03*
X172754000Y-91235000D03*
D28*
X170754000Y-83335000D03*
X170754000Y-85835000D03*
X170754000Y-88335000D03*
%TD*%
D17*
%TO.C,TP3*%
X151500000Y-109050000D03*
%TD*%
D20*
%TO.C,D2*%
X149000000Y-93095000D03*
D21*
X149000000Y-94365000D03*
X149000000Y-95635000D03*
X149000000Y-96905000D03*
%TD*%
D14*
%TO.C,R3*%
X156500000Y-70325000D03*
X156500000Y-68675000D03*
%TD*%
D10*
%TO.C,C5*%
X153925000Y-114305000D03*
X155475000Y-114305000D03*
%TD*%
D13*
%TO.C,C16*%
X145000000Y-94910000D03*
X145000000Y-93360000D03*
%TD*%
D16*
%TO.C,C4*%
X155425000Y-116055000D03*
X153875000Y-116055000D03*
%TD*%
D20*
%TO.C,D1*%
X181500000Y-86595000D03*
D21*
X181500000Y-87865000D03*
X181500000Y-89135000D03*
X181500000Y-90405000D03*
%TD*%
D14*
%TO.C,R5*%
X170425000Y-102825000D03*
X170425000Y-101175000D03*
%TD*%
%TO.C,R1*%
X155425000Y-119545000D03*
X155425000Y-117895000D03*
%TD*%
D19*
%TO.C,MH1*%
X186750000Y-111500000D03*
%TD*%
D29*
%TO.C,SENSOR1*%
X157150000Y-108930000D03*
X157150000Y-110710000D03*
X157150000Y-112490000D03*
X157150000Y-114270000D03*
X157150000Y-116050000D03*
X157150000Y-117830000D03*
X157150000Y-119610000D03*
X157150000Y-121390000D03*
X167850000Y-122280000D03*
X167850000Y-120500000D03*
X167850000Y-118720000D03*
X167850000Y-116940000D03*
X167850000Y-115160000D03*
X167850000Y-113380000D03*
X167850000Y-111600000D03*
X167850000Y-109820000D03*
%TD*%
D30*
%TO.C,REGULATOR1*%
X161350000Y-72600000D03*
X161350000Y-73550000D03*
X161350000Y-74500000D03*
X163625000Y-74500000D03*
X163625000Y-72600000D03*
%TD*%
D14*
%TO.C,R4*%
X169925000Y-111545000D03*
X169925000Y-109895000D03*
%TD*%
D15*
%TO.C,C7*%
X170425000Y-104325000D03*
X170425000Y-105875000D03*
%TD*%
D18*
%TO.C,MACRO1*%
X162600000Y-97835000D03*
X162600000Y-102335000D03*
%TD*%
M02*
