%TF.GenerationSoftware,KiCad,Pcbnew,9.0.6*%
%TF.CreationDate,2026-03-04T20:25:34+11:00*%
%TF.ProjectId,CustomMouse,43757374-6f6d-44d6-9f75-73652e6b6963,rev?*%
%TF.SameCoordinates,Original*%
%TF.FileFunction,Paste,Top*%
%TF.FilePolarity,Positive*%
%FSLAX46Y46*%
G04 Gerber Fmt 4.6, Leading zero omitted, Abs format (unit mm)*
G04 Created by KiCad (PCBNEW 9.0.6) date 2026-03-04 20:25:34*
%MOMM*%
%LPD*%
G01*
G04 APERTURE LIST*
G04 Aperture macros list*
%AMRoundRect*
0 Rectangle with rounded corners*
0 $1 Rounding radius*
0 $2 $3 $4 $5 $6 $7 $8 $9 X,Y pos of 4 corners*
0 Add a 4 corners polygon primitive as box body*
4,1,4,$2,$3,$4,$5,$6,$7,$8,$9,$2,$3,0*
0 Add four circle primitives for the rounded corners*
1,1,$1+$1,$2,$3*
1,1,$1+$1,$4,$5*
1,1,$1+$1,$6,$7*
1,1,$1+$1,$8,$9*
0 Add four rect primitives between the rounded corners*
20,1,$1+$1,$2,$3,$4,$5,0*
20,1,$1+$1,$4,$5,$6,$7,0*
20,1,$1+$1,$6,$7,$8,$9,0*
20,1,$1+$1,$8,$9,$2,$3,0*%
G04 Aperture macros list end*
%ADD10RoundRect,0.225000X-0.225000X-0.250000X0.225000X-0.250000X0.225000X0.250000X-0.225000X0.250000X0*%
%ADD11RoundRect,0.125000X-0.625000X-0.125000X0.625000X-0.125000X0.625000X0.125000X-0.625000X0.125000X0*%
%ADD12RoundRect,0.125000X-0.125000X-0.625000X0.125000X-0.625000X0.125000X0.625000X-0.125000X0.625000X0*%
%ADD13RoundRect,0.225000X0.250000X-0.225000X0.250000X0.225000X-0.250000X0.225000X-0.250000X-0.225000X0*%
%ADD14RoundRect,0.200000X0.275000X-0.200000X0.275000X0.200000X-0.275000X0.200000X-0.275000X-0.200000X0*%
%ADD15RoundRect,0.225000X-0.250000X0.225000X-0.250000X-0.225000X0.250000X-0.225000X0.250000X0.225000X0*%
%ADD16RoundRect,0.225000X0.225000X0.250000X-0.225000X0.250000X-0.225000X-0.250000X0.225000X-0.250000X0*%
%ADD17RoundRect,0.200000X-0.200000X-0.275000X0.200000X-0.275000X0.200000X0.275000X-0.200000X0.275000X0*%
%ADD18R,0.600000X1.450000*%
%ADD19R,0.300000X1.450000*%
%ADD20RoundRect,0.150000X-0.512500X-0.150000X0.512500X-0.150000X0.512500X0.150000X-0.512500X0.150000X0*%
G04 APERTURE END LIST*
D10*
%TO.C,C8*%
X170650000Y-99700000D03*
X172200000Y-99700000D03*
%TD*%
D11*
%TO.C,U1*%
X172325000Y-101700000D03*
X172325000Y-102500000D03*
X172325000Y-103300000D03*
X172325000Y-104100000D03*
X172325000Y-104900000D03*
X172325000Y-105700000D03*
X172325000Y-106500000D03*
X172325000Y-107300000D03*
D12*
X173700000Y-108675000D03*
X174500000Y-108675000D03*
X175300000Y-108675000D03*
X176100000Y-108675000D03*
X176900000Y-108675000D03*
X177700000Y-108675000D03*
X178500000Y-108675000D03*
X179300000Y-108675000D03*
D11*
X180675000Y-107300000D03*
X180675000Y-106500000D03*
X180675000Y-105700000D03*
X180675000Y-104900000D03*
X180675000Y-104100000D03*
X180675000Y-103300000D03*
X180675000Y-102500000D03*
X180675000Y-101700000D03*
D12*
X179300000Y-100325000D03*
X178500000Y-100325000D03*
X177700000Y-100325000D03*
X176900000Y-100325000D03*
X176100000Y-100325000D03*
X175300000Y-100325000D03*
X174500000Y-100325000D03*
X173700000Y-100325000D03*
%TD*%
D13*
%TO.C,C15*%
X177540000Y-88370000D03*
X177540000Y-86820000D03*
%TD*%
D14*
%TO.C,R2*%
X169000000Y-70325000D03*
X169000000Y-68675000D03*
%TD*%
D15*
%TO.C,C9*%
X166287500Y-72750000D03*
X166287500Y-74300000D03*
%TD*%
D16*
%TO.C,C3*%
X155425000Y-112555000D03*
X153875000Y-112555000D03*
%TD*%
D10*
%TO.C,C11*%
X178425000Y-110900000D03*
X179975000Y-110900000D03*
%TD*%
%TO.C,C2*%
X150650000Y-115720000D03*
X152200000Y-115720000D03*
%TD*%
D13*
%TO.C,C17*%
X174000000Y-116775000D03*
X174000000Y-115225000D03*
%TD*%
D17*
%TO.C,R6*%
X174600000Y-97615000D03*
X176250000Y-97615000D03*
%TD*%
D18*
%TO.C,USB1*%
X166100000Y-68105000D03*
X165300000Y-68105000D03*
D19*
X164100000Y-68105000D03*
X163100000Y-68105000D03*
X162600000Y-68105000D03*
X161600000Y-68105000D03*
D18*
X160400000Y-68105000D03*
X159600000Y-68105000D03*
X159600000Y-68105000D03*
X160400000Y-68105000D03*
D19*
X161100000Y-68105000D03*
X162100000Y-68105000D03*
X163600000Y-68105000D03*
X164600000Y-68105000D03*
D18*
X165300000Y-68105000D03*
X166100000Y-68105000D03*
%TD*%
D13*
%TO.C,C1*%
X158787500Y-74350000D03*
X158787500Y-72800000D03*
%TD*%
D14*
%TO.C,R3*%
X156500000Y-70325000D03*
X156500000Y-68675000D03*
%TD*%
D10*
%TO.C,C5*%
X153925000Y-114305000D03*
X155475000Y-114305000D03*
%TD*%
D13*
%TO.C,C16*%
X145000000Y-94910000D03*
X145000000Y-93360000D03*
%TD*%
D16*
%TO.C,C4*%
X155425000Y-116055000D03*
X153875000Y-116055000D03*
%TD*%
D14*
%TO.C,R5*%
X170425000Y-102825000D03*
X170425000Y-101175000D03*
%TD*%
%TO.C,R1*%
X155425000Y-119545000D03*
X155425000Y-117895000D03*
%TD*%
D20*
%TO.C,REGULATOR1*%
X161350000Y-72600000D03*
X161350000Y-73550000D03*
X161350000Y-74500000D03*
X163625000Y-74500000D03*
X163625000Y-72600000D03*
%TD*%
D14*
%TO.C,R4*%
X169925000Y-111545000D03*
X169925000Y-109895000D03*
%TD*%
D15*
%TO.C,C7*%
X170425000Y-104325000D03*
X170425000Y-105875000D03*
%TD*%
M02*
